<?xml version="1.0" standalone="no"?>
<!DOCTYPE svg PUBLIC "-//W3C//DTD SVG 1.1//EN" "http://www.w3.org/Graphics/SVG/1.1/DTD/svg11.dtd" >
<svg>
<metadata>
Created by FontForge 20090914 at Fri Oct  7 17:14:42 2016
 By www-data
Copyright 2007 Google Inc. All Rights Reserved.
</metadata>
<defs>
<font id="NotoMono" horiz-adv-x="1229" >
  <font-face 
    font-family="Noto Mono"
    font-weight="400"
    font-stretch="normal"
    units-per-em="2048"
    panose-1="2 11 6 9 3 8 4 2 2 4"
    ascent="1638"
    descent="-410"
    x-height="1098"
    cap-height="1462"
    bbox="-312 -555.004 1315 2163"
    underline-thickness="102"
    underline-position="-103"
    unicode-range="U+000D-U+FFFD"
  />
<missing-glyph 
d="M193 1462h841v-1462h-841v1462zM297 104h633v1254h-633v-1254z" />
    <glyph glyph-name=".notdef" 
d="M193 1462h841v-1462h-841v1462zM297 104h633v1254h-633v-1254z" />
    <glyph glyph-name="glyph1" horiz-adv-x="0" 
 />
    <glyph glyph-name="glyph1" horiz-adv-x="0" 
 />
    <glyph glyph-name="uni000D" unicode="&#xd;" 
 />
    <glyph glyph-name="space" unicode=" " 
 />
    <glyph glyph-name="exclam" unicode="!" 
d="M676 414h-121l-51 1048h223zM614 250c84.667 0 127 -46.333 127 -139c0 -93.333 -42.333 -140 -127 -140s-127 46.667 -127 140c0 92.667 42.333 139 127 139z" />
    <glyph glyph-name="quotedbl" unicode="&#x22;" 
d="M522 1462l-41 -528h-155l-41 528h237zM944 1462l-41 -528h-155l-41 528h237z" />
    <glyph glyph-name="numbersign" unicode="#" 
d="M936 893l-64 -328h240v-137h-266l-82 -428h-148l84 428h-290l-82 -428h-144l78 428h-217v137h244l65 328h-233v137h258l82 432h147l-82 -432h293l84 432h144l-84 -432h221v-137h-248zM436 565h291l64 328h-291z" />
    <glyph glyph-name="dollar" unicode="$" 
d="M684 111v-229.996h-137v221c-152 0 -273.667 23.333 -365 70v172c130.667 -61.333 252.334 -92 365.001 -92v434c-128.667 42.667 -218.834 91.167 -270.501 145.5s-77.5 127.5 -77.5 219.5c0 87.333 30.667 159.666 92 216.999s146.666 92.666 255.999 105.999v180h137
v-176c124.667 -6 236.667 -32 336 -78l-66 -145c-93.333 41.333 -183.333 65.333 -270 72v-422c132.667 -45.333 225.834 -94.833 279.501 -148.5s80.5 -123.834 80.5 -210.501c0 -186.667 -120 -298.334 -360 -335.001zM547 854.004v369.001
c-114.667 -19.333 -172 -77.333 -172 -174c0 -52 13.5 -92.333 40.5 -121s70.833 -53.334 131.5 -74.001zM684 635.005v-373c122.667 18.667 184 80 184 184c0 84.667 -61.333 147.667 -184 189z" />
    <glyph glyph-name="percent" unicode="%" 
d="M291 784c-87.333 0 -157.667 31.5 -211 94.5s-80 147.833 -80 254.5c-0 109.333 26.333 194.333 79 255s124.667 91 216 91c86 0 156 -31 210 -93s81 -146.333 81 -253c0 -108 -26.167 -193.167 -78.5 -255.5s-124.5 -93.5 -216.5 -93.5zM292.999 903
c92.667 0 139 76.667 139 230c0 150 -46.333 225 -139 225c-94 0 -141 -75 -141 -225c0 -153.333 47 -230 141 -230zM1057 1462l-729 -1462h-158l729 1462h158zM933.999 -18c-86.667 0 -156.833 31.499 -210.5 94.499s-80.5 147.5 -80.5 253.5
c0 109.333 26.333 194.333 79 255s124.667 91 216 91c86 0 156 -31 210 -93s81 -146.333 81 -253c0 -107.333 -26.167 -192.166 -78.5 -254.499s-124.5 -93.5 -216.5 -93.5zM936 99.999c92.667 0 139 76.667 139 230c0 150 -46.333 225 -139 225c-94 0 -141 -75 -141 -225
c0 -153.333 47 -230 141 -230z" />
    <glyph glyph-name="ampersand" unicode="&#x26;" 
d="M602 776l280.999 -348.001c47.333 80.667 82 169.334 104 266.001h184c-35.333 -156 -94.666 -290.333 -177.999 -403l234 -291h-217l-131 166c-116 -124 -253.333 -186 -412 -186c-126 0 -225.167 35.667 -297.5 107s-108.5 169.333 -108.5 294
c0 87.333 21.167 163.5 63.5 228.5s120.833 131.5 235.5 199.5c-108.667 128 -163 246.667 -163 356c0 98.667 31.833 176.667 95.5 234s155.167 86 274.5 86c112 0 198.833 -28.5 260.5 -85.5s92.5 -135.167 92.5 -234.5c0 -135.333 -106 -265 -318 -389zM507.999 896.999
c89.333 52.667 150.5 98.833 183.5 138.5s49.5 84.167 49.5 133.5s-16.5 89.333 -49.5 120s-76.5 46 -130.5 46c-58 0 -103.5 -14.833 -136.5 -44.5s-49.5 -71.5 -49.5 -125.5c0 -78.667 44.333 -168 133 -268zM777.999 286.998l-323.001 401
c-135.333 -82 -203 -182.333 -203 -301c0 -70 22.333 -128.5 67 -175.5s98 -70.5 160 -70.5c106.667 0 206.334 48.667 299.001 146z" />
    <glyph glyph-name="quotesingle" unicode="'" 
d="M733 1462l-41 -528h-155l-41 528h237z" />
    <glyph glyph-name="parenleft" unicode="(" 
d="M739 1462l193 0.000976562c-299.333 -250.667 -449 -548.334 -449 -893.001c0 -347.333 149 -645 447 -893h-191c-296 235.333 -444 532.333 -444 891c0 354.667 148 653 444 895z" />
    <glyph glyph-name="parenright" unicode=")" 
d="M489 -324h-190c297.333 247.333 446 545 446 893c0 345.333 -149.333 643 -448 893h192c296.667 -240.667 445 -539 445 -895c0 -360 -148.333 -657 -445 -891z" />
    <glyph glyph-name="asterisk" unicode="*" 
d="M715 1556l-43 -393l397 111l27 -193l-379 -28l246 -326l-179 -96l-176 358l-157 -358l-185 96l242 326l-375 28l29 193l391 -111l-43 393h205z" />
    <glyph glyph-name="plus" unicode="+" 
d="M539 647h-387v150h387v389h149v-389h387v-150h-387v-385h-149v385z" />
    <glyph glyph-name="comma" unicode="," 
d="M770 262l16 -24c-38 -149.333 -102.667 -325 -194 -527h-152c50.667 215.333 87.667 399 111 551h219z" />
    <glyph glyph-name="hyphen" unicode="-" 
d="M285 465v168h659v-168h-659z" />
    <glyph glyph-name="period" unicode="." 
d="M614 301c101.333 0 152 -55.333 152 -166s-50.667 -166 -152 -166c-100.667 0 -151 55.333 -151 166s50.333 166 151 166z" />
    <glyph glyph-name="slash" unicode="/" 
d="M1016 1462l-627 -1462h-178l627 1462h178z" />
    <glyph glyph-name="zero" unicode="0" 
d="M612 -20c-152.667 0 -268.333 64.5 -347 193.5s-118 315.5 -118 559.5c0 501.333 155 752 465 752c154.667 0 271.5 -64.5 350.5 -193.5s118.5 -315.167 118.5 -558.5c0 -502 -156.333 -753 -469 -753zM612.001 135c98 0 170 46.833 216 140.5s69 246.167 69 457.5
c0 210 -23 361.833 -69 455.5s-118 140.5 -216 140.5c-96.667 0 -167.5 -46.5 -212.5 -139.5s-67.5 -245.167 -67.5 -456.5c0 -212 22.5 -364.667 67.5 -458s115.833 -140 212.5 -140z" />
    <glyph glyph-name="one" unicode="1" 
d="M758 0l-176 0.00195312v913c0 81.333 2.66699 201.666 8 360.999c-26 -28.667 -66.333 -66.334 -121 -113.001l-147 -121l-97 123l383 299h150v-1462z" />
    <glyph glyph-name="two" unicode="2" 
d="M1069 0l-911 -0.000976562v156l350 381c130 142 215.667 247.833 257 317.5s62 146.5 62 230.5c0 75.333 -21.167 134.833 -63.5 178.5s-99.5 65.5 -171.5 65.5c-106.667 0 -212.667 -45.667 -318 -137l-102 119c128 114.667 268.667 172 422 172
c129.333 0 231.333 -35.333 306 -106s112 -165.667 112 -285c0 -79.333 -19.667 -160.666 -59 -243.999s-136.333 -208.333 -291 -375l-281 -299v-8h688v-166z" />
    <glyph glyph-name="three" unicode="3" 
d="M694 770l-0.000976562 -6c240.667 -31.333 361 -147.333 361 -348c0 -135.333 -46 -241.833 -138 -319.5s-225 -116.5 -399 -116.5c-161.333 0 -290.333 26.333 -387 79v170c122.667 -64 250.334 -96 383.001 -96c236 0 354 96.333 354 289c0 172 -127 258 -381 258h-133
v151h133c106.667 0 189.334 25.333 248.001 76s88 117.667 88 201c0 68 -22.667 121.833 -68 161.5s-106 59.5 -182 59.5c-118.667 0 -233.334 -40.333 -344.001 -121l-92 125c124.667 100 270 150 436 150c137.333 0 244.5 -33 321.5 -99s115.5 -154 115.5 -264
c0 -92 -27.333 -169 -82 -231s-132.667 -101.667 -234 -119z" />
    <glyph glyph-name="four" unicode="4" 
d="M1126 328h-213v-328h-176v328h-676v159l664 983h188v-976h213v-166zM737 494v356c0 117.333 4.33301 261.333 13 432h-9c-24 -68 -54 -128 -90 -180l-411 -608h497z" />
    <glyph glyph-name="five" unicode="5" 
d="M172 59v172c96 -64 216 -96 360 -96c224 0 336 104.667 336 314c0 196 -114.667 294 -344 294c-59.333 0 -136.333 -8.66699 -231 -26l-90 57l55 688h690v-166h-532l-39 -419c71.333 13.333 141 20 209 20c140 0 253.167 -38.167 339.5 -114.5
s129.5 -180.833 129.5 -313.5c0 -156 -46 -276.5 -138 -361.5s-221.667 -127.5 -389 -127.5c-149.333 0 -268 26.333 -356 79z" />
    <glyph glyph-name="six" unicode="6" 
d="M965 1464l-0.000976562 -155c-47.333 16 -102.666 24 -165.999 24c-149.333 0 -261.5 -47 -336.5 -141s-115.833 -243 -122.5 -447h12c63.333 113.333 165.666 170 306.999 170c130 0 231.833 -39.667 305.5 -119s110.5 -187.666 110.5 -324.999
c0 -152 -40.167 -271.833 -120.5 -359.5s-188.166 -131.5 -323.499 -131.5c-145.333 0 -261.166 56.167 -347.499 168.5s-129.5 271.166 -129.5 476.499c0 572 213 858 639 858c69.333 0 126.666 -6.33301 171.999 -19zM898.999 471c0 96.667 -22.833 171 -68.5 223
s-110.834 78 -195.501 78s-155.667 -27 -213 -81s-86 -115.667 -86 -185c0 -101.333 27 -188.833 81 -262.5s124.667 -110.5 212 -110.5c84.667 0 150.834 29.333 198.501 88s71.5 142 71.5 250z" />
    <glyph glyph-name="seven" unicode="7" 
d="M334 0l563 1296h-754v166h940v-145l-555 -1317h-194z" />
    <glyph glyph-name="eight" unicode="8" 
d="M764 774c206 -106.667 308.999 -237.667 308.999 -393c0 -120.667 -42 -217.667 -126 -291s-195 -110 -333 -110c-144 0 -256.333 34.5 -337 103.5s-121 165.5 -121 289.5c0 171.333 94 302.333 282 393c-156.667 97.333 -235 220.333 -235 369
c0 107.333 38.833 192.5 116.5 255.5s175.834 94.5 294.501 94.5c122.667 0 222 -31.667 298 -95s114 -149 114 -257c0 -153.333 -87.333 -273 -262 -359zM615.999 848c154.667 68.667 232.001 161.333 232.001 278c0 67.333 -21 118.666 -63 153.999s-99.667 53 -173 53
c-70.667 0 -126.834 -17.667 -168.501 -53s-62.5 -86.666 -62.5 -153.999c0 -60 16.5 -110.833 49.5 -152.5s94.833 -83.5 185.5 -125.5zM588 695.999c-169.333 -80.667 -254.001 -188.999 -254.001 -324.999c0 -160 92 -240 276 -240c90.667 0 160.834 21.833 210.501 65.5
s74.5 104.5 74.5 182.5c0 60 -21 113.167 -63 159.5s-113.333 94.166 -214 143.499z" />
    <glyph glyph-name="nine" unicode="9" 
d="M264 -2v155.999c44.667 -16.667 100 -25 166 -25c149.333 0 261.5 47 336.5 141s115.833 243 122.5 447h-12c-64 -113.333 -166.667 -170 -308 -170c-129.333 0 -230.833 39.333 -304.5 118s-110.5 187.334 -110.5 326.001c0 152 40.167 272 120.5 360
s188.166 132 323.499 132c146.667 0 262.834 -57 348.501 -171s128.5 -272 128.5 -474c0 -572 -213 -858 -639 -858c-70 0 -127.333 6 -172 18zM330 990.999c0 -96.667 22.8311 -171 68.498 -223s110.834 -78 195.501 -78s155.667 27.167 213 81.5s86 115.833 86 184.5
c0 100.667 -26.667 188 -80 262s-124.333 111 -213 111c-85.333 0 -151.666 -29 -198.999 -87s-71 -141.667 -71 -251z" />
    <glyph glyph-name="colon" unicode=":" 
d="M614 1126c84.667 0 127 -46.333 127 -139s-42.333 -139 -127 -139s-127 46.333 -127 139s42.333 139 127 139zM614 250c84.667 0 127 -46.333 127 -139c0 -93.333 -42.333 -140 -127 -140s-127 46.667 -127 140c0 92.667 42.333 139 127 139z" />
    <glyph glyph-name="semicolon" unicode=";" 
d="M621 1126c84.667 0 127 -46.333 127 -139s-42.333 -139 -127 -139s-127 46.333 -127 139s42.333 139 127 139zM709 238l14.001 -23c-34 -131.333 -92.667 -291 -176 -479h-137c41.333 170 74.666 337.333 99.999 502h199z" />
    <glyph glyph-name="less" unicode="&#x3c;" 
d="M1075 221l-923 451v102l923 451v-160l-715 -342l715 -342v-160z" />
    <glyph glyph-name="equal" unicode="=" 
d="M152 852v149h923v-149h-923zM152 442v150h923v-150h-923z" />
    <glyph glyph-name="greater" unicode="&#x3e;" 
d="M152 381l714 342l-714 342v160l923 -451v-102l-923 -451v160z" />
    <glyph glyph-name="question" unicode="?" 
d="M465 414l-0.00292969 36.999c0 80 15.333 145 46 195s84.334 102.333 161.001 157c86.667 64.667 143.834 116.334 171.501 155.001s41.5 91.334 41.5 158.001c0 61.333 -24.833 111.166 -74.5 149.499s-118.5 57.5 -206.5 57.5c-116 0 -239.667 -30 -371 -90l-65 153
c139.333 64.667 281.333 97 426 97c142.667 0 255.834 -32.5 339.501 -97.5s125.5 -152.167 125.5 -261.5c0 -88.667 -17.833 -160.667 -53.5 -216s-101.167 -119 -196.5 -191c-78.667 -58 -129 -105 -151 -141s-33 -84 -33 -144v-18h-160zM552.997 249.999
c84.667 0 127 -46.333 127 -139c0 -93.333 -42.333 -140 -127 -140s-127 46.667 -127 140c0 92.667 42.333 139 127 139z" />
    <glyph glyph-name="at" unicode="@" 
d="M799 401l-3.99902 0.00195312c-49.333 -120 -126 -180 -230 -180c-80 0 -143.333 34.833 -190 104.5s-70 163.167 -70 280.5c0 137.333 32.333 248.166 97 332.499s149.667 126.5 255 126.5c91.333 0 176.666 -15.667 255.999 -47l-22 -416
c-1.33301 -25.333 -2 -48.333 -2 -69v-7c0 -117.333 24 -176 72 -176c66.667 0 100 127.667 100 383c0 185.333 -37 330.666 -111 435.999s-173.667 158 -299 158c-150.667 0 -268.167 -64 -352.5 -192s-126.5 -303.667 -126.5 -527c0 -208 43.167 -368.833 129.5 -482.5
s209.166 -170.5 368.499 -170.5c120.667 0 236 26 346 78v-133c-105.333 -54.667 -222.666 -82 -351.999 -82c-198.667 0 -353.834 69 -465.501 207s-167.5 330.333 -167.5 577c0 264.667 55.667 474.167 167 628.5s263 231.5 455 231.5c165.333 0 297.5 -65.333 396.5 -196
s148.5 -309 148.5 -535c0 -154 -21.333 -277.5 -64 -370.5s-102 -139.5 -178 -139.5c-85.333 0 -137.666 60 -156.999 180zM752.001 915.002c-36 14 -70.332 21 -102.999 21c-59.333 0 -104.833 -31.167 -136.5 -93.5s-47.5 -142.5 -47.5 -240.5
c0 -168 42.333 -252 127 -252c87.333 0 135.666 104 144.999 312z" />
    <glyph glyph-name="A" unicode="A" 
d="M1004 0l-144 453h-491l-146 -453h-190l483 1468h195l485 -1468h-192zM807 618l-133.001 424c-26 82.667 -46.667 158 -62 226c-13.333 -66 -28.666 -127 -45.999 -183l-144 -467h385z" />
    <glyph glyph-name="B" unicode="B" 
d="M135 1462h439.999c182.667 0 315.167 -29.167 397.5 -87.5s123.5 -152.5 123.5 -282.5c0 -85.333 -26.167 -156.333 -78.5 -213s-123.166 -91 -212.499 -103v-10c221.333 -36 332 -150 332 -342c0 -132 -42.5 -235.667 -127.5 -311s-200.833 -113 -347.5 -113h-527v1462z
M321.999 842l284 -0.000976562c104 0 179.833 18.333 227.5 55s71.5 97.334 71.5 182.001c0 80 -25.5 137.333 -76.5 172s-131.833 52 -242.5 52h-264v-461zM321.999 685.999v-528h307c207.333 0 311 91.333 311 274c0 169.333 -108 254 -324 254h-294z" />
    <glyph glyph-name="C" unicode="C" 
d="M1124 201l-0.00195312 -162.002c-97.333 -39.333 -216.666 -59 -357.999 -59c-206 0 -363.667 65.333 -473 196s-164 316.334 -164 557.001c0 230.667 59.667 413.334 179 548.001s282.333 202 489 202c146.667 0 274.334 -28.667 383.001 -86l-78 -156
c-102.667 52 -204.334 78 -305.001 78c-143.333 0 -257.666 -52.833 -342.999 -158.5s-128 -248.834 -128 -429.501c0 -191.333 40 -337.166 120 -437.499s197 -150.5 351 -150.5c86.667 0 195.667 19.333 327 58z" />
    <glyph glyph-name="D" unicode="D" 
d="M135 0v1462h342c211.333 0 375.833 -63 493.5 -189s176.5 -302 176.5 -528c0 -240.667 -61 -425 -183 -553s-298 -192 -528 -192h-301zM322 1303v-1143h96c354.667 0 532 193 532 579c0 376 -164.333 564 -493 564h-135z" />
    <glyph glyph-name="E" unicode="E" 
d="M1059 0h-842v1462h842v-164h-656v-452h617v-162h-617v-520h656v-164z" />
    <glyph glyph-name="F" unicode="F" 
d="M430 0h-186v1462h841v-164h-655v-516h617v-164h-617v-618z" />
    <glyph glyph-name="G" unicode="G" 
d="M672 772l421.999 0.000976562v-717c-130 -50 -270 -75 -420 -75c-174.667 0 -311.167 66.5 -409.5 199.5s-147.5 317.5 -147.5 553.5c0 234 54 417.5 162 550.5s256.667 199.5 446 199.5c128 0 243.333 -28.667 346 -86l-72 -162c-97.333 56 -190.666 84 -279.999 84
c-128 0 -227.667 -51.833 -299 -155.5s-107 -247.834 -107 -432.501c0 -392 131.333 -588 394 -588c64.667 0 132 9.66699 202 29v436h-237v164z" />
    <glyph glyph-name="H" unicode="H" 
d="M1094 0h-187v682h-585v-682h-187v1462h187v-616h585v616h187v-1462z" />
    <glyph glyph-name="I" unicode="I" 
d="M1001 0h-776v123l295 20v1176l-295 20v123h776v-123l-294 -20v-1176l294 -20v-123z" />
    <glyph glyph-name="J" unicode="J" 
d="M137 39v166c108 -41.333 211 -62 309 -62c107.333 0 192 26.5 254 79.5s93 128.5 93 226.5v1013h186v-1011c0 -144 -46.833 -258.5 -140.5 -343.5s-219.5 -127.5 -377.5 -127.5c-144.667 0 -252.667 19.667 -324 59z" />
    <glyph glyph-name="K" unicode="K" 
d="M1198 0h-211l-450 698l-140 -114v-584h-186v1462h186v-731l121 168l453 563h209l-521 -637z" />
    <glyph glyph-name="L" unicode="L" 
d="M233 0v1462h187v-1296h635v-166h-822z" />
    <glyph glyph-name="M" unicode="M" 
d="M532 0l-278 1280h-8c12 -177.333 18 -312.666 18 -405.999v-874h-151v1462h247l248 -1192h6l250 1192h252v-1462h-153v887c0 68 4.66699 198.333 14 391h-8l-283 -1278h-154z" />
    <glyph glyph-name="N" unicode="N" 
d="M1092 0h-215l-580 1210h-8c12 -184.667 18 -323.667 18 -417v-793h-172v1462h213l578 -1204h6c-9.33301 202 -14 336.667 -14 404v800h174v-1462z" />
    <glyph glyph-name="O" unicode="O" 
d="M616 -20c-354.667 0 -532 251.668 -532 755.001c0 500 178 750 534 750c170.667 0 301.5 -65.167 392.5 -195.5s136.5 -315.833 136.5 -556.5s-46 -426.334 -138 -557.001s-223 -196 -393 -196zM616 143.001c115.333 0 199.833 48.333 253.5 145s80.5 245 80.5 445
c0 202 -27.167 350.5 -81.5 445.5s-137.833 142.5 -250.5 142.5c-224.667 0 -337 -196 -337 -588c0 -393.333 111.667 -590 335 -590z" />
    <glyph glyph-name="P" unicode="P" 
d="M362 569v-569h-186v1462h404c342.667 0 514 -142.667 514 -428c0 -146 -46.167 -260 -138.5 -342s-226.5 -123 -402.5 -123h-191zM362 727h170c132 0 226.5 24 283.5 72s85.5 123 85.5 225c0 186 -112.667 279 -338 279h-201v-576z" />
    <glyph glyph-name="Q" unicode="Q" 
d="M862 39c56.667 -120 149.666 -223.667 278.999 -311l-121 -142c-157.333 114 -266.666 247.333 -327.999 400c-24 -4 -49.333 -6 -76 -6c-354.667 0 -532 251.667 -532 755c0 500 178 750 534 750c170.667 0 301.5 -65.167 392.5 -195.5s136.5 -315.833 136.5 -556.5
c0 -350.667 -95 -582 -285 -694zM615.999 143c115.333 0 199.833 48.333 253.5 145s80.5 245 80.5 445c0 202 -27.167 350.5 -81.5 445.5s-137.833 142.5 -250.5 142.5c-224.667 0 -337 -196 -337 -588c0 -393.333 111.667 -590 335 -590z" />
    <glyph glyph-name="R" unicode="R" 
d="M373 604v-604h-187v1462h357c346.667 0 520 -138.333 520 -415c0 -191.333 -96.333 -322 -289 -392l397 -655h-219l-350 604h-229zM373 762h164c114 0 198 22 252 66s81 114 81 210c0 94 -26.667 161.667 -80 203s-139.333 62 -258 62h-159v-541z" />
    <glyph glyph-name="S" unicode="S" 
d="M141 49l-0.00195312 178c140.667 -57.333 278.667 -86 414 -86c233.333 0 350 80 350 240c0 69.333 -23.5 122.666 -70.5 159.999s-142.167 81.666 -285.5 132.999c-138.667 48.667 -238.167 106.834 -298.5 174.501s-90.5 155.5 -90.5 263.5
c0 116 42.833 206.833 128.5 272.5s203.167 98.5 352.5 98.5c152.667 0 291.334 -26 416.001 -78l-64 -164c-128.667 52 -248.667 78 -360 78c-195.333 0 -293 -69.667 -293 -209c0 -68 21.833 -122.667 65.5 -164s133.834 -85.666 270.501 -132.999
c164 -58.667 273.5 -119.167 328.5 -181.5s82.5 -142.5 82.5 -240.5c0 -128 -46.167 -228.5 -138.5 -301.5s-223.5 -109.5 -393.5 -109.5c-176.667 0 -314.667 23 -414 69z" />
    <glyph glyph-name="T" unicode="T" 
d="M707 0h-187v1298h-418v164h1022v-164h-417v-1298z" />
    <glyph glyph-name="U" unicode="U" 
d="M1104 1464v-948c0 -173.333 -42 -306 -126 -398s-207.333 -138 -370 -138c-322 0 -483 180 -483 540v942h186v-932c0 -258 102.333 -387 307 -387c196.667 0 296.667 129.667 300 389v932h186z" />
    <glyph glyph-name="V" unicode="V" 
d="M997 1462h199.001l-489 -1462h-187l-487 1462h196l295 -927c27.333 -84.667 56.666 -196 87.999 -334c20.667 96.667 51.667 210 93 340z" />
    <glyph glyph-name="W" unicode="W" 
d="M528 1008l177.001 0.000976562l145 -521c40.667 -146 64.667 -248.333 72 -307c1.33301 35.333 23 241.666 65 618.999l70 663h170l-187 -1462h-190l-168 580c-26.667 92 -48.667 186 -66 282c-21.333 -115.333 -43 -210 -65 -284l-156 -578h-190l-203 1462h170l88 -663
c15.333 -117.333 28.666 -243.333 39.999 -378s17 -215 17 -241c16 100.667 39.333 204.667 70 312z" />
    <glyph glyph-name="X" unicode="X" 
d="M1174 0h-211l-355 635l-366 -635h-189l453 764l-422 698h199l331 -559l334 559h191l-422 -692z" />
    <glyph glyph-name="Y" unicode="Y" 
d="M612 723l381 739h201l-487 -893v-569h-187v559l-487 903h203z" />
    <glyph glyph-name="Z" unicode="Z" 
d="M1124 0h-1022v145l793 1151h-772v166h981v-145l-793 -1151h813v-166z" />
    <glyph glyph-name="bracketleft" unicode="[" 
d="M940 -324h-528v1786h528v-149h-346v-1487h346v-150z" />
    <glyph glyph-name="backslash" unicode="\" 
d="M389 1462l627 -1462h-178l-627 1462h178z" />
    <glyph glyph-name="bracketright" unicode="]" 
d="M289 -174h346v1487h-346v149h528v-1786h-528v150z" />
    <glyph glyph-name="asciicircum" unicode="^" 
d="M111 549l424 924h102l481 -924h-162l-368 735l-318 -735h-159z" />
    <glyph glyph-name="underscore" unicode="_" 
d="M1243 -324h-1259v140h1259v-140z" />
    <glyph glyph-name="grave" unicode="`" 
d="M811 1241h-120.999c-110.667 94.667 -201.334 197 -272.001 307v21h219c57.333 -118.667 115.333 -219 174 -301v-27z" />
    <glyph glyph-name="a" unicode="a" 
d="M895 0l-37 152.001h-8c-51.333 -64.667 -104 -109.5 -158 -134.5s-123.667 -37.5 -209 -37.5c-108.667 0 -193.834 28.667 -255.501 86s-92.5 137.666 -92.5 240.999c0 221.333 170 337.333 510 348l203 7v69c0 157.333 -81.333 236 -244 236
c-98 0 -207.333 -27.333 -328 -82l-63 137c130.667 64 258.334 96 383.001 96c151.333 0 260.833 -29 328.5 -87s101.5 -151 101.5 -279v-752h-131zM846 537.001l-161.999 -7c-130.667 -5.33301 -223.334 -25.833 -278.001 -61.5s-82 -90.167 -82 -163.5
c0 -118.667 66.667 -178 200 -178c98 0 176.167 27.167 234.5 81.5s87.5 130.833 87.5 229.5v99z" />
    <glyph glyph-name="b" unicode="b" 
d="M340 139l-11.999 0.000976562l-37 -139h-133v1556h182v-376c0 -54 -2.66699 -129.333 -8 -226h8c71.333 109.333 178.666 164 321.999 164c134 0 239.167 -49.833 315.5 -149.5s114.5 -238.834 114.5 -417.501c0 -180 -38.333 -320.167 -115 -420.5
s-181.667 -150.5 -315 -150.5c-138 0 -245.333 53 -322 159zM340.001 551.001c0 -151.333 23.168 -259.167 69.501 -323.5s120.166 -96.5 221.499 -96.5c181.333 0 272 140.667 272 422c0 276 -91.333 414 -274 414c-103.333 0 -177.333 -31.333 -222 -94s-67 -170 -67 -322
z" />
    <glyph glyph-name="c" unicode="c" 
d="M1061 1059l-62 -158c-100 38 -189.333 57 -268 57c-247.333 0 -371 -137.667 -371 -413c0 -270.667 120.333 -406 361 -406c104.667 0 211.667 20.667 321 62v-160c-89.333 -40.667 -199 -61 -329 -61c-171.333 0 -304.333 48.5 -399 145.5s-142 236.167 -142 417.5
c0 187.333 48.333 330 145 428s232.667 147 408 147c118.667 0 230.667 -19.667 336 -59z" />
    <glyph glyph-name="d" unicode="d" 
d="M897 147l-8 -0.000976562c-75.333 -111.333 -182.666 -167 -321.999 -167c-134 0 -239.167 49.833 -315.5 149.5s-114.5 238.834 -114.5 417.501c0 180 38.333 320.167 115 420.5s181.667 150.5 315 150.5c137.333 0 244.666 -53.333 321.999 -160h12
c-8 86 -12 140 -12 162v436h182v-1556h-147zM889 505.999v41.001c0 151.333 -23.167 259.166 -69.5 323.499s-120.166 96.5 -221.499 96.5c-181.333 0 -272 -140.667 -272 -422c0 -276 91.333 -414 274 -414c101.333 0 174.166 29.5 218.499 88.5s67.833 154.5 70.5 286.5z
" />
    <glyph glyph-name="e" unicode="e" 
d="M1096 514l-773.998 -0.000976562c5.33301 -250 120 -375 344 -375c130 0 253.333 25.333 370 76v-160c-110.667 -50 -232 -75 -364 -75c-163.333 0 -294 49.833 -392 149.5s-147 236.834 -147 411.501c0 177.333 45.167 317.833 135.5 421.5s211.166 155.5 362.499 155.5
c141.333 0 254.166 -44.667 338.499 -134s126.5 -208.333 126.5 -357v-113zM326.002 661.999h572.999c0 203.333 -90.667 305 -272 305c-183.333 0 -283.666 -101.667 -300.999 -305z" />
    <glyph glyph-name="f" unicode="f" 
d="M1044 961h-389v-961h-182v961h-317v110l317 33v96c0 128.667 30 222 90 280s159.667 87 299 87c86 0 170 -11.667 252 -35l-41 -143c-69.333 18.667 -138.333 28 -207 28c-82 0 -137.667 -16.667 -167 -50s-44 -88.333 -44 -165v-104h389v-137z" />
    <glyph glyph-name="g" unicode="g" 
d="M1126 1098l0.000976562 -113.002l-196 -27c43.333 -56.667 65 -127.667 65 -213c0 -107.333 -35.5 -192.833 -106.5 -256.5s-169.833 -95.5 -296.5 -95.5c-36.667 0 -65.334 2 -86.001 6c-66.667 -37.333 -100 -81.666 -100 -132.999c0 -56 53.667 -84 161 -84h187
c116 0 204.667 -25.667 266 -77s92 -124.666 92 -219.999c0 -251.333 -188.333 -377 -565 -377c-145.333 0 -255.833 26.833 -331.5 80.5s-113.5 128.834 -113.5 225.501c0 141.333 80 231.333 240 270c-64 31.333 -96 82.666 -96 153.999c0 74.667 44.333 138.667 133 192
c-59.333 24.667 -106 65.5 -140 122.5s-51 119.167 -51 186.5c0 121.333 35.5 214.833 106.5 280.5s172.167 98.5 303.5 98.5c57.333 0 107.333 -6.66699 150 -20h378zM594.001 517.998c148.667 0 223 76.667 223 230c0 159.333 -75 239 -225 239s-225 -80.667 -225 -242
c0 -151.333 75.667 -227 227 -227zM692.001 17.998h-188c-153.333 0 -230 -66 -230 -198c0 -116 90.333 -174 271 -174c263.333 0 395 74.333 395 223c0 58.667 -16.667 98.167 -50 118.5s-99.333 30.5 -198 30.5z" />
    <glyph glyph-name="h" unicode="h" 
d="M887 0v707c0 173.333 -79.333 260 -238 260c-204.667 0 -307 -132.667 -307 -398v-569h-182v1556h182v-462l-8 -144h10c68.667 112 180.667 168 336 168c259.333 0 389 -133.667 389 -401v-717h-182z" />
    <glyph glyph-name="i" unicode="i" 
d="M633 1550c70.667 0 106 -38 106 -114c0 -38.667 -10.5 -67.5 -31.5 -86.5s-45.833 -28.5 -74.5 -28.5c-71.333 0 -107 38.333 -107 115c0 76 35.667 114 107 114zM541 954l-269 21v123h451v-955l352 -20v-123h-878v123l344 20v811z" />
    <glyph glyph-name="j" unicode="j" 
d="M743 1550c71.333 0 107 -38 107 -114c0 -76.667 -35.667 -115 -107 -115c-70.667 0 -106 38.333 -106 115c0 76 35.333 114 106 114zM135 -457v154c89.333 -26 185.666 -39 288.999 -39c78 0 138.833 19 182.5 57s65.5 90.667 65.5 158v1081l-420 21v123h602v-1215
c0 -120 -37.667 -212.5 -113 -277.5s-181.666 -97.5 -318.999 -97.5c-109.333 0 -205 11.667 -287 35z" />
    <glyph glyph-name="k" unicode="k" 
d="M383 553l135 152l395 393h222l-494 -475l522 -623h-213l-426 504l-129 -82v-422h-180v1556h180v-714l-16 -289h4z" />
    <glyph glyph-name="l" unicode="l" 
d="M532 1413l-268 21v122h451v-1413l352 -20v-123h-879v123l344 20v1270z" />
    <glyph glyph-name="m" unicode="m" 
d="M977 0v707c0 97.333 -8.83301 165 -26.5 203s-47.167 57 -88.5 57c-58 0 -100.167 -27.667 -126.5 -83s-39.5 -148 -39.5 -278v-606h-161v707c0 173.333 -41.667 260 -125 260c-56 0 -96 -26.5 -120 -79.5s-36 -159.167 -36 -318.5v-569h-162v1098h127l27 -148h10
c44.667 112 111.667 168 201 168c108.667 0 179.667 -60.667 213 -182h6c50.667 121.333 123.667 182 219 182c85.333 0 147.333 -30.833 186 -92.5s58 -164.5 58 -308.5v-717h-162z" />
    <glyph glyph-name="n" unicode="n" 
d="M887 0v707c0 173.333 -79.333 260 -238 260c-204.667 0 -307 -132.667 -307 -398v-569h-182v1098h147l27 -148h10c68.667 112 180.667 168 336 168c259.333 0 389 -133.667 389 -401v-717h-182z" />
    <glyph glyph-name="o" unicode="o" 
d="M610 -20c-144 0 -262.499 51.833 -355.499 155.5s-139.5 242.167 -139.5 415.5c0 175.333 45.167 313.666 135.5 414.999s212.166 152 365.499 152c145.333 0 264.333 -51.667 357 -155s139 -240.666 139 -411.999c0 -176.667 -45.667 -316 -137 -418
s-213 -153 -365 -153zM614.001 131c206.667 0 310 140 310 420c0 277.333 -104 416 -312 416c-206 0 -309 -138.667 -309 -416c0 -280 103.667 -420 311 -420z" />
    <glyph glyph-name="p" unicode="p" 
d="M340 139l-11.999 0.000976562c8 -86 12 -140 12 -162v-469h-182v1590h147l27 -148h8c73.333 112 180.666 168 321.999 168c134 0 239.167 -49.833 315.5 -149.5s114.5 -238.834 114.5 -417.501c0 -180 -38.333 -320.167 -115 -420.5s-181.667 -150.5 -315 -150.5
c-138 0 -245.333 53 -322 159zM340.001 592.001v-41c0 -151.333 23.167 -259.166 69.5 -323.499s120.166 -96.5 221.499 -96.5c181.333 0 272 140.667 272 422c0 276 -91.333 414 -274 414c-101.333 0 -174.166 -29.333 -218.499 -88s-67.833 -154.334 -70.5 -287.001z" />
    <glyph glyph-name="q" unicode="q" 
d="M889 950l7.99902 -0.000976562l27 148h147v-1590h-182v469c0 27.333 4 84 12 170h-12c-75.333 -111.333 -182.666 -167 -321.999 -167c-134 0 -239.167 49.833 -315.5 149.5s-114.5 238.834 -114.5 417.501c0 180 38.333 320.167 115 420.5s181.667 150.5 315 150.5
c138 0 245.333 -56 322 -168zM888.999 505.999v41.001c0 151.333 -23.167 259.166 -69.5 323.499s-120.166 96.5 -221.499 96.5c-181.333 0 -272 -140.667 -272 -422c0 -276 91.333 -414 274 -414c101.333 0 174.166 29.5 218.499 88.5s67.833 154.5 70.5 286.5z" />
    <glyph glyph-name="r" unicode="r" 
d="M1059 1073l-49 -165.999c-82 30 -156.667 45 -224 45c-108.667 0 -192.5 -30.833 -251.5 -92.5s-88.5 -150.834 -88.5 -267.501v-592h-182v1098h148l22 -201h8c50.667 79.333 105 136 163 170s129.333 51 214 51c78.667 0 158.667 -15 240 -45z" />
    <glyph glyph-name="s" unicode="s" 
d="M203 49l-0.000976562 165.998c128.667 -57.333 252 -86 370 -86c183.333 0 275 54 275 162c0 38 -16.333 71 -49 99s-108 63.333 -226 106c-155.333 58 -253.166 111.167 -293.499 159.5s-60.5 105.5 -60.5 171.5c0 90.667 37.167 161.834 111.5 213.501
s177.166 77.5 308.499 77.5c132 0 255 -24.667 369 -74l-60 -149c-121.333 48 -227.666 72 -318.999 72c-157.333 0 -236 -44.333 -236 -133c0 -40.667 16.833 -73.167 50.5 -97.5s111.167 -58.166 232.5 -101.499c140.667 -51.333 234.167 -101.833 280.5 -151.5
s69.5 -110.5 69.5 -182.5c0 -100 -39 -178.5 -117 -235.5s-188.333 -85.5 -331 -85.5c-165.333 0 -290.333 23 -375 69z" />
    <glyph glyph-name="t" unicode="t" 
d="M1020 150v-138c-86.667 -21.333 -170.667 -32 -252 -32c-241.333 0 -362 114.667 -362 344v637h-267v94l267 49l77 287h105v-293h438v-137h-438v-637c0 -130 64 -195 192 -195c62 0 142 7 240 21z" />
    <glyph glyph-name="u" unicode="u" 
d="M922 0l-26.999 147h-10c-70 -111.333 -181.333 -167 -334 -167c-260.667 0 -391 133.667 -391 401v717h182v-707c0 -173.333 78.667 -260 236 -260c107.333 0 185.666 30.833 234.999 92.5s74 163.167 74 304.5v570h182v-1098h-147z" />
    <glyph glyph-name="v" unicode="v" 
d="M498 0l-416.001 1098h188l240 -652c56.667 -154 90 -262.333 100 -325h6c4.66699 29.333 38.334 137.666 101.001 324.999l239 652h189l-416 -1098h-231z" />
    <glyph glyph-name="w" unicode="w" 
d="M813 0l-131.001 596.001l-68 330h-6l-65 -334l-135 -592h-189l-223 1098h162l98 -543c22.667 -124 41.667 -255 57 -393h6c20.667 123.333 43.334 242.666 68.001 357.999l133 578h193l127 -578c28.667 -130 51 -249.333 67 -358h6c20.667 161.333 40.667 292.333 60 393
l102 543h158l-225 -1098h-195z" />
    <glyph glyph-name="x" unicode="x" 
d="M510 563l-393 535h207l290 -410l291 410h207l-395 -535l413 -563h-206l-310 436l-311 -436h-207z" />
    <glyph glyph-name="y" unicode="y" 
d="M82 1098l188 0.000976562l262 -654c54.667 -136.667 84.334 -233.334 89.001 -290.001h6c15.333 74.667 45.333 172 90 292l239 652h189l-475 -1241c-44.667 -116 -96.667 -203.167 -156 -261.5s-141.333 -87.5 -246 -87.5c-57.333 0 -113.333 5.66699 -168 17v145
c41.333 -8 86.666 -12 135.999 -12c64 0 113.833 13.667 149.5 41s67.5 74.333 95.5 141l58 150z" />
    <glyph glyph-name="z" unicode="z" 
d="M1044 0h-862v125l660 836h-627v137h811v-146l-647 -815h665v-137z" />
    <glyph glyph-name="braceleft" unicode="{" 
d="M745 -16c0 -54 18.667 -93.5 56 -118.5s104 -38.167 200 -39.5v-150c-292 4 -438 101.667 -438 293v334c0 126 -112.667 189 -338 189v155c225.333 0 338 63 338 189v333c0 191.333 146 289 438 293v-149c-96 -1.33301 -162.667 -14.5 -200 -39.5s-56 -64.5 -56 -118.5
v-332c0 -138 -77.667 -220.667 -233 -248v-12c155.333 -27.333 233 -110 233 -248v-331z" />
    <glyph glyph-name="bar" unicode="|" 
d="M539 1556h149v-2048h-149v2048z" />
    <glyph glyph-name="braceright" unicode="}" 
d="M483 315c0 138 78 220.667 234 248v12c-156 27.333 -234 110 -234 248v332c0 54 -18.833 93.667 -56.5 119s-104.167 38.333 -199.5 39v149c292.667 -4 439 -101.667 439 -293v-333c0 -126 112.667 -189 338 -189v-155c-225.333 0 -338 -63 -338 -189v-334
c0 -191.333 -146.333 -289 -439 -293v150c95.333 0.666992 161.833 13.667 199.5 39s56.5 65 56.5 119v331z" />
    <glyph glyph-name="asciitilde" unicode="~" 
d="M152 586l-0.000976562 162c66 72 148.333 108 247 108c66.667 0 149.334 -21 248.001 -63c86.667 -37.333 153.667 -56 201 -56c72 0 147.667 40.333 227 121v-162c-66 -72 -148.667 -108 -248 -108c-66.667 0 -149 21 -247 63c-87.333 37.333 -154.333 56 -201 56
c-72 0 -147.667 -40.333 -227 -121z" />
    <glyph glyph-name="uni00A0" unicode="&#xa0;" 
 />
    <glyph glyph-name="exclamdown" unicode="&#xa1;" 
d="M614 840c-84.667 0 -127 46.333 -127 139s42.333 139 127 139s127 -46.333 127 -139s-42.333 -139 -127 -139zM553 676h121l51 -1049h-223z" />
    <glyph glyph-name="cent" unicode="&#xa2;" 
d="M743 1319c108 -2 214 -21.666 318 -58.999l-62 -158c-100 38 -189.333 57 -268 57c-247.333 0 -371 -138 -371 -414c0 -270 120.333 -405 361 -405c102 0 209 20.333 321 61v-159c-81.333 -39.333 -181 -60 -299 -62v-200h-137v206c-289.333 46 -434 231.667 -434 557
c0 329.333 144.667 518.666 434 567.999v172h137v-164z" />
    <glyph glyph-name="sterling" unicode="&#xa3;" 
d="M1063 1401l-66 -144.001c-94 48 -184.667 72 -272 72c-148.667 0 -223 -82 -223 -246v-295h377v-137h-377v-211c0 -130.667 -46.667 -222 -140 -274h748v-166h-991v154c133.333 32.667 200 127.334 200 284.001v213h-198v137h198v324c0 112 36.167 201.5 108.5 268.5
s168.833 100.5 289.5 100.5c128 0 243.333 -26.667 346 -80z" />
    <glyph glyph-name="currency" unicode="&#xa4;" 
d="M303 936l-128.999 129l98 98l127 -129c67.333 45.333 139 68 215 68s147 -22.667 213 -68l129 129l99 -96l-129 -129c44.667 -67.333 67 -139 67 -215c0 -80 -22.333 -151.667 -67 -215l127 -127l-97 -96l-129 127c-66 -44 -137 -66 -213 -66
c-78.667 0 -150.334 22.667 -215.001 68l-127 -127l-96 96l127 127c-43.333 63.333 -65 134.333 -65 213c0 76 21.667 147 65 213zM614.001 483c66.667 0 124 23.333 172 70s72 103.334 72 170.001c0 67.333 -23.833 124.833 -71.5 172.5s-105.167 71.5 -172.5 71.5
c-66 0 -122.333 -23.667 -169 -71s-70 -105 -70 -173c0 -66.667 23.5 -123.334 70.5 -170.001s103.167 -70 168.5 -70z" />
    <glyph glyph-name="yen" unicode="&#xa5;" 
d="M612 723l346 739h191l-385 -768h240v-137h-302v-158h302v-137h-302v-262h-178v262h-301v137h301v158h-301v137h234l-379 768h192z" />
    <glyph glyph-name="brokenbar" unicode="&#xa6;" 
d="M539 1556h149v-780h-149v780zM539 289h149v-781h-149v781z" />
    <glyph glyph-name="section" unicode="&#xa7;" 
d="M420 1067c-106.667 53.333 -160 132 -160 236c0 80 34.667 144 104 192s161.666 72 276.999 72c108 0 216.667 -24 326 -72l-56 -139c-104 44.667 -196 67 -276 67c-134 0 -201 -38.667 -201 -116c0 -36 16.5 -67 49.5 -93s98.5 -59.333 196.5 -100
c104.667 -41.333 181.667 -87.833 231 -139.5s74 -115.167 74 -190.5c0 -121.333 -48.333 -211.333 -145 -270c96.667 -53.333 145 -128.333 145 -225c0 -92 -36.833 -164.833 -110.5 -218.5s-176.167 -80.5 -307.5 -80.5c-136 0 -243.667 21.667 -323 65v158
c114 -54.667 221.667 -82 323 -82c160 0 240 47 240 141c0 38 -14.333 70.333 -43 97s-93.667 60.667 -195 102c-131.333 56 -215.666 109 -252.999 159s-56 109.667 -56 179c0 119.333 53.333 205.333 160 258zM713 573c76 50.667 113.999 112.334 113.999 185.001
c0 59.333 -24.5 107.5 -73.5 144.5s-117.833 71.5 -206.5 103.5c-88.667 -32 -133 -90.333 -133 -175c0 -48.667 18.833 -90.834 56.5 -126.501s106.834 -74.5 207.501 -116.5z" />
    <glyph glyph-name="dieresis" unicode="&#xa8;" 
d="M426 1497c64 0 96 -34 96 -102c0 -68.667 -32 -103 -96 -103s-96 34.333 -96 103c0 68 32 102 96 102zM801 1497c64 0 96 -34 96 -102c0 -68.667 -32 -103 -96 -103s-96 34.333 -96 103c0 68 32 102 96 102z" />
    <glyph glyph-name="copyright" unicode="&#xa9;" 
d="M614 1483c190.667 0 339.833 -68 447.5 -204s161.5 -318.667 161.5 -548c0 -230 -54 -412.667 -162 -548s-257 -203 -447 -203c-190.667 0 -339.667 67.833 -447 203.5s-161 318.167 -161 547.5c0 228.667 53.5 411.167 160.5 547.5s256.167 204.5 447.5 204.5z
M613.999 88c160 0 283.333 56.833 370 170.5s130 271.167 130 472.5s-43.333 358.833 -130 472.5s-210 170.5 -370 170.5s-283.167 -57 -369.5 -171s-129.5 -271.333 -129.5 -472s43.167 -358 129.5 -472s209.5 -171 369.5 -171zM873.999 453l-0.000976562 -131
c-71.333 -33.333 -145 -50 -221 -50c-130 0 -230 41.167 -300 123.5s-105 194.833 -105 337.5c0 139.333 36.667 250 110 332s173.666 123 300.999 123c85.333 0 170 -20.667 254 -62l-61 -127c-73.333 36 -137.666 54 -192.999 54c-80.667 0 -142.667 -28.5 -186 -85.5
s-65 -135.833 -65 -236.5c0 -215.333 83.667 -323 251 -323c62.667 0 134.334 15 215.001 45z" />
    <glyph glyph-name="ordfeminine" unicode="&#xaa;" 
d="M799 797l-33 118.001c-69.333 -87.333 -158.666 -131 -267.999 -131c-148 0 -222 68.333 -222 205c0 77.333 28.333 133.166 85 167.499s148.667 53.5 276 57.5l125 5v10c0 88.667 -50.667 133 -152 133c-74.667 0 -156.334 -17 -245.001 -51l-41 110
c92 38.667 190 58 294 58c194 0 291 -79.333 291 -238v-444h-110zM662 1116c-76 -1.33301 -134 -10.668 -174 -28.001s-60 -51 -60 -101c0 -60 34.667 -90 104 -90c70 0 125.833 18.333 167.5 55s62.5 85.334 62.5 146.001v20z" />
    <glyph glyph-name="guillemotleft" unicode="&#xab;" 
d="M197 553l309 414l117 -78l-238 -348l238 -348l-117 -78l-309 411v27zM604 553l309 414l117 -78l-237 -348l237 -348l-117 -78l-309 411v27z" />
    <glyph glyph-name="logicalnot" unicode="&#xac;" 
d="M1075 797v-535h-149v385h-774v150h923z" />
    <glyph glyph-name="uni00AD" unicode="&#xad;" 
d="M285 465v168h659v-168h-659z" />
    <glyph glyph-name="registered" unicode="&#xae;" 
d="M614 1483c190.667 0 339.833 -68 447.5 -204s161.5 -318.667 161.5 -548c0 -230 -54 -412.667 -162 -548s-257 -203 -447 -203c-190.667 0 -339.667 67.833 -447 203.5s-161 318.167 -161 547.5c0 228.667 53.5 411.167 160.5 547.5s256.167 204.5 447.5 204.5z
M613.999 88c160 0 283.333 56.833 370 170.5s130 271.167 130 472.5s-43.333 358.833 -130 472.5s-210 170.5 -370 170.5s-283.167 -57 -369.5 -171s-129.5 -271.333 -129.5 -472s43.167 -358 129.5 -472s209.5 -171 369.5 -171zM747.999 680l237 -394.999h-178l-207 352
h-94v-352h-158v893h234c216.667 0 325 -88.333 325 -265c0 -108.667 -53 -186.334 -159 -233.001zM505.999 768.001h72c113.333 0 170 47 170 141c0 49.333 -14 83.833 -42 103.5s-71.667 29.5 -131 29.5h-69v-274z" />
    <glyph glyph-name="macron" unicode="&#xaf;" 
d="M1249 1556h-1269v140h1269v-140z" />
    <glyph glyph-name="degree" unicode="&#xb0;" 
d="M614 1483c86 0 160.165 -31.167 222.498 -93.5s93.5 -136.5 93.5 -222.5s-31 -159.667 -93 -221s-136.333 -92 -223 -92c-87.333 0 -161.666 30.833 -222.999 92.5s-92 135.167 -92 220.5c0 86 30.833 160.167 92.5 222.5s135.834 93.5 222.501 93.5zM613.998 977
c52.667 0 98.002 18.666 136.002 55.999s57 82 57 134c0 54 -19.167 100 -57.5 138s-83.5 57 -135.5 57c-52.667 0 -97.834 -19.167 -135.501 -57.5s-56.5 -84.166 -56.5 -137.499c0 -52 18.667 -96.667 56 -134s82.666 -56 135.999 -56z" />
    <glyph glyph-name="plusminus" unicode="&#xb1;" 
d="M539 647h-387v150h387v389h149v-389h387v-150h-387v-385h-149v385zM152 0v150h923v-150h-923z" />
    <glyph glyph-name="uni00B2" unicode="&#xb2;" 
d="M879 672l-531 -0.000976562v102l187 199c74 78.667 121.167 134.834 141.5 168.501s30.5 69.5 30.5 107.5c0 76.667 -37 115 -111 115c-54 0 -108.667 -25.333 -164 -76l-78 86c78 68.667 160.667 103 248 103c78.667 0 139.667 -20 183 -60s65 -94.667 65 -164
c0 -44 -11.667 -88.667 -35 -134s-78 -111 -164 -197l-135 -136h363v-114z" />
    <glyph glyph-name="uni00B3" unicode="&#xb3;" 
d="M670 1085c117.333 -26 175.999 -88 175.999 -186c0 -77.333 -24.833 -137.333 -74.5 -180s-121.167 -64 -214.5 -64c-87.333 0 -159 16.667 -215 50v124c73.333 -43.333 141 -65 203 -65c99.333 0 149 45.667 149 137c0 83.333 -49 125 -147 125h-72v104h70
c82 0 123 42.333 123 127c0 74 -32.333 111 -97 111c-47.333 0 -101 -23.333 -161 -70l-66 86c74 62 153.333 93 238 93c72.667 0 130.334 -18.167 173.001 -54.5s64 -85.833 64 -148.5c0 -92.667 -49.667 -155.667 -149 -189z" />
    <glyph glyph-name="acute" unicode="&#xb4;" 
d="M418 1268c62.667 88.667 120.668 188.999 174.001 300.999h219v-21c-74.667 -115.333 -165.334 -217.666 -272.001 -306.999h-121v27z" />
    <glyph glyph-name="uni00B5" unicode="&#xb5;" 
d="M362 391c0 -173.333 72.667 -260 218 -260c98.667 0 171 30.333 217 91s69 162.667 69 306v570h183v-1098h-148l-27 147h-10c-64 -111.333 -162.333 -167 -295 -167c-92.667 0 -163.667 29.333 -213 88c4 -102 6 -182 6 -240v-320h-182v1590h182v-707z" />
    <glyph glyph-name="paragraph" unicode="&#xb6;" 
d="M1079 -260h-120.998v1657h-206v-1657h-121v819c-40.667 -12 -89.334 -18 -146.001 -18c-279.333 0 -419 167 -419 501c0 172.667 36.167 301.5 108.5 386.5s186.166 127.5 341.499 127.5h563v-1816z" />
    <glyph glyph-name="periodcentered" unicode="&#xb7;" 
d="M614 862c84.667 0 127 -46.333 127 -139s-42.333 -139 -127 -139s-127 46.333 -127 139s42.333 139 127 139z" />
    <glyph glyph-name="cedilla" unicode="&#xb8;" 
d="M428 -483v108c22 -4 48.667 -6 80 -6c100.667 0 151 30.667 151 92c0 49.333 -57.333 87 -172 113l91 176h120l-57 -115c106.667 -24.667 160 -82 160 -172c0 -136.667 -97 -205 -291 -205c-22.667 0 -50 3 -82 9z" />
    <glyph glyph-name="uni00B9" unicode="&#xb9;" 
d="M586 1460h135v-788h-146v465c0 46 3 112.667 9 200c-27.333 -29.333 -52 -51 -74 -65l-70 -51l-73 88z" />
    <glyph glyph-name="ordmasculine" unicode="&#xba;" 
d="M612 784c-96 0 -175.168 31 -237.501 93s-93.5 147.333 -93.5 256c0 108 30 192.667 90 254s141.667 92 245 92c96.667 0 176.167 -30.833 238.5 -92.5s93.5 -146.167 93.5 -253.5c0 -110 -30.667 -195.667 -92 -257s-142.666 -92 -243.999 -92zM613.999 903
c120.667 0 181 76.667 181 230c0 150 -60.333 225 -181 225c-121.333 0 -182 -75 -182 -225c0 -153.333 60.667 -230 182 -230z" />
    <glyph glyph-name="guillemotright" unicode="&#xbb;" 
d="M1030 526l-309 -411l-117 78l238 348l-238 348l117 78l309 -414v-27zM623 526l-310 -411l-116 78l237 348l-237 348l116 78l310 -414v-27z" />
    <glyph glyph-name="onequarter" unicode="&#xbc;" 
d="M241 1460h135v-788h-146v465c0 46 3 112.667 9 200c-27.333 -29.333 -52 -51 -74 -65l-70 -51l-73 88zM1057 1462l-729 -1462h-158l729 1462h158zM1208 175h-84v-174h-143v174h-375v98l377 523h141v-508h84v-113zM981 288l0.000976562 176.001c0 54.667 2 112 6 172
c-26.667 -48.667 -53.334 -92.334 -80.001 -131.001l-156 -217h230z" />
    <glyph glyph-name="onehalf" unicode="&#xbd;" 
d="M222 1460h135v-788h-146v465c0 46 3 112.667 9 200c-27.333 -29.333 -52 -51 -74 -65l-70 -51l-73 88zM992 1462l-729 -1462h-158l729 1462h158zM1225 1l-531 -0.000976562v102l187 199c74 78.667 121.167 134.834 141.5 168.501s30.5 69.5 30.5 107.5
c0 76.667 -37 115 -111 115c-54 0 -108.667 -25.333 -164 -76l-78 86c78 68.667 160.667 103 248 103c78.667 0 139.667 -20 183 -60s65 -94.667 65 -164c0 -44 -11.667 -88.667 -35 -134s-78 -111 -164 -197l-135 -136h363v-114z" />
    <glyph glyph-name="threequarters" unicode="&#xbe;" 
d="M349 1085c117.333 -26 175.999 -88 175.999 -186c0 -77.333 -24.833 -137.333 -74.5 -180s-121.167 -64 -214.5 -64c-87.333 0 -159 16.667 -215 50v124c73.333 -43.333 141 -65 203 -65c99.333 0 149 45.667 149 137c0 83.333 -49 125 -147 125h-72v104h70
c82 0 123 42.333 123 127c0 74 -32.333 111 -97 111c-47.333 0 -101 -23.333 -161 -70l-66 86c74 62 153.333 93 238 93c72.667 0 130.334 -18.167 173.001 -54.5s64 -85.833 64 -148.5c0 -92.667 -49.667 -155.667 -149 -189zM1110 1462l-729 -1462h-158l729 1462h158z
M1229 175h-84v-174h-143v174h-375v98l377 523h141v-508h84v-113zM1002 288l0.000976562 176.001c0 54.667 2 112 6 172c-26.667 -48.667 -53.334 -92.334 -80.001 -131.001l-156 -217h230z" />
    <glyph glyph-name="questiondown" unicode="&#xbf;" 
d="M674 840c-84.667 0 -127 46.333 -127 139s42.333 139 127 139s127 -46.333 127 -139s-42.333 -139 -127 -139zM762 676l0.00195312 -36.998c0 -79.333 -14.833 -143.833 -44.5 -193.5s-83.834 -102.5 -162.501 -158.5c-86 -64.667 -143 -116.334 -171 -155.001
s-42 -91.667 -42 -159c0 -62 24.833 -111.833 74.5 -149.5s118.5 -56.5 206.5 -56.5c120.667 0 244 30 370 90l62 -144c-146 -70.667 -286.667 -106 -422 -106c-144.667 0 -258.334 32.5 -341.001 97.5s-124 151.833 -124 260.5c0 89.333 17.833 161.666 53.5 216.999
s101.167 119 196.5 191c79.333 58 129.833 104.833 151.5 140.5s32.5 83.5 32.5 143.5v19h160z" />
    <glyph glyph-name="Agrave" unicode="&#xc0;" 
d="M1004 0l-144 453h-491l-146 -453h-190l483 1468h195l485 -1468h-192zM807 618l-133.001 424c-26 82.667 -46.667 158 -62 226c-13.333 -66 -28.666 -127 -45.999 -183l-144 -467h385zM733.999 1579h-120.999c-110.667 94.667 -201.334 197 -272.001 307v21h219
c57.333 -118.667 115.333 -219 174 -301v-27z" />
    <glyph glyph-name="Aacute" unicode="&#xc1;" 
d="M1004 0l-144 453h-491l-146 -453h-190l483 1468h195l485 -1468h-192zM807 618l-133.001 424c-26 82.667 -46.667 158 -62 226c-13.333 -66 -28.666 -127 -45.999 -183l-144 -467h385zM519.999 1606c62.667 88.667 120.668 188.999 174.001 300.999h219v-21
c-74.667 -115.333 -165.334 -217.666 -272.001 -306.999h-121v27z" />
    <glyph glyph-name="Acircumflex" unicode="&#xc2;" 
d="M1004 0l-144 453h-491l-146 -453h-190l483 1468h195l485 -1468h-192zM807 618l-133.001 424c-26 82.667 -46.667 158 -62 226c-13.333 -66 -28.666 -127 -45.999 -183l-144 -467h385zM945.999 1579h-121.002c-56.667 37.333 -127 99.333 -211 186
c-88.667 -90.667 -159 -152.667 -211 -186h-120v27l59 67c92.667 103.333 151.334 181.333 176.001 234h193c24.667 -52.667 83.334 -130.667 176.001 -234l59 -67v-27z" />
    <glyph glyph-name="Atilde" unicode="&#xc3;" 
d="M1004 0l-144 453h-491l-146 -453h-190l483 1468h195l485 -1468h-192zM807 618l-133.001 424c-26 82.667 -46.667 158 -62 226c-13.333 -66 -28.666 -127 -45.999 -183l-144 -467h385zM356.999 1579h-103.998c16.667 176 87 264 211 264
c38.667 0 92.334 -18.667 161.001 -56c68 -37.333 113.333 -56 136 -56c53.333 0 88.666 38 105.999 114h105c-18 -176 -88.333 -264 -211 -264c-38 0 -90.333 19 -157 57c-66.667 37.333 -113.334 56 -140.001 56c-54.667 0 -90.334 -38.333 -107.001 -115z" />
    <glyph glyph-name="Adieresis" unicode="&#xc4;" 
d="M1004 0l-144 453h-491l-146 -453h-190l483 1468h195l485 -1468h-192zM807 618l-133.001 424c-26 82.667 -46.667 158 -62 226c-13.333 -66 -28.666 -127 -45.999 -183l-144 -467h385zM425.999 1835c64 0 96 -34 96 -102c0 -68.667 -32 -103 -96 -103s-96 34.333 -96 103
c0 68 32 102 96 102zM800.999 1835c64 0 96 -34 96 -102c0 -68.667 -32 -103 -96 -103s-96 34.333 -96 103c0 68 32 102 96 102z" />
    <glyph glyph-name="Aring" unicode="&#xc5;" 
d="M1004 0l-144 453h-491l-146 -453h-190l483 1468h195l485 -1468h-192zM807 618l-133.001 424c-26 82.667 -46.667 158 -62 226c-13.333 -66 -28.666 -127 -45.999 -183l-144 -467h385zM609.999 1366c-68 0 -122.167 19.332 -162.5 57.999s-60.5 91 -60.5 157
s20.167 118.333 60.5 157s94.5 58 162.5 58c67.333 0 122.5 -19.667 165.5 -59s64.5 -90.666 64.5 -153.999c0 -65.333 -21.167 -117.833 -63.5 -157.5s-97.833 -59.5 -166.5 -59.5zM609.999 1694c-32.667 0 -59.5 -10 -80.5 -30s-31.5 -47.667 -31.5 -83
c0 -75.333 37.333 -113 112 -113c33.333 0 60.5 10 81.5 30s31.5 47.667 31.5 83s-10.5 63 -31.5 83s-48.167 30 -81.5 30z" />
    <glyph glyph-name="AE" unicode="&#xc6;" 
d="M1210 0h-653v453h-289l-96 -453h-172l338 1462h872v-164h-477v-452h438v-162h-438v-520h477v-164zM305 618h252v680h-106z" />
    <glyph glyph-name="Ccedilla" unicode="&#xc7;" 
d="M1124 201l-0.00195312 -162.002c-97.333 -39.333 -216.666 -59 -357.999 -59c-206 0 -363.667 65.333 -473 196s-164 316.334 -164 557.001c0 230.667 59.667 413.334 179 548.001s282.333 202 489 202c146.667 0 274.334 -28.667 383.001 -86l-78 -156
c-102.667 52 -204.334 78 -305.001 78c-143.333 0 -257.666 -52.833 -342.999 -158.5s-128 -248.834 -128 -429.501c0 -191.333 40 -337.166 120 -437.499s197 -150.5 351 -150.5c86.667 0 195.667 19.333 327 58zM507.998 -483.002v108c22 -4 48.667 -6 80 -6
c100.667 0 151 30.667 151 92c0 49.333 -57.333 87 -172 113l91 176h120l-57 -115c106.667 -24.667 160 -82 160 -172c0 -136.667 -97 -205 -291 -205c-22.667 0 -50 3 -82 9z" />
    <glyph glyph-name="Egrave" unicode="&#xc8;" 
d="M1059 0h-842v1462h842v-164h-656v-452h617v-162h-617v-520h656v-164zM738 1579h-120.999c-110.667 94.667 -201.334 197 -272.001 307v21h219c57.333 -118.667 115.333 -219 174 -301v-27z" />
    <glyph glyph-name="Eacute" unicode="&#xc9;" 
d="M1059 0h-842v1462h842v-164h-656v-452h617v-162h-617v-520h656v-164zM481 1606c62.667 88.667 120.668 188.999 174.001 300.999h219v-21c-74.667 -115.333 -165.334 -217.666 -272.001 -306.999h-121v27z" />
    <glyph glyph-name="Ecircumflex" unicode="&#xca;" 
d="M1059 0h-842v1462h842v-164h-656v-452h617v-162h-617v-520h656v-164zM981 1579h-121.002c-56.667 37.333 -127 99.333 -211 186c-88.667 -90.667 -159 -152.667 -211 -186h-120v27l59 67c92.667 103.333 151.334 181.333 176.001 234h193
c24.667 -52.667 83.334 -130.667 176.001 -234l59 -67v-27z" />
    <glyph glyph-name="Edieresis" unicode="&#xcb;" 
d="M1059 0h-842v1462h842v-164h-656v-452h617v-162h-617v-520h656v-164zM451 1835c64 0 96 -34 96 -102c0 -68.667 -32 -103 -96 -103s-96 34.333 -96 103c0 68 32 102 96 102zM826 1835c64 0 96 -34 96 -102c0 -68.667 -32 -103 -96 -103s-96 34.333 -96 103
c0 68 32 102 96 102z" />
    <glyph glyph-name="Igrave" unicode="&#xcc;" 
d="M1001 0h-776v123l295 20v1176l-295 20v123h776v-123l-294 -20v-1176l294 -20v-123zM703 1579h-120.999c-110.667 94.667 -201.334 197 -272.001 307v21h219c57.333 -118.667 115.333 -219 174 -301v-27z" />
    <glyph glyph-name="Iacute" unicode="&#xcd;" 
d="M1001 0h-776v123l295 20v1176l-295 20v123h776v-123l-294 -20v-1176l294 -20v-123zM537 1606c62.667 88.667 120.668 188.999 174.001 300.999h219v-21c-74.667 -115.333 -165.334 -217.666 -272.001 -306.999h-121v27z" />
    <glyph glyph-name="Icircumflex" unicode="&#xce;" 
d="M1001 0h-776v123l295 20v1176l-295 20v123h776v-123l-294 -20v-1176l294 -20v-123zM946 1579h-121.002c-56.667 37.333 -127 99.333 -211 186c-88.667 -90.667 -159 -152.667 -211 -186h-120v27l59 67c92.667 103.333 151.334 181.333 176.001 234h193
c24.667 -52.667 83.334 -130.667 176.001 -234l59 -67v-27z" />
    <glyph glyph-name="Idieresis" unicode="&#xcf;" 
d="M1001 0h-776v123l295 20v1176l-295 20v123h776v-123l-294 -20v-1176l294 -20v-123zM428 1835c64 0 96 -34 96 -102c0 -68.667 -32 -103 -96 -103s-96 34.333 -96 103c0 68 32 102 96 102zM803 1835c64 0 96 -34 96 -102c0 -68.667 -32 -103 -96 -103s-96 34.333 -96 103
c0 68 32 102 96 102z" />
    <glyph glyph-name="Eth" unicode="&#xd0;" 
d="M135 0v659h-135v162h135v641h342c211.333 0 375.833 -63 493.5 -189s176.5 -302 176.5 -528c0 -240.667 -61 -425 -183 -553s-298 -192 -528 -192h-301zM322 1303v-482h380v-162h-380v-499h96c354.667 0 532 193 532 579c0 376 -164.333 564 -493 564h-135z" />
    <glyph glyph-name="Ntilde" unicode="&#xd1;" 
d="M1092 0h-215l-580 1210h-8c12 -184.667 18 -323.667 18 -417v-793h-172v1462h213l578 -1204h6c-9.33301 202 -14 336.667 -14 404v800h174v-1462zM362 1579h-103.998c16.667 176 87 264 211 264c38.667 0 92.334 -18.667 161.001 -56c68 -37.333 113.333 -56 136 -56
c53.333 0 88.666 38 105.999 114h105c-18 -176 -88.333 -264 -211 -264c-38 0 -90.333 19 -157 57c-66.667 37.333 -113.334 56 -140.001 56c-54.667 0 -90.334 -38.333 -107.001 -115z" />
    <glyph glyph-name="Ograve" unicode="&#xd2;" 
d="M616 -20c-354.667 0 -532 251.668 -532 755.001c0 500 178 750 534 750c170.667 0 301.5 -65.167 392.5 -195.5s136.5 -315.833 136.5 -556.5s-46 -426.334 -138 -557.001s-223 -196 -393 -196zM616 143.001c115.333 0 199.833 48.333 253.5 145s80.5 245 80.5 445
c0 202 -27.167 350.5 -81.5 445.5s-137.833 142.5 -250.5 142.5c-224.667 0 -337 -196 -337 -588c0 -393.333 111.667 -590 335 -590zM730 1579h-120.999c-110.667 94.667 -201.334 197 -272.001 307v21h219c57.333 -118.667 115.333 -219 174 -301v-27z" />
    <glyph glyph-name="Oacute" unicode="&#xd3;" 
d="M616 -20c-354.667 0 -532 251.668 -532 755.001c0 500 178 750 534 750c170.667 0 301.5 -65.167 392.5 -195.5s136.5 -315.833 136.5 -556.5s-46 -426.334 -138 -557.001s-223 -196 -393 -196zM616 143.001c115.333 0 199.833 48.333 253.5 145s80.5 245 80.5 445
c0 202 -27.167 350.5 -81.5 445.5s-137.833 142.5 -250.5 142.5c-224.667 0 -337 -196 -337 -588c0 -393.333 111.667 -590 335 -590zM508 1606c62.667 88.667 120.668 188.999 174.001 300.999h219v-21c-74.667 -115.333 -165.334 -217.666 -272.001 -306.999h-121v27z" />
    <glyph glyph-name="Ocircumflex" unicode="&#xd4;" 
d="M616 -20c-354.667 0 -532 251.668 -532 755.001c0 500 178 750 534 750c170.667 0 301.5 -65.167 392.5 -195.5s136.5 -315.833 136.5 -556.5s-46 -426.334 -138 -557.001s-223 -196 -393 -196zM616 143.001c115.333 0 199.833 48.333 253.5 145s80.5 245 80.5 445
c0 202 -27.167 350.5 -81.5 445.5s-137.833 142.5 -250.5 142.5c-224.667 0 -337 -196 -337 -588c0 -393.333 111.667 -590 335 -590zM946 1579h-121.002c-56.667 37.333 -127 99.333 -211 186c-88.667 -90.667 -159 -152.667 -211 -186h-120v27l59 67
c92.667 103.333 151.334 181.333 176.001 234h193c24.667 -52.667 83.334 -130.667 176.001 -234l59 -67v-27z" />
    <glyph glyph-name="Otilde" unicode="&#xd5;" 
d="M616 -20c-354.667 0 -532 251.668 -532 755.001c0 500 178 750 534 750c170.667 0 301.5 -65.167 392.5 -195.5s136.5 -315.833 136.5 -556.5s-46 -426.334 -138 -557.001s-223 -196 -393 -196zM616 143.001c115.333 0 199.833 48.333 253.5 145s80.5 245 80.5 445
c0 202 -27.167 350.5 -81.5 445.5s-137.833 142.5 -250.5 142.5c-224.667 0 -337 -196 -337 -588c0 -393.333 111.667 -590 335 -590zM366 1579h-103.998c16.667 176 87 264 211 264c38.667 0 92.334 -18.667 161.001 -56c68 -37.333 113.333 -56 136 -56
c53.333 0 88.666 38 105.999 114h105c-18 -176 -88.333 -264 -211 -264c-38 0 -90.333 19 -157 57c-66.667 37.333 -113.334 56 -140.001 56c-54.667 0 -90.334 -38.333 -107.001 -115z" />
    <glyph glyph-name="Odieresis" unicode="&#xd6;" 
d="M616 -20c-354.667 0 -532 251.668 -532 755.001c0 500 178 750 534 750c170.667 0 301.5 -65.167 392.5 -195.5s136.5 -315.833 136.5 -556.5s-46 -426.334 -138 -557.001s-223 -196 -393 -196zM616 143.001c115.333 0 199.833 48.333 253.5 145s80.5 245 80.5 445
c0 202 -27.167 350.5 -81.5 445.5s-137.833 142.5 -250.5 142.5c-224.667 0 -337 -196 -337 -588c0 -393.333 111.667 -590 335 -590zM428 1835c64 0 96 -34 96 -102c0 -68.667 -32 -103 -96 -103s-96 34.333 -96 103c0 68 32 102 96 102zM803 1835c64 0 96 -34 96 -102
c0 -68.667 -32 -103 -96 -103s-96 34.333 -96 103c0 68 32 102 96 102z" />
    <glyph glyph-name="multiply" unicode="&#xd7;" 
d="M508 723l-318 319l105 105l317 -318l322 318l104 -103l-321 -321l319 -320l-102 -102l-322 317l-317 -315l-102 103z" />
    <glyph glyph-name="Oslash" unicode="&#xd8;" 
d="M309 74l-92 -150.001l-137 78l121 197c-78 122.667 -117 301.334 -117 536.001c0 500 178 750 534 750c124 0 227.333 -35 310 -105l92 152l137 -78l-125 -201c76.667 -125.333 115 -298.666 115 -519.999c0 -240.667 -46 -426.334 -138 -557.001s-223 -196 -393 -196
c-126 0 -228.333 31.333 -307 94zM319 390.999l515 836c-53.333 62.667 -125.333 94 -216 94c-224.667 0 -337 -196 -337 -588c0 -141.333 12.667 -255.333 38 -342zM915 1061l-512 -831.999c53.333 -57.333 124.333 -86 213 -86c115.333 0 199.833 48.333 253.5 145
s80.5 245 80.5 445c0 139.333 -11.667 248.666 -35 327.999z" />
    <glyph glyph-name="Ugrave" unicode="&#xd9;" 
d="M1104 1464v-948c0 -173.333 -42 -306 -126 -398s-207.333 -138 -370 -138c-322 0 -483 180 -483 540v942h186v-932c0 -258 102.333 -387 307 -387c196.667 0 296.667 129.667 300 389v932h186zM742 1579h-120.999c-110.667 94.667 -201.334 197 -272.001 307v21h219
c57.333 -118.667 115.333 -219 174 -301v-27z" />
    <glyph glyph-name="Uacute" unicode="&#xda;" 
d="M1104 1464v-948c0 -173.333 -42 -306 -126 -398s-207.333 -138 -370 -138c-322 0 -483 180 -483 540v942h186v-932c0 -258 102.333 -387 307 -387c196.667 0 296.667 129.667 300 389v932h186zM494 1606c62.667 88.667 120.668 188.999 174.001 300.999h219v-21
c-74.667 -115.333 -165.334 -217.666 -272.001 -306.999h-121v27z" />
    <glyph glyph-name="Ucircumflex" unicode="&#xdb;" 
d="M1104 1464v-948c0 -173.333 -42 -306 -126 -398s-207.333 -138 -370 -138c-322 0 -483 180 -483 540v942h186v-932c0 -258 102.333 -387 307 -387c196.667 0 296.667 129.667 300 389v932h186zM946 1579h-121.002c-56.667 37.333 -127 99.333 -211 186
c-88.667 -90.667 -159 -152.667 -211 -186h-120v27l59 67c92.667 103.333 151.334 181.333 176.001 234h193c24.667 -52.667 83.334 -130.667 176.001 -234l59 -67v-27z" />
    <glyph glyph-name="Udieresis" unicode="&#xdc;" 
d="M1104 1464v-948c0 -173.333 -42 -306 -126 -398s-207.333 -138 -370 -138c-322 0 -483 180 -483 540v942h186v-932c0 -258 102.333 -387 307 -387c196.667 0 296.667 129.667 300 389v932h186zM428 1835c64 0 96 -34 96 -102c0 -68.667 -32 -103 -96 -103
s-96 34.333 -96 103c0 68 32 102 96 102zM803 1835c64 0 96 -34 96 -102c0 -68.667 -32 -103 -96 -103s-96 34.333 -96 103c0 68 32 102 96 102z" />
    <glyph glyph-name="Yacute" unicode="&#xdd;" 
d="M612 723l381 739h201l-487 -893v-569h-187v559l-487 903h203zM494 1606c62.667 88.667 120.668 188.999 174.001 300.999h219v-21c-74.667 -115.333 -165.334 -217.666 -272.001 -306.999h-121v27z" />
    <glyph glyph-name="Thorn" unicode="&#xde;" 
d="M362 317v-317h-186v1462h186v-252h218c342.667 0 514 -142.667 514 -428c0 -146 -46.167 -260 -138.5 -342s-226.5 -123 -402.5 -123h-191zM362 475h170c132 0 226.5 24 283.5 72s85.5 123 85.5 225c0 186 -112.667 279 -338 279h-201v-576z" />
    <glyph glyph-name="germandbls" unicode="&#xdf;" 
d="M479 49l0.000976562 166c95.333 -57.333 187.666 -86 276.999 -86c142 0 213 58 213 174c0 54 -15.167 98 -45.5 132s-78.166 71.333 -143.499 112c-82 52 -139.667 98.333 -173 139s-50 90 -50 148c0 78 43 152.333 129 223s129 136 129 196
c0 109.333 -75.667 164 -227 164c-161.333 0 -242 -71.667 -242 -215v-1202h-182v1200c0 244.667 141.333 367 424 367c129.333 0 230.166 -26.5 302.499 -79.5s108.5 -128.833 108.5 -227.5c0 -88 -44.333 -171 -133 -249c-56 -49.333 -92.167 -84.333 -108.5 -105
s-24.5 -42 -24.5 -64c0 -26 9.66699 -49 29 -69s69.666 -57 150.999 -111c96 -63.333 159.667 -121 191 -173s47 -110.667 47 -176c0 -108 -33.333 -190.5 -100 -247.5s-161 -85.5 -283 -85.5c-121.333 0 -217.666 23 -288.999 69z" />
    <glyph glyph-name="agrave" unicode="&#xe0;" 
d="M895 0l-37 152.001h-8c-51.333 -64.667 -104 -109.5 -158 -134.5s-123.667 -37.5 -209 -37.5c-108.667 0 -193.834 28.667 -255.501 86s-92.5 137.666 -92.5 240.999c0 221.333 170 337.333 510 348l203 7v69c0 157.333 -81.333 236 -244 236
c-98 0 -207.333 -27.333 -328 -82l-63 137c130.667 64 258.334 96 383.001 96c151.333 0 260.833 -29 328.5 -87s101.5 -151 101.5 -279v-752h-131zM846 537.001l-161.999 -7c-130.667 -5.33301 -223.334 -25.833 -278.001 -61.5s-82 -90.167 -82 -163.5
c0 -118.667 66.667 -178 200 -178c98 0 176.167 27.167 234.5 81.5s87.5 130.833 87.5 229.5v99zM726.001 1241h-120.999c-110.667 94.667 -201.334 197 -272.001 307v21h219c57.333 -118.667 115.333 -219 174 -301v-27z" />
    <glyph glyph-name="aacute" unicode="&#xe1;" 
d="M895 0l-37 152.001h-8c-51.333 -64.667 -104 -109.5 -158 -134.5s-123.667 -37.5 -209 -37.5c-108.667 0 -193.834 28.667 -255.501 86s-92.5 137.666 -92.5 240.999c0 221.333 170 337.333 510 348l203 7v69c0 157.333 -81.333 236 -244 236
c-98 0 -207.333 -27.333 -328 -82l-63 137c130.667 64 258.334 96 383.001 96c151.333 0 260.833 -29 328.5 -87s101.5 -151 101.5 -279v-752h-131zM846 537.001l-161.999 -7c-130.667 -5.33301 -223.334 -25.833 -278.001 -61.5s-82 -90.167 -82 -163.5
c0 -118.667 66.667 -178 200 -178c98 0 176.167 27.167 234.5 81.5s87.5 130.833 87.5 229.5v99zM502.001 1268c62.667 88.667 120.668 188.999 174.001 300.999h219v-21c-74.667 -115.333 -165.334 -217.666 -272.001 -306.999h-121v27z" />
    <glyph glyph-name="acircumflex" unicode="&#xe2;" 
d="M895 0l-37 152.001h-8c-51.333 -64.667 -104 -109.5 -158 -134.5s-123.667 -37.5 -209 -37.5c-108.667 0 -193.834 28.667 -255.501 86s-92.5 137.666 -92.5 240.999c0 221.333 170 337.333 510 348l203 7v69c0 157.333 -81.333 236 -244 236
c-98 0 -207.333 -27.333 -328 -82l-63 137c130.667 64 258.334 96 383.001 96c151.333 0 260.833 -29 328.5 -87s101.5 -151 101.5 -279v-752h-131zM846 537.001l-161.999 -7c-130.667 -5.33301 -223.334 -25.833 -278.001 -61.5s-82 -90.167 -82 -163.5
c0 -118.667 66.667 -178 200 -178c98 0 176.167 27.167 234.5 81.5s87.5 130.833 87.5 229.5v99zM954.001 1241h-121.002c-56.667 37.333 -127 99.333 -211 186c-88.667 -90.667 -159 -152.667 -211 -186h-120v27l59 67c92.667 103.333 151.334 181.333 176.001 234h193
c24.667 -52.667 83.334 -130.667 176.001 -234l59 -67v-27z" />
    <glyph glyph-name="atilde" unicode="&#xe3;" 
d="M895 0l-37 152.001h-8c-51.333 -64.667 -104 -109.5 -158 -134.5s-123.667 -37.5 -209 -37.5c-108.667 0 -193.834 28.667 -255.501 86s-92.5 137.666 -92.5 240.999c0 221.333 170 337.333 510 348l203 7v69c0 157.333 -81.333 236 -244 236
c-98 0 -207.333 -27.333 -328 -82l-63 137c130.667 64 258.334 96 383.001 96c151.333 0 260.833 -29 328.5 -87s101.5 -151 101.5 -279v-752h-131zM846 537.001l-161.999 -7c-130.667 -5.33301 -223.334 -25.833 -278.001 -61.5s-82 -90.167 -82 -163.5
c0 -118.667 66.667 -178 200 -178c98 0 176.167 27.167 234.5 81.5s87.5 130.833 87.5 229.5v99zM368.001 1241h-103.998c16.667 176 87 264 211 264c38.667 0 92.334 -18.667 161.001 -56c68 -37.333 113.333 -56 136 -56c53.333 0 88.666 38 105.999 114h105
c-18 -176 -88.333 -264 -211 -264c-38 0 -90.333 19 -157 57c-66.667 37.333 -113.334 56 -140.001 56c-54.667 0 -90.334 -38.333 -107.001 -115z" />
    <glyph glyph-name="adieresis" unicode="&#xe4;" 
d="M895 0l-37 152.001h-8c-51.333 -64.667 -104 -109.5 -158 -134.5s-123.667 -37.5 -209 -37.5c-108.667 0 -193.834 28.667 -255.501 86s-92.5 137.666 -92.5 240.999c0 221.333 170 337.333 510 348l203 7v69c0 157.333 -81.333 236 -244 236
c-98 0 -207.333 -27.333 -328 -82l-63 137c130.667 64 258.334 96 383.001 96c151.333 0 260.833 -29 328.5 -87s101.5 -151 101.5 -279v-752h-131zM846 537.001l-161.999 -7c-130.667 -5.33301 -223.334 -25.833 -278.001 -61.5s-82 -90.167 -82 -163.5
c0 -118.667 66.667 -178 200 -178c98 0 176.167 27.167 234.5 81.5s87.5 130.833 87.5 229.5v99zM438.001 1497c64 0 96 -34 96 -102c0 -68.667 -32 -103 -96 -103s-96 34.333 -96 103c0 68 32 102 96 102zM813.001 1497c64 0 96 -34 96 -102c0 -68.667 -32 -103 -96 -103
s-96 34.333 -96 103c0 68 32 102 96 102z" />
    <glyph glyph-name="aring" unicode="&#xe5;" 
d="M895 0l-37 152.001h-8c-51.333 -64.667 -104 -109.5 -158 -134.5s-123.667 -37.5 -209 -37.5c-108.667 0 -193.834 28.667 -255.501 86s-92.5 137.666 -92.5 240.999c0 221.333 170 337.333 510 348l203 7v69c0 157.333 -81.333 236 -244 236
c-98 0 -207.333 -27.333 -328 -82l-63 137c130.667 64 258.334 96 383.001 96c151.333 0 260.833 -29 328.5 -87s101.5 -151 101.5 -279v-752h-131zM846 537.001l-161.999 -7c-130.667 -5.33301 -223.334 -25.833 -278.001 -61.5s-82 -90.167 -82 -163.5
c0 -118.667 66.667 -178 200 -178c98 0 176.167 27.167 234.5 81.5s87.5 130.833 87.5 229.5v99zM609.001 1241c-68 0 -122.167 19.332 -162.5 57.999s-60.5 91 -60.5 157s20.167 118.333 60.5 157s94.5 58 162.5 58c67.333 0 122.5 -19.667 165.5 -59
s64.5 -90.666 64.5 -153.999c0 -65.333 -21.167 -117.833 -63.5 -157.5s-97.833 -59.5 -166.5 -59.5zM609.001 1569c-32.667 0 -59.5 -10 -80.5 -30s-31.5 -47.667 -31.5 -83c0 -75.333 37.333 -113 112 -113c33.333 0 60.5 10 81.5 30s31.5 47.667 31.5 83
s-10.5 63 -31.5 83s-48.167 30 -81.5 30z" />
    <glyph glyph-name="ae" unicode="&#xe6;" 
d="M522 662l-0.000976562 68.999c0 157.333 -46.333 236 -139 236c-71.333 0 -141.666 -27.333 -210.999 -82l-57 137c87.333 64 179.333 96 276 96c125.333 0 207.333 -59.333 246 -178c52 118.667 132 178 240 178c91.333 0 165.666 -45.167 222.999 -135.5
s86 -208.833 86 -355.5v-113h-496c2 -128 24.333 -222.5 67 -283.5s99 -91.5 169 -91.5c74 0 151.667 25.333 233 76v-162c-71.333 -48.667 -151.666 -73 -240.999 -73c-148 0 -253.333 76.333 -316 229c-70 -152.667 -170.333 -229 -301 -229
c-76.667 0 -138.5 28.833 -185.5 86.5s-70.5 137.834 -70.5 240.501c0 221.333 109.333 337.333 328 348zM693.999 661.999h316c0 94 -13.5 168.333 -40.5 223s-64.167 82 -111.5 82c-45.333 0 -83 -26 -113 -78s-47 -127.667 -51 -227zM519.999 536.999l-88.001 -7
c-144.667 -11.333 -217 -86.333 -217 -225c0 -55.333 10.667 -98.833 32 -130.5s50.333 -47.5 87 -47.5c54.667 0 99.334 27.5 134.001 82.5s52 131.167 52 228.5v99z" />
    <glyph glyph-name="ccedilla" unicode="&#xe7;" 
d="M1061 1059l-62 -158c-100 38 -189.333 57 -268 57c-247.333 0 -371 -137.667 -371 -413c0 -270.667 120.333 -406 361 -406c104.667 0 211.667 20.667 321 62v-160c-89.333 -40.667 -199 -61 -329 -61c-171.333 0 -304.333 48.5 -399 145.5s-142 236.167 -142 417.5
c0 187.333 48.333 330 145 428s232.667 147 408 147c118.667 0 230.667 -19.667 336 -59zM477 -483v108c22 -4 48.667 -6 80 -6c100.667 0 151 30.667 151 92c0 49.333 -57.333 87 -172 113l91 176h120l-57 -115c106.667 -24.667 160 -82 160 -172
c0 -136.667 -97 -205 -291 -205c-22.667 0 -50 3 -82 9z" />
    <glyph glyph-name="egrave" unicode="&#xe8;" 
d="M1096 514l-773.998 -0.000976562c5.33301 -250 120 -375 344 -375c130 0 253.333 25.333 370 76v-160c-110.667 -50 -232 -75 -364 -75c-163.333 0 -294 49.833 -392 149.5s-147 236.834 -147 411.501c0 177.333 45.167 317.833 135.5 421.5s211.166 155.5 362.499 155.5
c141.333 0 254.166 -44.667 338.499 -134s126.5 -208.333 126.5 -357v-113zM326.002 661.999h572.999c0 203.333 -90.667 305 -272 305c-183.333 0 -283.666 -101.667 -300.999 -305zM767.001 1241h-120.999c-110.667 94.667 -201.334 197 -272.001 307v21h219
c57.333 -118.667 115.333 -219 174 -301v-27z" />
    <glyph glyph-name="eacute" unicode="&#xe9;" 
d="M1096 514l-773.998 -0.000976562c5.33301 -250 120 -375 344 -375c130 0 253.333 25.333 370 76v-160c-110.667 -50 -232 -75 -364 -75c-163.333 0 -294 49.833 -392 149.5s-147 236.834 -147 411.501c0 177.333 45.167 317.833 135.5 421.5s211.166 155.5 362.499 155.5
c141.333 0 254.166 -44.667 338.499 -134s126.5 -208.333 126.5 -357v-113zM326.002 661.999h572.999c0 203.333 -90.667 305 -272 305c-183.333 0 -283.666 -101.667 -300.999 -305zM500.001 1268c62.667 88.667 120.668 188.999 174.001 300.999h219v-21
c-74.667 -115.333 -165.334 -217.666 -272.001 -306.999h-121v27z" />
    <glyph glyph-name="ecircumflex" unicode="&#xea;" 
d="M1096 514l-773.998 -0.000976562c5.33301 -250 120 -375 344 -375c130 0 253.333 25.333 370 76v-160c-110.667 -50 -232 -75 -364 -75c-163.333 0 -294 49.833 -392 149.5s-147 236.834 -147 411.501c0 177.333 45.167 317.833 135.5 421.5s211.166 155.5 362.499 155.5
c141.333 0 254.166 -44.667 338.499 -134s126.5 -208.333 126.5 -357v-113zM326.002 661.999h572.999c0 203.333 -90.667 305 -272 305c-183.333 0 -283.666 -101.667 -300.999 -305zM962.001 1241h-121.002c-56.667 37.333 -127 99.333 -211 186
c-88.667 -90.667 -159 -152.667 -211 -186h-120v27l59 67c92.667 103.333 151.334 181.333 176.001 234h193c24.667 -52.667 83.334 -130.667 176.001 -234l59 -67v-27z" />
    <glyph glyph-name="edieresis" unicode="&#xeb;" 
d="M1096 514l-773.998 -0.000976562c5.33301 -250 120 -375 344 -375c130 0 253.333 25.333 370 76v-160c-110.667 -50 -232 -75 -364 -75c-163.333 0 -294 49.833 -392 149.5s-147 236.834 -147 411.501c0 177.333 45.167 317.833 135.5 421.5s211.166 155.5 362.499 155.5
c141.333 0 254.166 -44.667 338.499 -134s126.5 -208.333 126.5 -357v-113zM326.002 661.999h572.999c0 203.333 -90.667 305 -272 305c-183.333 0 -283.666 -101.667 -300.999 -305zM444.001 1497c64 0 96 -34 96 -102c0 -68.667 -32 -103 -96 -103s-96 34.333 -96 103
c0 68 32 102 96 102zM819.001 1497c64 0 96 -34 96 -102c0 -68.667 -32 -103 -96 -103s-96 34.333 -96 103c0 68 32 102 96 102z" />
    <glyph glyph-name="igrave" unicode="&#xec;" 
d="M541 954l-269 21v123h451v-955l352 -20v-123h-878v123l344 20v811zM726 1241h-120.999c-110.667 94.667 -201.334 197 -272.001 307v21h219c57.333 -118.667 115.333 -219 174 -301v-27z" />
    <glyph glyph-name="iacute" unicode="&#xed;" 
d="M541 954l-269 21v123h451v-955l352 -20v-123h-878v123l344 20v811zM531 1268c62.667 88.667 120.668 188.999 174.001 300.999h219v-21c-74.667 -115.333 -165.334 -217.666 -272.001 -306.999h-121v27z" />
    <glyph glyph-name="icircumflex" unicode="&#xee;" 
d="M541 954l-269 21v123h451v-955l352 -20v-123h-878v123l344 20v811zM946 1241h-121.002c-56.667 37.333 -127 99.333 -211 186c-88.667 -90.667 -159 -152.667 -211 -186h-120v27l59 67c92.667 103.333 151.334 181.333 176.001 234h193
c24.667 -52.667 83.334 -130.667 176.001 -234l59 -67v-27z" />
    <glyph glyph-name="idieresis" unicode="&#xef;" 
d="M541 954l-269 21v123h451v-955l352 -20v-123h-878v123l344 20v811zM426 1497c64 0 96 -34 96 -102c0 -68.667 -32 -103 -96 -103s-96 34.333 -96 103c0 68 32 102 96 102zM801 1497c64 0 96 -34 96 -102c0 -68.667 -32 -103 -96 -103s-96 34.333 -96 103
c0 68 32 102 96 102z" />
    <glyph glyph-name="eth" unicode="&#xf0;" 
d="M889 852l7.99902 4.00098c-38.667 150.667 -119.334 281 -242.001 391l-256 -153l-73 114l217 131c-69.333 47.333 -126.666 83.666 -171.999 108.999l69 123c95.333 -46.667 177.333 -96 246 -148l227 138l74 -113l-194 -117c200.667 -194 301 -446.667 301 -758
c0 -184.667 -42.833 -329.667 -128.5 -435s-203.5 -158 -353.5 -158c-142 0 -257 44.5 -345 133.5s-132 210.167 -132 363.5c0 156 40.167 277.333 120.5 364s191.833 130 334.5 130c140.667 0 240.334 -39.667 299.001 -119zM613.999 823.001
c-190.667 0 -285.999 -117.333 -285.999 -352c0 -226.667 96 -340 288 -340c102.667 0 176.5 33.167 221.5 99.5s67.5 164.833 67.5 295.5c0 86 -25.833 157 -77.5 213s-122.834 84 -213.501 84z" />
    <glyph glyph-name="ntilde" unicode="&#xf1;" 
d="M887 0v707c0 173.333 -79.333 260 -238 260c-204.667 0 -307 -132.667 -307 -398v-569h-182v1098h147l27 -148h10c68.667 112 180.667 168 336 168c259.333 0 389 -133.667 389 -401v-717h-182zM364 1241h-103.998c16.667 176 87 264 211 264
c38.667 0 92.334 -18.667 161.001 -56c68 -37.333 113.333 -56 136 -56c53.333 0 88.666 38 105.999 114h105c-18 -176 -88.333 -264 -211 -264c-38 0 -90.333 19 -157 57c-66.667 37.333 -113.334 56 -140.001 56c-54.667 0 -90.334 -38.333 -107.001 -115z" />
    <glyph glyph-name="ograve" unicode="&#xf2;" 
d="M610 -20c-144 0 -262.499 51.833 -355.499 155.5s-139.5 242.167 -139.5 415.5c0 175.333 45.167 313.666 135.5 414.999s212.166 152 365.499 152c145.333 0 264.333 -51.667 357 -155s139 -240.666 139 -411.999c0 -176.667 -45.667 -316 -137 -418
s-213 -153 -365 -153zM614.001 131c206.667 0 310 140 310 420c0 277.333 -104 416 -312 416c-206 0 -309 -138.667 -309 -416c0 -280 103.667 -420 311 -420zM771.001 1241h-120.999c-110.667 94.667 -201.334 197 -272.001 307v21h219
c57.333 -118.667 115.333 -219 174 -301v-27z" />
    <glyph glyph-name="oacute" unicode="&#xf3;" 
d="M610 -20c-144 0 -262.499 51.833 -355.499 155.5s-139.5 242.167 -139.5 415.5c0 175.333 45.167 313.666 135.5 414.999s212.166 152 365.499 152c145.333 0 264.333 -51.667 357 -155s139 -240.666 139 -411.999c0 -176.667 -45.667 -316 -137 -418
s-213 -153 -365 -153zM614.001 131c206.667 0 310 140 310 420c0 277.333 -104 416 -312 416c-206 0 -309 -138.667 -309 -416c0 -280 103.667 -420 311 -420zM498.001 1268c62.667 88.667 120.668 188.999 174.001 300.999h219v-21
c-74.667 -115.333 -165.334 -217.666 -272.001 -306.999h-121v27z" />
    <glyph glyph-name="ocircumflex" unicode="&#xf4;" 
d="M610 -20c-144 0 -262.499 51.833 -355.499 155.5s-139.5 242.167 -139.5 415.5c0 175.333 45.167 313.666 135.5 414.999s212.166 152 365.499 152c145.333 0 264.333 -51.667 357 -155s139 -240.666 139 -411.999c0 -176.667 -45.667 -316 -137 -418
s-213 -153 -365 -153zM614.001 131c206.667 0 310 140 310 420c0 277.333 -104 416 -312 416c-206 0 -309 -138.667 -309 -416c0 -280 103.667 -420 311 -420zM941.001 1241h-121.002c-56.667 37.333 -127 99.333 -211 186c-88.667 -90.667 -159 -152.667 -211 -186h-120v27
l59 67c92.667 103.333 151.334 181.333 176.001 234h193c24.667 -52.667 83.334 -130.667 176.001 -234l59 -67v-27z" />
    <glyph glyph-name="otilde" unicode="&#xf5;" 
d="M610 -20c-144 0 -262.499 51.833 -355.499 155.5s-139.5 242.167 -139.5 415.5c0 175.333 45.167 313.666 135.5 414.999s212.166 152 365.499 152c145.333 0 264.333 -51.667 357 -155s139 -240.666 139 -411.999c0 -176.667 -45.667 -316 -137 -418
s-213 -153 -365 -153zM614.001 131c206.667 0 310 140 310 420c0 277.333 -104 416 -312 416c-206 0 -309 -138.667 -309 -416c0 -280 103.667 -420 311 -420zM358.001 1241h-103.998c16.667 176 87 264 211 264c38.667 0 92.334 -18.667 161.001 -56
c68 -37.333 113.333 -56 136 -56c53.333 0 88.666 38 105.999 114h105c-18 -176 -88.333 -264 -211 -264c-38 0 -90.333 19 -157 57c-66.667 37.333 -113.334 56 -140.001 56c-54.667 0 -90.334 -38.333 -107.001 -115z" />
    <glyph glyph-name="odieresis" unicode="&#xf6;" 
d="M610 -20c-144 0 -262.499 51.833 -355.499 155.5s-139.5 242.167 -139.5 415.5c0 175.333 45.167 313.666 135.5 414.999s212.166 152 365.499 152c145.333 0 264.333 -51.667 357 -155s139 -240.666 139 -411.999c0 -176.667 -45.667 -316 -137 -418
s-213 -153 -365 -153zM614.001 131c206.667 0 310 140 310 420c0 277.333 -104 416 -312 416c-206 0 -309 -138.667 -309 -416c0 -280 103.667 -420 311 -420zM419.001 1497c64 0 96 -34 96 -102c0 -68.667 -32 -103 -96 -103s-96 34.333 -96 103c0 68 32 102 96 102z
M794.001 1497c64 0 96 -34 96 -102c0 -68.667 -32 -103 -96 -103s-96 34.333 -96 103c0 68 32 102 96 102z" />
    <glyph glyph-name="divide" unicode="&#xf7;" 
d="M612 1196c76.667 0 115 -41.667 115 -125s-38.333 -125 -115 -125c-76 0 -114 41.667 -114 125s38 125 114 125zM152 647v150h923v-150h-923zM612 498c76.667 0 115 -41.667 115 -125s-38.333 -125 -115 -125c-76 0 -114 41.667 -114 125s38 125 114 125z" />
    <glyph glyph-name="oslash" unicode="&#xf8;" 
d="M377 33l-76.001 -118.999l-131 84l84 131c-92.667 105.333 -139 246 -139 422c0 177.333 44.333 316.166 133 416.499s211.334 150.5 368.001 150.5c85.333 0 164 -19 236 -57l76 119l131 -84l-84 -131c91.333 -104 137 -242 137 -414
c0 -180.667 -44.833 -321 -134.5 -421s-212.167 -150 -367.5 -150c-86 0 -163.667 17.667 -233 53zM355.999 276.001l405.999 656c-44 23.333 -96 35 -156 35c-107.333 0 -184.666 -34.5 -231.999 -103.5s-71 -173.167 -71 -312.5c0 -120 17.667 -211.667 53 -275z
M871.998 817.001l-404.999 -652.999c40.667 -22 92 -33 154 -33c107.333 0 184.666 35.167 231.999 105.5s71 175.166 71 314.499c0 109.333 -17.333 198 -52 266z" />
    <glyph glyph-name="ugrave" unicode="&#xf9;" 
d="M922 0l-26.999 147h-10c-70 -111.333 -181.333 -167 -334 -167c-260.667 0 -391 133.667 -391 401v717h182v-707c0 -173.333 78.667 -260 236 -260c107.333 0 185.666 30.833 234.999 92.5s74 163.167 74 304.5v570h182v-1098h-147zM734.001 1241h-120.999
c-110.667 94.667 -201.334 197 -272.001 307v21h219c57.333 -118.667 115.333 -219 174 -301v-27z" />
    <glyph glyph-name="uacute" unicode="&#xfa;" 
d="M922 0l-26.999 147h-10c-70 -111.333 -181.333 -167 -334 -167c-260.667 0 -391 133.667 -391 401v717h182v-707c0 -173.333 78.667 -260 236 -260c107.333 0 185.666 30.833 234.999 92.5s74 163.167 74 304.5v570h182v-1098h-147zM500.001 1268
c62.667 88.667 120.668 188.999 174.001 300.999h219v-21c-74.667 -115.333 -165.334 -217.666 -272.001 -306.999h-121v27z" />
    <glyph glyph-name="ucircumflex" unicode="&#xfb;" 
d="M922 0l-26.999 147h-10c-70 -111.333 -181.333 -167 -334 -167c-260.667 0 -391 133.667 -391 401v717h182v-707c0 -173.333 78.667 -260 236 -260c107.333 0 185.666 30.833 234.999 92.5s74 163.167 74 304.5v570h182v-1098h-147zM954.001 1241h-121.002
c-56.667 37.333 -127 99.333 -211 186c-88.667 -90.667 -159 -152.667 -211 -186h-120v27l59 67c92.667 103.333 151.334 181.333 176.001 234h193c24.667 -52.667 83.334 -130.667 176.001 -234l59 -67v-27z" />
    <glyph glyph-name="udieresis" unicode="&#xfc;" 
d="M922 0l-26.999 147h-10c-70 -111.333 -181.333 -167 -334 -167c-260.667 0 -391 133.667 -391 401v717h182v-707c0 -173.333 78.667 -260 236 -260c107.333 0 185.666 30.833 234.999 92.5s74 163.167 74 304.5v570h182v-1098h-147zM428.001 1497c64 0 96 -34 96 -102
c0 -68.667 -32 -103 -96 -103s-96 34.333 -96 103c0 68 32 102 96 102zM803.001 1497c64 0 96 -34 96 -102c0 -68.667 -32 -103 -96 -103s-96 34.333 -96 103c0 68 32 102 96 102z" />
    <glyph glyph-name="yacute" unicode="&#xfd;" 
d="M82 1098l188 0.000976562l262 -654c54.667 -136.667 84.334 -233.334 89.001 -290.001h6c15.333 74.667 45.333 172 90 292l239 652h189l-475 -1241c-44.667 -116 -96.667 -203.167 -156 -261.5s-141.333 -87.5 -246 -87.5c-57.333 0 -113.333 5.66699 -168 17v145
c41.333 -8 86.666 -12 135.999 -12c64 0 113.833 13.667 149.5 41s67.5 74.333 95.5 141l58 150zM494 1268c62.667 88.667 120.668 188.999 174.001 300.999h219v-21c-74.667 -115.333 -165.334 -217.666 -272.001 -306.999h-121v27z" />
    <glyph glyph-name="thorn" unicode="&#xfe;" 
d="M340 950c73.333 112 180.667 168.001 322 168.001c134 0 239.167 -49.833 315.5 -149.5s114.5 -238.834 114.5 -417.501c0 -180 -38.333 -320.167 -115 -420.5s-181.667 -150.5 -315 -150.5c-138 0 -245.333 53 -322 159h-12c8 -86 12 -140 12 -162v-469h-182v2048h182
v-458l-8 -148h8zM340.001 592.001v-41c0 -151.333 23.167 -259.166 69.5 -323.499s120.166 -96.5 221.499 -96.5c181.333 0 272 140.667 272 422c0 276 -91.333 414 -274 414c-101.333 0 -174.166 -29.333 -218.499 -88s-67.833 -154.334 -70.5 -287.001z" />
    <glyph glyph-name="ydieresis" unicode="&#xff;" 
d="M82 1098l188 0.000976562l262 -654c54.667 -136.667 84.334 -233.334 89.001 -290.001h6c15.333 74.667 45.333 172 90 292l239 652h189l-475 -1241c-44.667 -116 -96.667 -203.167 -156 -261.5s-141.333 -87.5 -246 -87.5c-57.333 0 -113.333 5.66699 -168 17v145
c41.333 -8 86.666 -12 135.999 -12c64 0 113.833 13.667 149.5 41s67.5 74.333 95.5 141l58 150zM434 1497c64 0 96 -34 96 -102c0 -68.667 -32 -103 -96 -103s-96 34.333 -96 103c0 68 32 102 96 102zM809 1497c64 0 96 -34 96 -102c0 -68.667 -32 -103 -96 -103
s-96 34.333 -96 103c0 68 32 102 96 102z" />
    <glyph glyph-name="Amacron" unicode="&#x100;" 
d="M1004 0l-144 453h-491l-146 -453h-190l483 1468h195l485 -1468h-192zM807 618l-133.001 424c-26 82.667 -46.667 158 -62 226c-13.333 -66 -28.666 -127 -45.999 -183l-144 -467h385zM325.999 1729h575v-150h-575v150z" />
    <glyph glyph-name="amacron" unicode="&#x101;" 
d="M895 0l-37 152.001h-8c-51.333 -64.667 -104 -109.5 -158 -134.5s-123.667 -37.5 -209 -37.5c-108.667 0 -193.834 28.667 -255.501 86s-92.5 137.666 -92.5 240.999c0 221.333 170 337.333 510 348l203 7v69c0 157.333 -81.333 236 -244 236
c-98 0 -207.333 -27.333 -328 -82l-63 137c130.667 64 258.334 96 383.001 96c151.333 0 260.833 -29 328.5 -87s101.5 -151 101.5 -279v-752h-131zM846 537.001l-161.999 -7c-130.667 -5.33301 -223.334 -25.833 -278.001 -61.5s-82 -90.167 -82 -163.5
c0 -118.667 66.667 -178 200 -178c98 0 176.167 27.167 234.5 81.5s87.5 130.833 87.5 229.5v99zM317.001 1391h575v-150h-575v150z" />
    <glyph glyph-name="Abreve" unicode="&#x102;" 
d="M1004 0l-144 453h-491l-146 -453h-190l483 1468h195l485 -1468h-192zM807 618l-133.001 424c-26 82.667 -46.667 158 -62 226c-13.333 -66 -28.666 -127 -45.999 -183l-144 -467h385zM911.999 1856c-6 -84.667 -35.667 -152 -89 -202s-125.333 -75 -216 -75
c-186.667 0 -285.667 92.333 -297 277h109c4.66699 -50.667 20.167 -84.167 46.5 -100.5s74.166 -24.5 143.499 -24.5c120.667 0 184.334 41.667 191.001 125h112z" />
    <glyph glyph-name="abreve" unicode="&#x103;" 
d="M895 0l-37 152.001h-8c-51.333 -64.667 -104 -109.5 -158 -134.5s-123.667 -37.5 -209 -37.5c-108.667 0 -193.834 28.667 -255.501 86s-92.5 137.666 -92.5 240.999c0 221.333 170 337.333 510 348l203 7v69c0 157.333 -81.333 236 -244 236
c-98 0 -207.333 -27.333 -328 -82l-63 137c130.667 64 258.334 96 383.001 96c151.333 0 260.833 -29 328.5 -87s101.5 -151 101.5 -279v-752h-131zM846 537.001l-161.999 -7c-130.667 -5.33301 -223.334 -25.833 -278.001 -61.5s-82 -90.167 -82 -163.5
c0 -118.667 66.667 -178 200 -178c98 0 176.167 27.167 234.5 81.5s87.5 130.833 87.5 229.5v99zM904.001 1518c-6 -84.667 -35.667 -152 -89 -202s-125.333 -75 -216 -75c-186.667 0 -285.667 92.333 -297 277h109c4.66699 -50.667 20.167 -84.167 46.5 -100.5
s74.166 -24.5 143.499 -24.5c120.667 0 184.334 41.667 191.001 125h112z" />
    <glyph glyph-name="Aogonek" unicode="&#x104;" 
d="M1004 0l-144 453h-491l-146 -453h-190l483 1468h195l485 -1468h-192zM807 618l-133.001 424c-26 82.667 -46.667 158 -62 226c-13.333 -66 -28.666 -127 -45.999 -183l-144 -467h385zM1214 -319v-113.001c-48.667 -15.333 -100.667 -23 -156 -23
c-79.333 0 -140 18.167 -182 54.5s-63 85.833 -63 148.5c0 96 63.333 180 190 252h131c-113.333 -83.333 -170 -162.666 -170 -237.999c0 -64 42.333 -96 127 -96c44 0 85 5 123 15z" />
    <glyph glyph-name="aogonek" unicode="&#x105;" 
d="M895 0l-37 152.001h-8c-51.333 -64.667 -104 -109.5 -158 -134.5s-123.667 -37.5 -209 -37.5c-108.667 0 -193.834 28.667 -255.501 86s-92.5 137.666 -92.5 240.999c0 221.333 170 337.333 510 348l203 7v69c0 157.333 -81.333 236 -244 236
c-98 0 -207.333 -27.333 -328 -82l-63 137c130.667 64 258.334 96 383.001 96c151.333 0 260.833 -29 328.5 -87s101.5 -151 101.5 -279v-752h-131zM846 537.001l-161.999 -7c-130.667 -5.33301 -223.334 -25.833 -278.001 -61.5s-82 -90.167 -82 -163.5
c0 -118.667 66.667 -178 200 -178c98 0 176.167 27.167 234.5 81.5s87.5 130.833 87.5 229.5v99zM1106 -318.999v-113.001c-48.667 -15.333 -100.667 -23 -156 -23c-79.333 0 -140 18.167 -182 54.5s-63 85.833 -63 148.5c0 96 63.333 180 190 252h131
c-113.333 -83.333 -170 -162.666 -170 -237.999c0 -64 42.333 -96 127 -96c44 0 85 5 123 15z" />
    <glyph glyph-name="Cacute" unicode="&#x106;" 
d="M1124 201l-0.00195312 -162.002c-97.333 -39.333 -216.666 -59 -357.999 -59c-206 0 -363.667 65.333 -473 196s-164 316.334 -164 557.001c0 230.667 59.667 413.334 179 548.001s282.333 202 489 202c146.667 0 274.334 -28.667 383.001 -86l-78 -156
c-102.667 52 -204.334 78 -305.001 78c-143.333 0 -257.666 -52.833 -342.999 -158.5s-128 -248.834 -128 -429.501c0 -191.333 40 -337.166 120 -437.499s197 -150.5 351 -150.5c86.667 0 195.667 19.333 327 58zM659.998 1606
c62.667 88.667 120.668 188.999 174.001 300.999h219v-21c-74.667 -115.333 -165.334 -217.666 -272.001 -306.999h-121v27z" />
    <glyph glyph-name="cacute" unicode="&#x107;" 
d="M1061 1059l-62 -158c-100 38 -189.333 57 -268 57c-247.333 0 -371 -137.667 -371 -413c0 -270.667 120.333 -406 361 -406c104.667 0 211.667 20.667 321 62v-160c-89.333 -40.667 -199 -61 -329 -61c-171.333 0 -304.333 48.5 -399 145.5s-142 236.167 -142 417.5
c0 187.333 48.333 330 145 428s232.667 147 408 147c118.667 0 230.667 -19.667 336 -59zM578 1268c62.667 88.667 120.668 188.999 174.001 300.999h219v-21c-74.667 -115.333 -165.334 -217.666 -272.001 -306.999h-121v27z" />
    <glyph glyph-name="Ccircumflex" unicode="&#x108;" 
d="M1124 201l-0.00195312 -162.002c-97.333 -39.333 -216.666 -59 -357.999 -59c-206 0 -363.667 65.333 -473 196s-164 316.334 -164 557.001c0 230.667 59.667 413.334 179 548.001s282.333 202 489 202c146.667 0 274.334 -28.667 383.001 -86l-78 -156
c-102.667 52 -204.334 78 -305.001 78c-143.333 0 -257.666 -52.833 -342.999 -158.5s-128 -248.834 -128 -429.501c0 -191.333 40 -337.166 120 -437.499s197 -150.5 351 -150.5c86.667 0 195.667 19.333 327 58zM1106 1579h-121.002c-56.667 37.333 -127 99.333 -211 186
c-88.667 -90.667 -159 -152.667 -211 -186h-120v27l59 67c92.667 103.333 151.334 181.333 176.001 234h193c24.667 -52.667 83.334 -130.667 176.001 -234l59 -67v-27z" />
    <glyph glyph-name="ccircumflex" unicode="&#x109;" 
d="M1061 1059l-62 -158c-100 38 -189.333 57 -268 57c-247.333 0 -371 -137.667 -371 -413c0 -270.667 120.333 -406 361 -406c104.667 0 211.667 20.667 321 62v-160c-89.333 -40.667 -199 -61 -329 -61c-171.333 0 -304.333 48.5 -399 145.5s-142 236.167 -142 417.5
c0 187.333 48.333 330 145 428s232.667 147 408 147c118.667 0 230.667 -19.667 336 -59zM1030 1241h-121.002c-56.667 37.333 -127 99.333 -211 186c-88.667 -90.667 -159 -152.667 -211 -186h-120v27l59 67c92.667 103.333 151.334 181.333 176.001 234h193
c24.667 -52.667 83.334 -130.667 176.001 -234l59 -67v-27z" />
    <glyph glyph-name="Cdotaccent" unicode="&#x10a;" 
d="M1124 201l-0.00195312 -162.002c-97.333 -39.333 -216.666 -59 -357.999 -59c-206 0 -363.667 65.333 -473 196s-164 316.334 -164 557.001c0 230.667 59.667 413.334 179 548.001s282.333 202 489 202c146.667 0 274.334 -28.667 383.001 -86l-78 -156
c-102.667 52 -204.334 78 -305.001 78c-143.333 0 -257.666 -52.833 -342.999 -158.5s-128 -248.834 -128 -429.501c0 -191.333 40 -337.166 120 -437.499s197 -150.5 351 -150.5c86.667 0 195.667 19.333 327 58zM777.998 1847c71.333 0 107 -38 107 -114
c0 -76.667 -35.667 -115 -107 -115c-70.667 0 -106 38.333 -106 115c0 76 35.333 114 106 114z" />
    <glyph glyph-name="cdotaccent" unicode="&#x10b;" 
d="M1061 1059l-62 -158c-100 38 -189.333 57 -268 57c-247.333 0 -371 -137.667 -371 -413c0 -270.667 120.333 -406 361 -406c104.667 0 211.667 20.667 321 62v-160c-89.333 -40.667 -199 -61 -329 -61c-171.333 0 -304.333 48.5 -399 145.5s-142 236.167 -142 417.5
c0 187.333 48.333 330 145 428s232.667 147 408 147c118.667 0 230.667 -19.667 336 -59zM698 1509c71.333 0 107 -38 107 -114c0 -76.667 -35.667 -115 -107 -115c-70.667 0 -106 38.333 -106 115c0 76 35.333 114 106 114z" />
    <glyph glyph-name="Ccaron" unicode="&#x10c;" 
d="M1124 201l-0.00195312 -162.002c-97.333 -39.333 -216.666 -59 -357.999 -59c-206 0 -363.667 65.333 -473 196s-164 316.334 -164 557.001c0 230.667 59.667 413.334 179 548.001s282.333 202 489 202c146.667 0 274.334 -28.667 383.001 -86l-78 -156
c-102.667 52 -204.334 78 -305.001 78c-143.333 0 -257.666 -52.833 -342.999 -158.5s-128 -248.834 -128 -429.501c0 -191.333 40 -337.166 120 -437.499s197 -150.5 351 -150.5c86.667 0 195.667 19.333 327 58zM1100 1880l-58.999 -66.999
c-94 -105.333 -152.667 -183.333 -176 -234h-193c-23.333 50.667 -82 128.667 -176 234l-59 67v27h120c54.667 -36 125 -98.333 211 -187c81.333 85.333 151.666 147.666 210.999 186.999h121v-27z" />
    <glyph glyph-name="ccaron" unicode="&#x10d;" 
d="M1061 1059l-62 -158c-100 38 -189.333 57 -268 57c-247.333 0 -371 -137.667 -371 -413c0 -270.667 120.333 -406 361 -406c104.667 0 211.667 20.667 321 62v-160c-89.333 -40.667 -199 -61 -329 -61c-171.333 0 -304.333 48.5 -399 145.5s-142 236.167 -142 417.5
c0 187.333 48.333 330 145 428s232.667 147 408 147c118.667 0 230.667 -19.667 336 -59zM1038 1542l-58.999 -66.999c-94 -105.333 -152.667 -183.333 -176 -234h-193c-23.333 50.667 -82 128.667 -176 234l-59 67v27h120c54.667 -36 125 -98.333 211 -187
c81.333 85.333 151.666 147.666 210.999 186.999h121v-27z" />
    <glyph glyph-name="Dcaron" unicode="&#x10e;" 
d="M135 0v1462h342c211.333 0 375.833 -63 493.5 -189s176.5 -302 176.5 -528c0 -240.667 -61 -425 -183 -553s-298 -192 -528 -192h-301zM322 1303v-1143h96c354.667 0 532 193 532 579c0 376 -164.333 564 -493 564h-135zM937 1880l-58.999 -66.999
c-94 -105.333 -152.667 -183.333 -176 -234h-193c-23.333 50.667 -82 128.667 -176 234l-59 67v27h120c54.667 -36 125 -98.333 211 -187c81.333 85.333 151.666 147.666 210.999 186.999h121v-27z" />
    <glyph glyph-name="dcaron" unicode="&#x10f;" 
d="M839 147l-8 -0.000976562c-75.333 -111.333 -182.666 -167 -321.999 -167c-134 0 -239.167 49.833 -315.5 149.5s-114.5 238.834 -114.5 417.501c0 180 38.333 320.167 115 420.5s181.667 150.5 315 150.5c137.333 0 244.666 -53.333 321.999 -160h12
c-8 86 -12 140 -12 162v436h182v-1556h-147zM831 505.999v41.001c0 151.333 -23.167 259.166 -69.5 323.499s-120.166 96.5 -221.499 96.5c-181.333 0 -272 -140.667 -272 -422c0 -276 91.333 -414 274 -414c101.333 0 174.166 29.5 218.499 88.5s67.833 154.5 70.5 286.5z
M1074 1255l26 107c17.333 77.333 29 142 35 194h180v-20c0 -9.33301 -14 -47 -42 -113s-62.333 -130.667 -103 -194h-96v26z" />
    <glyph glyph-name="Dcroat" unicode="&#x110;" 
d="M135 0v659h-135v162h135v641h342c211.333 0 375.833 -63 493.5 -189s176.5 -302 176.5 -528c0 -240.667 -61 -425 -183 -553s-298 -192 -528 -192h-301zM322 1303v-482h380v-162h-380v-499h96c354.667 0 532 193 532 579c0 376 -164.333 564 -493 564h-135z" />
    <glyph glyph-name="dcroat" unicode="&#x111;" 
d="M897 147h-8.00098c-75.333 -111.333 -182.666 -167 -321.999 -167c-134 0 -239.167 48 -315.5 144s-114.5 230 -114.5 402c0 173.333 38.333 308.5 115 405.5s181.667 145.5 315 145.5c138.667 0 246 -53 322 -159h12c-8 84 -12 137.667 -12 161v158h-379v137h379v182
h182v-182h156v-137h-156v-1237h-147zM888.999 487l-0.00292969 39c0 144 -23.167 246.667 -69.5 308s-120.166 92 -221.499 92c-181.333 0 -272 -134 -272 -402c0 -262 91.333 -393 274 -393c100.667 0 173.334 27.667 218.001 83s68.334 146.333 71.001 273z" />
    <glyph glyph-name="Emacron" unicode="&#x112;" 
d="M1059 0h-842v1462h842v-164h-656v-452h617v-162h-617v-520h656v-164zM336 1729h575v-150h-575v150z" />
    <glyph glyph-name="emacron" unicode="&#x113;" 
d="M1096 514l-773.998 -0.000976562c5.33301 -250 120 -375 344 -375c130 0 253.333 25.333 370 76v-160c-110.667 -50 -232 -75 -364 -75c-163.333 0 -294 49.833 -392 149.5s-147 236.834 -147 411.501c0 177.333 45.167 317.833 135.5 421.5s211.166 155.5 362.499 155.5
c141.333 0 254.166 -44.667 338.499 -134s126.5 -208.333 126.5 -357v-113zM326.002 661.999h572.999c0 203.333 -90.667 305 -272 305c-183.333 0 -283.666 -101.667 -300.999 -305zM346.001 1391h575v-150h-575v150z" />
    <glyph glyph-name="Ebreve" unicode="&#x114;" 
d="M1059 0h-842v1462h842v-164h-656v-452h617v-162h-617v-520h656v-164zM944 1856c-6 -84.667 -35.667 -152 -89 -202s-125.333 -75 -216 -75c-186.667 0 -285.667 92.333 -297 277h109c4.66699 -50.667 20.167 -84.167 46.5 -100.5s74.166 -24.5 143.499 -24.5
c120.667 0 184.334 41.667 191.001 125h112z" />
    <glyph glyph-name="ebreve" unicode="&#x115;" 
d="M1096 514l-773.998 -0.000976562c5.33301 -250 120 -375 344 -375c130 0 253.333 25.333 370 76v-160c-110.667 -50 -232 -75 -364 -75c-163.333 0 -294 49.833 -392 149.5s-147 236.834 -147 411.501c0 177.333 45.167 317.833 135.5 421.5s211.166 155.5 362.499 155.5
c141.333 0 254.166 -44.667 338.499 -134s126.5 -208.333 126.5 -357v-113zM326.002 661.999h572.999c0 203.333 -90.667 305 -272 305c-183.333 0 -283.666 -101.667 -300.999 -305zM931.001 1518c-6 -84.667 -35.667 -152 -89 -202s-125.333 -75 -216 -75
c-186.667 0 -285.667 92.333 -297 277h109c4.66699 -50.667 20.167 -84.167 46.5 -100.5s74.166 -24.5 143.499 -24.5c120.667 0 184.334 41.667 191.001 125h112z" />
    <glyph glyph-name="Edotaccent" unicode="&#x116;" 
d="M1059 0h-842v1462h842v-164h-656v-452h617v-162h-617v-520h656v-164zM649 1818c71.333 0 107 -38 107 -114c0 -76.667 -35.667 -115 -107 -115c-70.667 0 -106 38.333 -106 115c0 76 35.333 114 106 114z" />
    <glyph glyph-name="edotaccent" unicode="&#x117;" 
d="M1096 514l-773.998 -0.000976562c5.33301 -250 120 -375 344 -375c130 0 253.333 25.333 370 76v-160c-110.667 -50 -232 -75 -364 -75c-163.333 0 -294 49.833 -392 149.5s-147 236.834 -147 411.501c0 177.333 45.167 317.833 135.5 421.5s211.166 155.5 362.499 155.5
c141.333 0 254.166 -44.667 338.499 -134s126.5 -208.333 126.5 -357v-113zM326.002 661.999h572.999c0 203.333 -90.667 305 -272 305c-183.333 0 -283.666 -101.667 -300.999 -305zM637.001 1509c71.333 0 107 -38 107 -114c0 -76.667 -35.667 -115 -107 -115
c-70.667 0 -106 38.333 -106 115c0 76 35.333 114 106 114z" />
    <glyph glyph-name="Eogonek" unicode="&#x118;" 
d="M1059 0h-842v1462h842v-164h-656v-452h617v-162h-617v-520h656v-164zM1020 -319v-113.001c-48.667 -15.333 -100.667 -23 -156 -23c-79.333 0 -140 18.167 -182 54.5s-63 85.833 -63 148.5c0 96 63.333 180 190 252h131c-113.333 -83.333 -170 -162.666 -170 -237.999
c0 -64 42.333 -96 127 -96c44 0 85 5 123 15z" />
    <glyph glyph-name="eogonek" unicode="&#x119;" 
d="M1096 514l-773.998 -0.000976562c5.33301 -250 120 -375 344 -375c130 0 253.333 25.333 370 76v-160c-110.667 -50 -232 -75 -364 -75c-163.333 0 -294 49.833 -392 149.5s-147 236.834 -147 411.501c0 177.333 45.167 317.833 135.5 421.5s211.166 155.5 362.499 155.5
c141.333 0 254.166 -44.667 338.499 -134s126.5 -208.333 126.5 -357v-113zM326.002 661.999h572.999c0 203.333 -90.667 305 -272 305c-183.333 0 -283.666 -101.667 -300.999 -305zM1042 -288.001v-113.001c-48.667 -15.333 -100.667 -23 -156 -23
c-79.333 0 -140 18.167 -182 54.5s-63 85.833 -63 148.5c0 96 63.333 180 190 252h131c-113.333 -83.333 -170 -162.666 -170 -237.999c0 -64 42.333 -96 127 -96c44 0 85 5 123 15z" />
    <glyph glyph-name="Ecaron" unicode="&#x11a;" 
d="M1059 0h-842v1462h842v-164h-656v-452h617v-162h-617v-520h656v-164zM981 1880l-58.999 -66.999c-94 -105.333 -152.667 -183.333 -176 -234h-193c-23.333 50.667 -82 128.667 -176 234l-59 67v27h120c54.667 -36 125 -98.333 211 -187
c81.333 85.333 151.666 147.666 210.999 186.999h121v-27z" />
    <glyph glyph-name="ecaron" unicode="&#x11b;" 
d="M1096 514l-773.998 -0.000976562c5.33301 -250 120 -375 344 -375c130 0 253.333 25.333 370 76v-160c-110.667 -50 -232 -75 -364 -75c-163.333 0 -294 49.833 -392 149.5s-147 236.834 -147 411.501c0 177.333 45.167 317.833 135.5 421.5s211.166 155.5 362.499 155.5
c141.333 0 254.166 -44.667 338.499 -134s126.5 -208.333 126.5 -357v-113zM326.002 661.999h572.999c0 203.333 -90.667 305 -272 305c-183.333 0 -283.666 -101.667 -300.999 -305zM971.001 1542l-58.999 -66.999c-94 -105.333 -152.667 -183.333 -176 -234h-193
c-23.333 50.667 -82 128.667 -176 234l-59 67v27h120c54.667 -36 125 -98.333 211 -187c81.333 85.333 151.666 147.666 210.999 186.999h121v-27z" />
    <glyph glyph-name="Gcircumflex" unicode="&#x11c;" 
d="M672 772l421.999 0.000976562v-717c-130 -50 -270 -75 -420 -75c-174.667 0 -311.167 66.5 -409.5 199.5s-147.5 317.5 -147.5 553.5c0 234 54 417.5 162 550.5s256.667 199.5 446 199.5c128 0 243.333 -28.667 346 -86l-72 -162c-97.333 56 -190.666 84 -279.999 84
c-128 0 -227.667 -51.833 -299 -155.5s-107 -247.834 -107 -432.501c0 -392 131.333 -588 394 -588c64.667 0 132 9.66699 202 29v436h-237v164zM1026 1579h-121.002c-56.667 37.333 -127 99.333 -211 186c-88.667 -90.667 -159 -152.667 -211 -186h-120v27l59 67
c92.667 103.333 151.334 181.333 176.001 234h193c24.667 -52.667 83.334 -130.667 176.001 -234l59 -67v-27z" />
    <glyph glyph-name="gcircumflex" unicode="&#x11d;" 
d="M1126 1098l0.000976562 -113.002l-196 -27c43.333 -56.667 65 -127.667 65 -213c0 -107.333 -35.5 -192.833 -106.5 -256.5s-169.833 -95.5 -296.5 -95.5c-36.667 0 -65.334 2 -86.001 6c-66.667 -37.333 -100 -81.666 -100 -132.999c0 -56 53.667 -84 161 -84h187
c116 0 204.667 -25.667 266 -77s92 -124.666 92 -219.999c0 -251.333 -188.333 -377 -565 -377c-145.333 0 -255.833 26.833 -331.5 80.5s-113.5 128.834 -113.5 225.501c0 141.333 80 231.333 240 270c-64 31.333 -96 82.666 -96 153.999c0 74.667 44.333 138.667 133 192
c-59.333 24.667 -106 65.5 -140 122.5s-51 119.167 -51 186.5c0 121.333 35.5 214.833 106.5 280.5s172.167 98.5 303.5 98.5c57.333 0 107.333 -6.66699 150 -20h378zM594.001 517.998c148.667 0 223 76.667 223 230c0 159.333 -75 239 -225 239s-225 -80.667 -225 -242
c0 -151.333 75.667 -227 227 -227zM692.001 17.998h-188c-153.333 0 -230 -66 -230 -198c0 -116 90.333 -174 271 -174c263.333 0 395 74.333 395 223c0 58.667 -16.667 98.167 -50 118.5s-99.333 30.5 -198 30.5zM937.001 1241h-121.002
c-56.667 37.333 -127 99.333 -211 186c-88.667 -90.667 -159 -152.667 -211 -186h-120v27l59 67c92.667 103.333 151.334 181.333 176.001 234h193c24.667 -52.667 83.334 -130.667 176.001 -234l59 -67v-27z" />
    <glyph glyph-name="Gbreve" unicode="&#x11e;" 
d="M672 772l421.999 0.000976562v-717c-130 -50 -270 -75 -420 -75c-174.667 0 -311.167 66.5 -409.5 199.5s-147.5 317.5 -147.5 553.5c0 234 54 417.5 162 550.5s256.667 199.5 446 199.5c128 0 243.333 -28.667 346 -86l-72 -162c-97.333 56 -190.666 84 -279.999 84
c-128 0 -227.667 -51.833 -299 -155.5s-107 -247.834 -107 -432.501c0 -392 131.333 -588 394 -588c64.667 0 132 9.66699 202 29v436h-237v164zM1013 1856c-6 -84.667 -35.667 -152 -89 -202s-125.333 -75 -216 -75c-186.667 0 -285.667 92.333 -297 277h109
c4.66699 -50.667 20.167 -84.167 46.5 -100.5s74.166 -24.5 143.499 -24.5c120.667 0 184.334 41.667 191.001 125h112z" />
    <glyph glyph-name="gbreve" unicode="&#x11f;" 
d="M1126 1098l0.000976562 -113.002l-196 -27c43.333 -56.667 65 -127.667 65 -213c0 -107.333 -35.5 -192.833 -106.5 -256.5s-169.833 -95.5 -296.5 -95.5c-36.667 0 -65.334 2 -86.001 6c-66.667 -37.333 -100 -81.666 -100 -132.999c0 -56 53.667 -84 161 -84h187
c116 0 204.667 -25.667 266 -77s92 -124.666 92 -219.999c0 -251.333 -188.333 -377 -565 -377c-145.333 0 -255.833 26.833 -331.5 80.5s-113.5 128.834 -113.5 225.501c0 141.333 80 231.333 240 270c-64 31.333 -96 82.666 -96 153.999c0 74.667 44.333 138.667 133 192
c-59.333 24.667 -106 65.5 -140 122.5s-51 119.167 -51 186.5c0 121.333 35.5 214.833 106.5 280.5s172.167 98.5 303.5 98.5c57.333 0 107.333 -6.66699 150 -20h378zM594.001 517.998c148.667 0 223 76.667 223 230c0 159.333 -75 239 -225 239s-225 -80.667 -225 -242
c0 -151.333 75.667 -227 227 -227zM692.001 17.998h-188c-153.333 0 -230 -66 -230 -198c0 -116 90.333 -174 271 -174c263.333 0 395 74.333 395 223c0 58.667 -16.667 98.167 -50 118.5s-99.333 30.5 -198 30.5zM902.001 1518c-6 -84.667 -35.667 -152 -89 -202
s-125.333 -75 -216 -75c-186.667 0 -285.667 92.333 -297 277h109c4.66699 -50.667 20.167 -84.167 46.5 -100.5s74.166 -24.5 143.499 -24.5c120.667 0 184.334 41.667 191.001 125h112z" />
    <glyph glyph-name="Gdotaccent" unicode="&#x120;" 
d="M672 772l421.999 0.000976562v-717c-130 -50 -270 -75 -420 -75c-174.667 0 -311.167 66.5 -409.5 199.5s-147.5 317.5 -147.5 553.5c0 234 54 417.5 162 550.5s256.667 199.5 446 199.5c128 0 243.333 -28.667 346 -86l-72 -162c-97.333 56 -190.666 84 -279.999 84
c-128 0 -227.667 -51.833 -299 -155.5s-107 -247.834 -107 -432.501c0 -392 131.333 -588 394 -588c64.667 0 132 9.66699 202 29v436h-237v164zM722.999 1847c71.333 0 107 -38 107 -114c0 -76.667 -35.667 -115 -107 -115c-70.667 0 -106 38.333 -106 115
c0 76 35.333 114 106 114z" />
    <glyph glyph-name="gdotaccent" unicode="&#x121;" 
d="M1126 1098l0.000976562 -113.002l-196 -27c43.333 -56.667 65 -127.667 65 -213c0 -107.333 -35.5 -192.833 -106.5 -256.5s-169.833 -95.5 -296.5 -95.5c-36.667 0 -65.334 2 -86.001 6c-66.667 -37.333 -100 -81.666 -100 -132.999c0 -56 53.667 -84 161 -84h187
c116 0 204.667 -25.667 266 -77s92 -124.666 92 -219.999c0 -251.333 -188.333 -377 -565 -377c-145.333 0 -255.833 26.833 -331.5 80.5s-113.5 128.834 -113.5 225.501c0 141.333 80 231.333 240 270c-64 31.333 -96 82.666 -96 153.999c0 74.667 44.333 138.667 133 192
c-59.333 24.667 -106 65.5 -140 122.5s-51 119.167 -51 186.5c0 121.333 35.5 214.833 106.5 280.5s172.167 98.5 303.5 98.5c57.333 0 107.333 -6.66699 150 -20h378zM594.001 517.998c148.667 0 223 76.667 223 230c0 159.333 -75 239 -225 239s-225 -80.667 -225 -242
c0 -151.333 75.667 -227 227 -227zM692.001 17.998h-188c-153.333 0 -230 -66 -230 -198c0 -116 90.333 -174 271 -174c263.333 0 395 74.333 395 223c0 58.667 -16.667 98.167 -50 118.5s-99.333 30.5 -198 30.5zM613.001 1509c71.333 0 107 -38 107 -114
c0 -76.667 -35.667 -115 -107 -115c-70.667 0 -106 38.333 -106 115c0 76 35.333 114 106 114z" />
    <glyph glyph-name="Gcommaaccent" unicode="&#x122;" 
d="M672 772l421.999 0.000976562v-717c-130 -50 -270 -75 -420 -75c-174.667 0 -311.167 66.5 -409.5 199.5s-147.5 317.5 -147.5 553.5c0 234 54 417.5 162 550.5s256.667 199.5 446 199.5c128 0 243.333 -28.667 346 -86l-72 -162c-97.333 56 -190.666 84 -279.999 84
c-128 0 -227.667 -51.833 -299 -155.5s-107 -247.834 -107 -432.501c0 -392 131.333 -588 394 -588c64.667 0 132 9.66699 202 29v436h-237v164zM539.999 -425.999c41.333 93.333 69.333 193.667 84 301h178v-20c0 -14.667 -16 -56 -48 -124s-70.333 -129.333 -115 -184h-99
v27z" />
    <glyph glyph-name="gcommaaccent" unicode="&#x123;" 
d="M1126 1098l0.000976562 -113.002l-196 -27c43.333 -56.667 65 -127.667 65 -213c0 -107.333 -35.5 -192.833 -106.5 -256.5s-169.833 -95.5 -296.5 -95.5c-36.667 0 -65.334 2 -86.001 6c-66.667 -37.333 -100 -81.666 -100 -132.999c0 -56 53.667 -84 161 -84h187
c116 0 204.667 -25.667 266 -77s92 -124.666 92 -219.999c0 -251.333 -188.333 -377 -565 -377c-145.333 0 -255.833 26.833 -331.5 80.5s-113.5 128.834 -113.5 225.501c0 141.333 80 231.333 240 270c-64 31.333 -96 82.666 -96 153.999c0 74.667 44.333 138.667 133 192
c-59.333 24.667 -106 65.5 -140 122.5s-51 119.167 -51 186.5c0 121.333 35.5 214.833 106.5 280.5s172.167 98.5 303.5 98.5c57.333 0 107.333 -6.66699 150 -20h378zM594.001 517.998c148.667 0 223 76.667 223 230c0 159.333 -75 239 -225 239s-225 -80.667 -225 -242
c0 -151.333 75.667 -227 227 -227zM692.001 17.998h-188c-153.333 0 -230 -66 -230 -198c0 -116 90.333 -174 271 -174c263.333 0 395 74.333 395 223c0 58.667 -16.667 98.167 -50 118.5s-99.333 30.5 -198 30.5zM790.001 1542c-42 -102 -69.667 -202.333 -83 -301h-179v21
c0 11.333 15.167 50.5 45.5 117.5s69.833 130.167 118.5 189.5h98v-27z" />
    <glyph glyph-name="Hcircumflex" unicode="&#x124;" 
d="M1094 0h-187v682h-585v-682h-187v1462h187v-616h585v616h187v-1462zM946 1579h-121.002c-56.667 37.333 -127 99.333 -211 186c-88.667 -90.667 -159 -152.667 -211 -186h-120v27l59 67c92.667 103.333 151.334 181.333 176.001 234h193
c24.667 -52.667 83.334 -130.667 176.001 -234l59 -67v-27z" />
    <glyph glyph-name="hcircumflex" unicode="&#x125;" 
d="M887 0v707c0 173.333 -79.333 260 -238 260c-204.667 0 -307 -132.667 -307 -398v-569h-182v1556h182v-462l-8 -144h10c68.667 112 180.667 168 336 168c259.333 0 389 -133.667 389 -401v-717h-182zM960 1634h-121.002c-56.667 37.333 -127 99.333 -211 186
c-88.667 -90.667 -159 -152.667 -211 -186h-120v27l59 67c92.667 103.333 151.334 181.333 176.001 234h193c24.667 -52.667 83.334 -130.667 176.001 -234l59 -67v-27z" />
    <glyph glyph-name="Hbar" unicode="&#x126;" 
d="M135 1219v243h187v-243h585v243h187v-243h135v-150h-135v-1069h-187v682h-585v-682h-187v1069h-135v150h135zM907 846v223h-585v-223h585z" />
    <glyph glyph-name="hbar" unicode="&#x127;" 
d="M887 0v666c0 173.333 -78.667 260 -236 260c-108 0 -186.5 -31.167 -235.5 -93.5s-73.5 -163.833 -73.5 -304.5v-528h-182v1237h-156v137h156v182h184v-182h418v-137h-420v-184l-10 -144h10c72 112 187.333 168 346 168c128 0 223.5 -31.833 286.5 -95.5
s94.5 -165.5 94.5 -305.5v-676h-182z" />
    <glyph glyph-name="Itilde" unicode="&#x128;" 
d="M1001 0h-776v123l295 20v1176l-295 20v123h776v-123l-294 -20v-1176l294 -20v-123zM358 1579h-103.998c16.667 176 87 264 211 264c38.667 0 92.334 -18.667 161.001 -56c68 -37.333 113.333 -56 136 -56c53.333 0 88.666 38 105.999 114h105
c-18 -176 -88.333 -264 -211 -264c-38 0 -90.333 19 -157 57c-66.667 37.333 -113.334 56 -140.001 56c-54.667 0 -90.334 -38.333 -107.001 -115z" />
    <glyph glyph-name="itilde" unicode="&#x129;" 
d="M541 954l-269 21v123h451v-955l352 -20v-123h-878v123l344 20v811zM355 1241h-103.998c16.667 176 87 264 211 264c38.667 0 92.334 -18.667 161.001 -56c68 -37.333 113.333 -56 136 -56c53.333 0 88.666 38 105.999 114h105c-18 -176 -88.333 -264 -211 -264
c-38 0 -90.333 19 -157 57c-66.667 37.333 -113.334 56 -140.001 56c-54.667 0 -90.334 -38.333 -107.001 -115z" />
    <glyph glyph-name="Imacron" unicode="&#x12a;" 
d="M1001 0h-776v123l295 20v1176l-295 20v123h776v-123l-294 -20v-1176l294 -20v-123zM328 1729h575v-150h-575v150z" />
    <glyph glyph-name="imacron" unicode="&#x12b;" 
d="M541 954l-269 21v123h451v-955l352 -20v-123h-878v123l344 20v811zM326 1391h575v-150h-575v150z" />
    <glyph glyph-name="Ibreve" unicode="&#x12c;" 
d="M1001 0h-776v123l295 20v1176l-295 20v123h776v-123l-294 -20v-1176l294 -20v-123zM915 1856c-6 -84.667 -35.667 -152 -89 -202s-125.333 -75 -216 -75c-186.667 0 -285.667 92.333 -297 277h109c4.66699 -50.667 20.167 -84.167 46.5 -100.5
s74.166 -24.5 143.499 -24.5c120.667 0 184.334 41.667 191.001 125h112z" />
    <glyph glyph-name="ibreve" unicode="&#x12d;" 
d="M541 954l-269 21v123h451v-955l352 -20v-123h-878v123l344 20v811zM940 1518c-6 -84.667 -35.667 -152 -89 -202s-125.333 -75 -216 -75c-186.667 0 -285.667 92.333 -297 277h109c4.66699 -50.667 20.167 -84.167 46.5 -100.5s74.166 -24.5 143.499 -24.5
c120.667 0 184.334 41.667 191.001 125h112z" />
    <glyph glyph-name="Iogonek" unicode="&#x12e;" 
d="M1001 0h-776v123l295 20v1176l-295 20v123h776v-123l-294 -20v-1176l294 -20v-123zM823 -319v-113.001c-48.667 -15.333 -100.667 -23 -156 -23c-79.333 0 -140 18.167 -182 54.5s-63 85.833 -63 148.5c0 96 63.333 180 190 252h131
c-113.333 -83.333 -170 -162.666 -170 -237.999c0 -64 42.333 -96 127 -96c44 0 85 5 123 15z" />
    <glyph glyph-name="iogonek" unicode="&#x12f;" 
d="M633 1550c70.667 0 106 -38 106 -114c0 -38.667 -10.5 -67.5 -31.5 -86.5s-45.833 -28.5 -74.5 -28.5c-71.333 0 -107 38.333 -107 115c0 76 35.667 114 107 114zM541 954l-269 21v123h451v-955l352 -20v-123h-878v123l344 20v811zM840 -319v-113.001
c-48.667 -15.333 -100.667 -23 -156 -23c-79.333 0 -140 18.167 -182 54.5s-63 85.833 -63 148.5c0 96 63.333 180 190 252h131c-113.333 -83.333 -170 -162.666 -170 -237.999c0 -64 42.333 -96 127 -96c44 0 85 5 123 15z" />
    <glyph glyph-name="Idotaccent" unicode="&#x130;" 
d="M1001 0h-776v123l295 20v1176l-295 20v123h776v-123l-294 -20v-1176l294 -20v-123zM614 1847c71.333 0 107 -38 107 -114c0 -76.667 -35.667 -115 -107 -115c-70.667 0 -106 38.333 -106 115c0 76 35.333 114 106 114z" />
    <glyph glyph-name="dotlessi" unicode="&#x131;" 
d="M541 954l-269 21v123h451v-955l352 -20v-123h-878v123l344 20v811z" />
    <glyph glyph-name="IJ" unicode="&#x132;" 
d="M156 0v1462h186v-1462h-186zM492 23v163c62 -30 124 -45 186 -45c129.333 0 194 94.333 194 283v1038h187v-1026c0 -304 -121.667 -456 -365 -456c-88.667 0 -156 14.333 -202 43z" />
    <glyph glyph-name="ij" unicode="&#x133;" 
d="M295 1550c70.667 0 106 -38 106 -114c0 -38.667 -10.5 -67.5 -31.5 -86.5s-45.833 -28.5 -74.5 -28.5c-71.333 0 -107 38.333 -107 115c0 76 35.667 114 107 114zM928 1550c70.667 0 106 -38 106 -114c0 -38.667 -10.5 -67.5 -31.5 -86.5s-45.833 -28.5 -74.5 -28.5
c-71.333 0 -107 38.333 -107 115c0 76 35.667 114 107 114zM203 1098h182v-1098h-182v1098zM502 -457l0.000976562 153.999c58.667 -26 122 -39 190 -39c109.333 0 164 71.667 164 215v1081l-215 21v123h397v-1215c0 -121.333 -28.333 -214.166 -85 -278.499
s-135.334 -96.5 -236.001 -96.5c-82 0 -153.667 11.667 -215 35z" />
    <glyph glyph-name="Jcircumflex" unicode="&#x134;" 
d="M137 39v166c108 -41.333 211 -62 309 -62c107.333 0 192 26.5 254 79.5s93 128.5 93 226.5v1013h186v-1011c0 -144 -46.833 -258.5 -140.5 -343.5s-219.5 -127.5 -377.5 -127.5c-144.667 0 -252.667 19.667 -324 59zM1214 1579h-121.002
c-56.667 37.333 -127 99.333 -211 186c-88.667 -90.667 -159 -152.667 -211 -186h-120v27l59 67c92.667 103.333 151.334 181.333 176.001 234h193c24.667 -52.667 83.334 -130.667 176.001 -234l59 -67v-27z" />
    <glyph glyph-name="jcircumflex" unicode="&#x135;" 
d="M966 1241h-121.002c-56.667 37.333 -127 99.333 -211 186c-88.667 -90.667 -159 -152.667 -211 -186h-120v27l59 67c92.667 103.333 151.334 181.333 176.001 234h193c24.667 -52.667 83.334 -130.667 176.001 -234l59 -67v-27zM134.998 -457v154
c89.333 -26 185.666 -39 288.999 -39c78 0 138.833 19 182.5 57s65.5 90.667 65.5 158v1081l-420 21v123h602v-1215c0 -120 -37.667 -212.5 -113 -277.5s-181.666 -97.5 -318.999 -97.5c-109.333 0 -205 11.667 -287 35z" />
    <glyph glyph-name="Kcommaaccent" unicode="&#x136;" 
d="M1198 0h-211l-450 698l-140 -114v-584h-186v1462h186v-731l121 168l453 563h209l-521 -637zM510 -426c41.333 93.333 69.333 193.667 84 301h178v-20c0 -14.667 -16 -56 -48 -124s-70.333 -129.333 -115 -184h-99v27z" />
    <glyph glyph-name="kcommaaccent" unicode="&#x137;" 
d="M383 553l135 152l395 393h222l-494 -475l522 -623h-213l-426 504l-129 -82v-422h-180v1556h180v-714l-16 -289h4zM485 -426c41.333 93.333 69.333 193.667 84 301h178v-20c0 -14.667 -16 -56 -48 -124s-70.333 -129.333 -115 -184h-99v27z" />
    <glyph glyph-name="kgreenlandic" unicode="&#x138;" 
d="M383 508l137 166l402 424h213l-494 -510l522 -588h-213l-426 469l-129 -82v-387h-180v1098h180v-291l-16 -299h4z" />
    <glyph glyph-name="Lacute" unicode="&#x139;" 
d="M233 0v1462h187v-1296h635v-166h-822zM263 1606c62.667 88.667 120.668 188.999 174.001 300.999h219v-21c-74.667 -115.333 -165.334 -217.666 -272.001 -306.999h-121v27z" />
    <glyph glyph-name="lacute" unicode="&#x13a;" 
d="M532 1413l-268 21v122h451v-1413l352 -20v-123h-879v123l344 20v1270zM496 1663c62.667 88.667 120.668 188.999 174.001 300.999h219v-21c-74.667 -115.333 -165.334 -217.666 -272.001 -306.999h-121v27z" />
    <glyph glyph-name="Lcommaaccent" unicode="&#x13b;" 
d="M233 0v1462h187v-1296h635v-166h-822zM491 -426c41.333 93.333 69.333 193.667 84 301h178v-20c0 -14.667 -16 -56 -48 -124s-70.333 -129.333 -115 -184h-99v27z" />
    <glyph glyph-name="lcommaaccent" unicode="&#x13c;" 
d="M532 1413l-268 21v122h451v-1413l352 -20v-123h-879v123l344 20v1270zM461 -426c41.333 93.333 69.333 193.667 84 301h178v-20c0 -14.667 -16 -56 -48 -124s-70.333 -129.333 -115 -184h-99v27z" />
    <glyph glyph-name="Lcaron" unicode="&#x13d;" 
d="M233 0v1462h187v-1296h635v-166h-822zM750 1162l26 107c17.333 77.333 29 142 35 194h180v-20c0 -9.33301 -14 -47 -42 -113s-62.333 -130.667 -103 -194h-96v26z" />
    <glyph glyph-name="lcaron" unicode="&#x13e;" 
d="M532 1413l-268 21v122h451v-1413l352 -20v-123h-879v123l344 20v1270zM865 1255l26 107c17.333 77.333 29 142 35 194h180v-20c0 -9.33301 -14 -47 -42 -113s-62.333 -130.667 -103 -194h-96v26z" />
    <glyph glyph-name="Ldot" unicode="&#x13f;" 
d="M233 0v1462h187v-1296h635v-166h-822zM856 889c71.333 0 107 -38 107 -114c0 -76.667 -35.667 -115 -107 -115c-70.667 0 -106 38.333 -106 115c0 76 35.333 114 106 114z" />
    <glyph glyph-name="ldot" unicode="&#x140;" 
d="M532 1413l-268 21v122h451v-1413l352 -20v-123h-879v123l344 20v1270zM972 797c71.333 0 107 -38 107 -114c0 -76.667 -35.667 -115 -107 -115c-70.667 0 -106 38.333 -106 115c0 76 35.333 114 106 114z" />
    <glyph glyph-name="Lslash" unicode="&#x141;" 
d="M270 0v492l-125 -78l-73 125l198 125v798h187v-680l299 189l78 -125l-377 -238v-442h635v-166h-822z" />
    <glyph glyph-name="lslash" unicode="&#x142;" 
d="M532 592l-141 -92l-78 121l219 143v649l-268 21v122h451v-673l164 108l77 -121l-241 -159v-568l352 -20v-123h-879v123l344 20v449z" />
    <glyph glyph-name="Nacute" unicode="&#x143;" 
d="M1092 0h-215l-580 1210h-8c12 -184.667 18 -323.667 18 -417v-793h-172v1462h213l578 -1204h6c-9.33301 202 -14 336.667 -14 404v800h174v-1462zM516 1606c62.667 88.667 120.668 188.999 174.001 300.999h219v-21
c-74.667 -115.333 -165.334 -217.666 -272.001 -306.999h-121v27z" />
    <glyph glyph-name="nacute" unicode="&#x144;" 
d="M887 0v707c0 173.333 -79.333 260 -238 260c-204.667 0 -307 -132.667 -307 -398v-569h-182v1098h147l27 -148h10c68.667 112 180.667 168 336 168c259.333 0 389 -133.667 389 -401v-717h-182zM529 1268c62.667 88.667 120.668 188.999 174.001 300.999h219v-21
c-74.667 -115.333 -165.334 -217.666 -272.001 -306.999h-121v27z" />
    <glyph glyph-name="Ncommaaccent" unicode="&#x145;" 
d="M1092 0h-215l-580 1210h-8c12 -184.667 18 -323.667 18 -417v-793h-172v1462h213l578 -1204h6c-9.33301 202 -14 336.667 -14 404v800h174v-1462zM433 -426c41.333 93.333 69.333 193.667 84 301h178v-20c0 -14.667 -16 -56 -48 -124s-70.333 -129.333 -115 -184h-99v27z
" />
    <glyph glyph-name="ncommaaccent" unicode="&#x146;" 
d="M887 0v707c0 173.333 -79.333 260 -238 260c-204.667 0 -307 -132.667 -307 -398v-569h-182v1098h147l27 -148h10c68.667 112 180.667 168 336 168c259.333 0 389 -133.667 389 -401v-717h-182zM455 -426c41.333 93.333 69.333 193.667 84 301h178v-20
c0 -14.667 -16 -56 -48 -124s-70.333 -129.333 -115 -184h-99v27z" />
    <glyph glyph-name="Ncaron" unicode="&#x147;" 
d="M1092 0h-215l-580 1210h-8c12 -184.667 18 -323.667 18 -417v-793h-172v1462h213l578 -1204h6c-9.33301 202 -14 336.667 -14 404v800h174v-1462zM943 1880l-58.999 -66.999c-94 -105.333 -152.667 -183.333 -176 -234h-193c-23.333 50.667 -82 128.667 -176 234l-59 67
v27h120c54.667 -36 125 -98.333 211 -187c81.333 85.333 151.666 147.666 210.999 186.999h121v-27z" />
    <glyph glyph-name="ncaron" unicode="&#x148;" 
d="M887 0v707c0 173.333 -79.333 260 -238 260c-204.667 0 -307 -132.667 -307 -398v-569h-182v1098h147l27 -148h10c68.667 112 180.667 168 336 168c259.333 0 389 -133.667 389 -401v-717h-182zM958 1542l-58.999 -66.999c-94 -105.333 -152.667 -183.333 -176 -234h-193
c-23.333 50.667 -82 128.667 -176 234l-59 67v27h120c54.667 -36 125 -98.333 211 -187c81.333 85.333 151.666 147.666 210.999 186.999h121v-27z" />
    <glyph glyph-name="napostrophe" unicode="&#x149;" 
d="M283 1462l14 -22c-33.333 -131.333 -92 -291 -176 -479h-137c40 161.333 73.333 328.333 100 501h199zM948 0l-0.000976562 707c0 173.333 -73 260 -219 260c-190 0 -285 -132.667 -285 -398v-569h-182v1098h148l26 -148h10c28 52 70.833 93 128.5 123
s120.834 45 189.501 45c244 0 366 -133.667 366 -401v-717h-182z" />
    <glyph glyph-name="Eng" unicode="&#x14a;" 
d="M297 1210h-7.99902c12 -184.667 18 -323.667 18 -417v-793h-172v1462h213l578 -1128h10c-12 182.667 -18 317 -18 403v725h174v-1442c0 -132 -33.333 -233.167 -100 -303.5s-162.334 -105.5 -287.001 -105.5c-62.667 0 -114.667 8 -156 24v160
c51.333 -13.333 104 -20 158 -20c140.667 0 211 75 211 225z" />
    <glyph glyph-name="eng" unicode="&#x14b;" 
d="M342 0h-182v1098h147l27 -148h10c68.667 112 180.667 168 336 168c259.333 0 389 -133.667 389 -401v-875c0 -222.667 -97 -334 -291 -334c-54 0 -98.333 8.33301 -133 25v148c36 -14 74.333 -21 115 -21c84.667 0 127 56.667 127 170v877
c0 173.333 -79.333 260 -238 260c-204.667 0 -307 -132.667 -307 -398v-569z" />
    <glyph glyph-name="Omacron" unicode="&#x14c;" 
d="M616 -20c-354.667 0 -532 251.668 -532 755.001c0 500 178 750 534 750c170.667 0 301.5 -65.167 392.5 -195.5s136.5 -315.833 136.5 -556.5s-46 -426.334 -138 -557.001s-223 -196 -393 -196zM616 143.001c115.333 0 199.833 48.333 253.5 145s80.5 245 80.5 445
c0 202 -27.167 350.5 -81.5 445.5s-137.833 142.5 -250.5 142.5c-224.667 0 -337 -196 -337 -588c0 -393.333 111.667 -590 335 -590zM330 1729h575v-150h-575v150z" />
    <glyph glyph-name="omacron" unicode="&#x14d;" 
d="M610 -20c-144 0 -262.499 51.833 -355.499 155.5s-139.5 242.167 -139.5 415.5c0 175.333 45.167 313.666 135.5 414.999s212.166 152 365.499 152c145.333 0 264.333 -51.667 357 -155s139 -240.666 139 -411.999c0 -176.667 -45.667 -316 -137 -418
s-213 -153 -365 -153zM614.001 131c206.667 0 310 140 310 420c0 277.333 -104 416 -312 416c-206 0 -309 -138.667 -309 -416c0 -280 103.667 -420 311 -420zM326.001 1391h575v-150h-575v150z" />
    <glyph glyph-name="Obreve" unicode="&#x14e;" 
d="M616 -20c-354.667 0 -532 251.668 -532 755.001c0 500 178 750 534 750c170.667 0 301.5 -65.167 392.5 -195.5s136.5 -315.833 136.5 -556.5s-46 -426.334 -138 -557.001s-223 -196 -393 -196zM616 143.001c115.333 0 199.833 48.333 253.5 145s80.5 245 80.5 445
c0 202 -27.167 350.5 -81.5 445.5s-137.833 142.5 -250.5 142.5c-224.667 0 -337 -196 -337 -588c0 -393.333 111.667 -590 335 -590zM914 1856c-6 -84.667 -35.667 -152 -89 -202s-125.333 -75 -216 -75c-186.667 0 -285.667 92.333 -297 277h109
c4.66699 -50.667 20.167 -84.167 46.5 -100.5s74.166 -24.5 143.499 -24.5c120.667 0 184.334 41.667 191.001 125h112z" />
    <glyph glyph-name="obreve" unicode="&#x14f;" 
d="M610 -20c-144 0 -262.499 51.833 -355.499 155.5s-139.5 242.167 -139.5 415.5c0 175.333 45.167 313.666 135.5 414.999s212.166 152 365.499 152c145.333 0 264.333 -51.667 357 -155s139 -240.666 139 -411.999c0 -176.667 -45.667 -316 -137 -418
s-213 -153 -365 -153zM614.001 131c206.667 0 310 140 310 420c0 277.333 -104 416 -312 416c-206 0 -309 -138.667 -309 -416c0 -280 103.667 -420 311 -420zM915.001 1518c-6 -84.667 -35.667 -152 -89 -202s-125.333 -75 -216 -75c-186.667 0 -285.667 92.333 -297 277
h109c4.66699 -50.667 20.167 -84.167 46.5 -100.5s74.166 -24.5 143.499 -24.5c120.667 0 184.334 41.667 191.001 125h112z" />
    <glyph glyph-name="Ohungarumlaut" unicode="&#x150;" 
d="M616 -20c-354.667 0 -532 251.668 -532 755.001c0 500 178 750 534 750c170.667 0 301.5 -65.167 392.5 -195.5s136.5 -315.833 136.5 -556.5s-46 -426.334 -138 -557.001s-223 -196 -393 -196zM616 143.001c115.333 0 199.833 48.333 253.5 145s80.5 245 80.5 445
c0 202 -27.167 350.5 -81.5 445.5s-137.833 142.5 -250.5 142.5c-224.667 0 -337 -196 -337 -588c0 -393.333 111.667 -590 335 -590zM326 1606c62.667 88.667 120.668 188.999 174.001 300.999h198v-21c-74.667 -115.333 -165.334 -217.666 -272.001 -306.999h-100v27z
M688.001 1606c58 78.667 116.001 178.999 174.001 300.999h199v-21c-74.667 -115.333 -165.334 -217.666 -272.001 -306.999h-101v27z" />
    <glyph glyph-name="ohungarumlaut" unicode="&#x151;" 
d="M610 -20c-144 0 -262.499 51.833 -355.499 155.5s-139.5 242.167 -139.5 415.5c0 175.333 45.167 313.666 135.5 414.999s212.166 152 365.499 152c145.333 0 264.333 -51.667 357 -155s139 -240.666 139 -411.999c0 -176.667 -45.667 -316 -137 -418
s-213 -153 -365 -153zM614.001 131c206.667 0 310 140 310 420c0 277.333 -104 416 -312 416c-206 0 -309 -138.667 -309 -416c0 -280 103.667 -420 311 -420zM328.001 1268c62.667 88.667 120.668 188.999 174.001 300.999h198v-21
c-74.667 -115.333 -165.334 -217.666 -272.001 -306.999h-100v27zM690.002 1268c58 78.667 116.001 178.999 174.001 300.999h199v-21c-74.667 -115.333 -165.334 -217.666 -272.001 -306.999h-101v27z" />
    <glyph glyph-name="OE" unicode="&#x152;" 
d="M1227 0h-574l-48 -10c-34 -6.66699 -66.333 -10 -97 -10c-325.333 0 -488 251.667 -488 755c0 500 170.667 750 512 750c54.667 0 106 -7.66699 154 -23h541v-164h-398v-452h359v-162h-359v-520h398v-164zM651 176l0.000976562 1112c-38.667 22 -82.334 33 -131.001 33
c-207.333 0 -311 -196 -311 -588c0 -393.333 103 -590 309 -590c46.667 0 91 11 133 33z" />
    <glyph glyph-name="oe" unicode="&#x153;" 
d="M651 201c-58.667 -147.333 -147.333 -221.001 -266 -221.001c-97.333 0 -176.333 51.167 -237 153.5s-91 241.5 -91 417.5c0 178.667 29.333 317.834 88 417.501s139.334 149.5 242.001 149.5c114 0 200.667 -72.333 260 -217c56 144.667 136.667 217 242 217
c87.333 0 156.666 -44.5 207.999 -133.5s77 -208.167 77 -357.5v-113h-439c2 -250 65 -375 189 -375c72 0 140 25.333 204 76v-162c-62.667 -48.667 -135 -73 -217 -73c-58 0 -110.833 19.667 -158.5 59s-81.5 93.333 -101.5 162zM397.001 130.999
c112 0 168 136.668 168 410.001c0 284 -56.667 426 -170 426c-60 0 -103 -34.333 -129 -103s-39 -173 -39 -313c0 -140.667 13.167 -245.834 39.5 -315.501s69.833 -104.5 130.5 -104.5zM997.001 662c0 203.333 -41 305 -123 305c-83.333 0 -129 -101.667 -137 -305h260z
" />
    <glyph glyph-name="Racute" unicode="&#x154;" 
d="M373 604v-604h-187v1462h357c346.667 0 520 -138.333 520 -415c0 -191.333 -96.333 -322 -289 -392l397 -655h-219l-350 604h-229zM373 762h164c114 0 198 22 252 66s81 114 81 210c0 94 -26.667 161.667 -80 203s-139.333 62 -258 62h-159v-541zM447 1606
c62.667 88.667 120.668 188.999 174.001 300.999h219v-21c-74.667 -115.333 -165.334 -217.666 -272.001 -306.999h-121v27z" />
    <glyph glyph-name="racute" unicode="&#x155;" 
d="M1059 1073l-49 -165.999c-82 30 -156.667 45 -224 45c-108.667 0 -192.5 -30.833 -251.5 -92.5s-88.5 -150.834 -88.5 -267.501v-592h-182v1098h148l22 -201h8c50.667 79.333 105 136 163 170s129.333 51 214 51c78.667 0 158.667 -15 240 -45zM510 1268
c62.667 88.667 120.668 188.999 174.001 300.999h219v-21c-74.667 -115.333 -165.334 -217.666 -272.001 -306.999h-121v27z" />
    <glyph glyph-name="Rcommaaccent" unicode="&#x156;" 
d="M373 604v-604h-187v1462h357c346.667 0 520 -138.333 520 -415c0 -191.333 -96.333 -322 -289 -392l397 -655h-219l-350 604h-229zM373 762h164c114 0 198 22 252 66s81 114 81 210c0 94 -26.667 161.667 -80 203s-139.333 62 -258 62h-159v-541zM480 -426
c41.333 93.333 69.333 193.667 84 301h178v-20c0 -14.667 -16 -56 -48 -124s-70.333 -129.333 -115 -184h-99v27z" />
    <glyph glyph-name="rcommaaccent" unicode="&#x157;" 
d="M1059 1073l-49 -165.999c-82 30 -156.667 45 -224 45c-108.667 0 -192.5 -30.833 -251.5 -92.5s-88.5 -150.834 -88.5 -267.501v-592h-182v1098h148l22 -201h8c50.667 79.333 105 136 163 170s129.333 51 214 51c78.667 0 158.667 -15 240 -45zM187 -425.999
c41.333 93.333 69.333 193.667 84 301h178v-20c0 -14.667 -16 -56 -48 -124s-70.333 -129.333 -115 -184h-99v27z" />
    <glyph glyph-name="Rcaron" unicode="&#x158;" 
d="M373 604v-604h-187v1462h357c346.667 0 520 -138.333 520 -415c0 -191.333 -96.333 -322 -289 -392l397 -655h-219l-350 604h-229zM373 762h164c114 0 198 22 252 66s81 114 81 210c0 94 -26.667 161.667 -80 203s-139.333 62 -258 62h-159v-541zM916 1880
l-58.999 -66.999c-94 -105.333 -152.667 -183.333 -176 -234h-193c-23.333 50.667 -82 128.667 -176 234l-59 67v27h120c54.667 -36 125 -98.333 211 -187c81.333 85.333 151.666 147.666 210.999 186.999h121v-27z" />
    <glyph glyph-name="rcaron" unicode="&#x159;" 
d="M1059 1073l-49 -165.999c-82 30 -156.667 45 -224 45c-108.667 0 -192.5 -30.833 -251.5 -92.5s-88.5 -150.834 -88.5 -267.501v-592h-182v1098h148l22 -201h8c50.667 79.333 105 136 163 170s129.333 51 214 51c78.667 0 158.667 -15 240 -45zM958 1542l-58.999 -66.999
c-94 -105.333 -152.667 -183.333 -176 -234h-193c-23.333 50.667 -82 128.667 -176 234l-59 67v27h120c54.667 -36 125 -98.333 211 -187c81.333 85.333 151.666 147.666 210.999 186.999h121v-27z" />
    <glyph glyph-name="Sacute" unicode="&#x15a;" 
d="M141 49l-0.00195312 178c140.667 -57.333 278.667 -86 414 -86c233.333 0 350 80 350 240c0 69.333 -23.5 122.666 -70.5 159.999s-142.167 81.666 -285.5 132.999c-138.667 48.667 -238.167 106.834 -298.5 174.501s-90.5 155.5 -90.5 263.5
c0 116 42.833 206.833 128.5 272.5s203.167 98.5 352.5 98.5c152.667 0 291.334 -26 416.001 -78l-64 -164c-128.667 52 -248.667 78 -360 78c-195.333 0 -293 -69.667 -293 -209c0 -68 21.833 -122.667 65.5 -164s133.834 -85.666 270.501 -132.999
c164 -58.667 273.5 -119.167 328.5 -181.5s82.5 -142.5 82.5 -240.5c0 -128 -46.167 -228.5 -138.5 -301.5s-223.5 -109.5 -393.5 -109.5c-176.667 0 -314.667 23 -414 69zM513.998 1606c62.667 88.667 120.668 188.999 174.001 300.999h219v-21
c-74.667 -115.333 -165.334 -217.666 -272.001 -306.999h-121v27z" />
    <glyph glyph-name="sacute" unicode="&#x15b;" 
d="M203 49l-0.000976562 165.998c128.667 -57.333 252 -86 370 -86c183.333 0 275 54 275 162c0 38 -16.333 71 -49 99s-108 63.333 -226 106c-155.333 58 -253.166 111.167 -293.499 159.5s-60.5 105.5 -60.5 171.5c0 90.667 37.167 161.834 111.5 213.501
s177.166 77.5 308.499 77.5c132 0 255 -24.667 369 -74l-60 -149c-121.333 48 -227.666 72 -318.999 72c-157.333 0 -236 -44.333 -236 -133c0 -40.667 16.833 -73.167 50.5 -97.5s111.167 -58.166 232.5 -101.499c140.667 -51.333 234.167 -101.833 280.5 -151.5
s69.5 -110.5 69.5 -182.5c0 -100 -39 -178.5 -117 -235.5s-188.333 -85.5 -331 -85.5c-165.333 0 -290.333 23 -375 69zM511.999 1268c62.667 88.667 120.668 188.999 174.001 300.999h219v-21c-74.667 -115.333 -165.334 -217.666 -272.001 -306.999h-121v27z" />
    <glyph glyph-name="Scircumflex" unicode="&#x15c;" 
d="M141 49l-0.00195312 178c140.667 -57.333 278.667 -86 414 -86c233.333 0 350 80 350 240c0 69.333 -23.5 122.666 -70.5 159.999s-142.167 81.666 -285.5 132.999c-138.667 48.667 -238.167 106.834 -298.5 174.501s-90.5 155.5 -90.5 263.5
c0 116 42.833 206.833 128.5 272.5s203.167 98.5 352.5 98.5c152.667 0 291.334 -26 416.001 -78l-64 -164c-128.667 52 -248.667 78 -360 78c-195.333 0 -293 -69.667 -293 -209c0 -68 21.833 -122.667 65.5 -164s133.834 -85.666 270.501 -132.999
c164 -58.667 273.5 -119.167 328.5 -181.5s82.5 -142.5 82.5 -240.5c0 -128 -46.167 -228.5 -138.5 -301.5s-223.5 -109.5 -393.5 -109.5c-176.667 0 -314.667 23 -414 69zM965.998 1579h-121.002c-56.667 37.333 -127 99.333 -211 186
c-88.667 -90.667 -159 -152.667 -211 -186h-120v27l59 67c92.667 103.333 151.334 181.333 176.001 234h193c24.667 -52.667 83.334 -130.667 176.001 -234l59 -67v-27z" />
    <glyph glyph-name="scircumflex" unicode="&#x15d;" 
d="M203 49l-0.000976562 165.998c128.667 -57.333 252 -86 370 -86c183.333 0 275 54 275 162c0 38 -16.333 71 -49 99s-108 63.333 -226 106c-155.333 58 -253.166 111.167 -293.499 159.5s-60.5 105.5 -60.5 171.5c0 90.667 37.167 161.834 111.5 213.501
s177.166 77.5 308.499 77.5c132 0 255 -24.667 369 -74l-60 -149c-121.333 48 -227.666 72 -318.999 72c-157.333 0 -236 -44.333 -236 -133c0 -40.667 16.833 -73.167 50.5 -97.5s111.167 -58.166 232.5 -101.499c140.667 -51.333 234.167 -101.833 280.5 -151.5
s69.5 -110.5 69.5 -182.5c0 -100 -39 -178.5 -117 -235.5s-188.333 -85.5 -331 -85.5c-165.333 0 -290.333 23 -375 69zM968.999 1241h-121.002c-56.667 37.333 -127 99.333 -211 186c-88.667 -90.667 -159 -152.667 -211 -186h-120v27l59 67
c92.667 103.333 151.334 181.333 176.001 234h193c24.667 -52.667 83.334 -130.667 176.001 -234l59 -67v-27z" />
    <glyph glyph-name="Scedilla" unicode="&#x15e;" 
d="M141 49l-0.00195312 178c140.667 -57.333 278.667 -86 414 -86c233.333 0 350 80 350 240c0 69.333 -23.5 122.666 -70.5 159.999s-142.167 81.666 -285.5 132.999c-138.667 48.667 -238.167 106.834 -298.5 174.501s-90.5 155.5 -90.5 263.5
c0 116 42.833 206.833 128.5 272.5s203.167 98.5 352.5 98.5c152.667 0 291.334 -26 416.001 -78l-64 -164c-128.667 52 -248.667 78 -360 78c-195.333 0 -293 -69.667 -293 -209c0 -68 21.833 -122.667 65.5 -164s133.834 -85.666 270.501 -132.999
c164 -58.667 273.5 -119.167 328.5 -181.5s82.5 -142.5 82.5 -240.5c0 -128 -46.167 -228.5 -138.5 -301.5s-223.5 -109.5 -393.5 -109.5c-176.667 0 -314.667 23 -414 69zM405.998 -483v108c22 -4 48.667 -6 80 -6c100.667 0 151 30.667 151 92
c0 49.333 -57.333 87 -172 113l91 176h120l-57 -115c106.667 -24.667 160 -82 160 -172c0 -136.667 -97 -205 -291 -205c-22.667 0 -50 3 -82 9z" />
    <glyph glyph-name="scedilla" unicode="&#x15f;" 
d="M203 49l-0.000976562 165.998c128.667 -57.333 252 -86 370 -86c183.333 0 275 54 275 162c0 38 -16.333 71 -49 99s-108 63.333 -226 106c-155.333 58 -253.166 111.167 -293.499 159.5s-60.5 105.5 -60.5 171.5c0 90.667 37.167 161.834 111.5 213.501
s177.166 77.5 308.499 77.5c132 0 255 -24.667 369 -74l-60 -149c-121.333 48 -227.666 72 -318.999 72c-157.333 0 -236 -44.333 -236 -133c0 -40.667 16.833 -73.167 50.5 -97.5s111.167 -58.166 232.5 -101.499c140.667 -51.333 234.167 -101.833 280.5 -151.5
s69.5 -110.5 69.5 -182.5c0 -100 -39 -178.5 -117 -235.5s-188.333 -85.5 -331 -85.5c-165.333 0 -290.333 23 -375 69zM418.999 -483.002v108c22 -4 48.667 -6 80 -6c100.667 0 151 30.667 151 92c0 49.333 -57.333 87 -172 113l91 176h120l-57 -115
c106.667 -24.667 160 -82 160 -172c0 -136.667 -97 -205 -291 -205c-22.667 0 -50 3 -82 9z" />
    <glyph glyph-name="Scaron" unicode="&#x160;" 
d="M141 49l-0.00195312 178c140.667 -57.333 278.667 -86 414 -86c233.333 0 350 80 350 240c0 69.333 -23.5 122.666 -70.5 159.999s-142.167 81.666 -285.5 132.999c-138.667 48.667 -238.167 106.834 -298.5 174.501s-90.5 155.5 -90.5 263.5
c0 116 42.833 206.833 128.5 272.5s203.167 98.5 352.5 98.5c152.667 0 291.334 -26 416.001 -78l-64 -164c-128.667 52 -248.667 78 -360 78c-195.333 0 -293 -69.667 -293 -209c0 -68 21.833 -122.667 65.5 -164s133.834 -85.666 270.501 -132.999
c164 -58.667 273.5 -119.167 328.5 -181.5s82.5 -142.5 82.5 -240.5c0 -128 -46.167 -228.5 -138.5 -301.5s-223.5 -109.5 -393.5 -109.5c-176.667 0 -314.667 23 -414 69zM976.998 1880l-58.999 -66.999c-94 -105.333 -152.667 -183.333 -176 -234h-193
c-23.333 50.667 -82 128.667 -176 234l-59 67v27h120c54.667 -36 125 -98.333 211 -187c81.333 85.333 151.666 147.666 210.999 186.999h121v-27z" />
    <glyph glyph-name="scaron" unicode="&#x161;" 
d="M203 49l-0.000976562 165.998c128.667 -57.333 252 -86 370 -86c183.333 0 275 54 275 162c0 38 -16.333 71 -49 99s-108 63.333 -226 106c-155.333 58 -253.166 111.167 -293.499 159.5s-60.5 105.5 -60.5 171.5c0 90.667 37.167 161.834 111.5 213.501
s177.166 77.5 308.499 77.5c132 0 255 -24.667 369 -74l-60 -149c-121.333 48 -227.666 72 -318.999 72c-157.333 0 -236 -44.333 -236 -133c0 -40.667 16.833 -73.167 50.5 -97.5s111.167 -58.166 232.5 -101.499c140.667 -51.333 234.167 -101.833 280.5 -151.5
s69.5 -110.5 69.5 -182.5c0 -100 -39 -178.5 -117 -235.5s-188.333 -85.5 -331 -85.5c-165.333 0 -290.333 23 -375 69zM955.999 1542l-58.999 -66.999c-94 -105.333 -152.667 -183.333 -176 -234h-193c-23.333 50.667 -82 128.667 -176 234l-59 67v27h120
c54.667 -36 125 -98.333 211 -187c81.333 85.333 151.666 147.666 210.999 186.999h121v-27z" />
    <glyph glyph-name="Tcommaaccent" unicode="&#x162;" 
d="M707 0h-187v1298h-418v164h1022v-164h-417v-1298zM428 -483v108c22 -4 48.667 -6 80 -6c100.667 0 151 30.667 151 92c0 49.333 -57.333 87 -172 113l91 176h120l-57 -115c106.667 -24.667 160 -82 160 -172c0 -136.667 -97 -205 -291 -205c-22.667 0 -50 3 -82 9z" />
    <glyph glyph-name="tcommaaccent" unicode="&#x163;" 
d="M1020 150v-138c-86.667 -21.333 -170.667 -32 -252 -32c-241.333 0 -362 114.667 -362 344v637h-267v94l267 49l77 287h105v-293h438v-137h-438v-637c0 -130 64 -195 192 -195c62 0 142 7 240 21zM468 -483v108c22 -4 48.667 -6 80 -6c100.667 0 151 30.667 151 92
c0 49.333 -57.333 87 -172 113l91 176h120l-57 -115c106.667 -24.667 160 -82 160 -172c0 -136.667 -97 -205 -291 -205c-22.667 0 -50 3 -82 9z" />
    <glyph glyph-name="Tcaron" unicode="&#x164;" 
d="M707 0h-187v1298h-418v164h1022v-164h-417v-1298zM945 1880l-58.999 -66.999c-94 -105.333 -152.667 -183.333 -176 -234h-193c-23.333 50.667 -82 128.667 -176 234l-59 67v27h120c54.667 -36 125 -98.333 211 -187c81.333 85.333 151.666 147.666 210.999 186.999h121
v-27z" />
    <glyph glyph-name="tcaron" unicode="&#x165;" 
d="M1020 150v-138c-86.667 -21.333 -170.667 -32 -252 -32c-241.333 0 -362 114.667 -362 344v637h-267v94l267 49l77 287h105v-293h438v-137h-438v-637c0 -130 64 -195 192 -195c62 0 142 7 240 21zM799 1255l26 107c17.333 77.333 29 142 35 194h180v-20
c0 -9.33301 -14 -47 -42 -113s-62.333 -130.667 -103 -194h-96v26z" />
    <glyph glyph-name="Tbar" unicode="&#x166;" 
d="M520 819v479h-418v164h1022v-164h-417v-479h294v-149h-294v-670h-187v670h-297v149h297z" />
    <glyph glyph-name="tbar" unicode="&#x167;" 
d="M1020 150v-138c-86.667 -21.333 -170.667 -32 -252 -32c-241.333 0 -362 114.667 -362 344v251h-162v138h162v248h-267v94l267 49l77 287h105v-293h438v-137h-438v-248h307v-138h-307v-251c0 -130 64 -195 192 -195c62 0 142 7 240 21z" />
    <glyph glyph-name="Utilde" unicode="&#x168;" 
d="M1104 1464v-948c0 -173.333 -42 -306 -126 -398s-207.333 -138 -370 -138c-322 0 -483 180 -483 540v942h186v-932c0 -258 102.333 -387 307 -387c196.667 0 296.667 129.667 300 389v932h186zM364 1579h-103.998c16.667 176 87 264 211 264
c38.667 0 92.334 -18.667 161.001 -56c68 -37.333 113.333 -56 136 -56c53.333 0 88.666 38 105.999 114h105c-18 -176 -88.333 -264 -211 -264c-38 0 -90.333 19 -157 57c-66.667 37.333 -113.334 56 -140.001 56c-54.667 0 -90.334 -38.333 -107.001 -115z" />
    <glyph glyph-name="utilde" unicode="&#x169;" 
d="M922 0l-26.999 147h-10c-70 -111.333 -181.333 -167 -334 -167c-260.667 0 -391 133.667 -391 401v717h182v-707c0 -173.333 78.667 -260 236 -260c107.333 0 185.666 30.833 234.999 92.5s74 163.167 74 304.5v570h182v-1098h-147zM360.001 1241h-103.998
c16.667 176 87 264 211 264c38.667 0 92.334 -18.667 161.001 -56c68 -37.333 113.333 -56 136 -56c53.333 0 88.666 38 105.999 114h105c-18 -176 -88.333 -264 -211 -264c-38 0 -90.333 19 -157 57c-66.667 37.333 -113.334 56 -140.001 56
c-54.667 0 -90.334 -38.333 -107.001 -115z" />
    <glyph glyph-name="Umacron" unicode="&#x16a;" 
d="M1104 1464v-948c0 -173.333 -42 -306 -126 -398s-207.333 -138 -370 -138c-322 0 -483 180 -483 540v942h186v-932c0 -258 102.333 -387 307 -387c196.667 0 296.667 129.667 300 389v932h186zM326 1729h575v-150h-575v150z" />
    <glyph glyph-name="umacron" unicode="&#x16b;" 
d="M922 0l-26.999 147h-10c-70 -111.333 -181.333 -167 -334 -167c-260.667 0 -391 133.667 -391 401v717h182v-707c0 -173.333 78.667 -260 236 -260c107.333 0 185.666 30.833 234.999 92.5s74 163.167 74 304.5v570h182v-1098h-147zM328.001 1391h575v-150h-575v150z" />
    <glyph glyph-name="Ubreve" unicode="&#x16c;" 
d="M1104 1464v-948c0 -173.333 -42 -306 -126 -398s-207.333 -138 -370 -138c-322 0 -483 180 -483 540v942h186v-932c0 -258 102.333 -387 307 -387c196.667 0 296.667 129.667 300 389v932h186zM914 1856c-6 -84.667 -35.667 -152 -89 -202s-125.333 -75 -216 -75
c-186.667 0 -285.667 92.333 -297 277h109c4.66699 -50.667 20.167 -84.167 46.5 -100.5s74.166 -24.5 143.499 -24.5c120.667 0 184.334 41.667 191.001 125h112z" />
    <glyph glyph-name="ubreve" unicode="&#x16d;" 
d="M922 0l-26.999 147h-10c-70 -111.333 -181.333 -167 -334 -167c-260.667 0 -391 133.667 -391 401v717h182v-707c0 -173.333 78.667 -260 236 -260c107.333 0 185.666 30.833 234.999 92.5s74 163.167 74 304.5v570h182v-1098h-147zM915.001 1518
c-6 -84.667 -35.667 -152 -89 -202s-125.333 -75 -216 -75c-186.667 0 -285.667 92.333 -297 277h109c4.66699 -50.667 20.167 -84.167 46.5 -100.5s74.166 -24.5 143.499 -24.5c120.667 0 184.334 41.667 191.001 125h112z" />
    <glyph glyph-name="Uring" unicode="&#x16e;" 
d="M1104 1464v-948c0 -173.333 -42 -306 -126 -398s-207.333 -138 -370 -138c-322 0 -483 180 -483 540v942h186v-932c0 -258 102.333 -387 307 -387c196.667 0 296.667 129.667 300 389v932h186zM612 1579c-68 0 -122.167 19.332 -162.5 57.999s-60.5 91 -60.5 157
s20.167 118.333 60.5 157s94.5 58 162.5 58c67.333 0 122.5 -19.667 165.5 -59s64.5 -90.666 64.5 -153.999c0 -65.333 -21.167 -117.833 -63.5 -157.5s-97.833 -59.5 -166.5 -59.5zM612 1907c-32.667 0 -59.5 -10 -80.5 -30s-31.5 -47.667 -31.5 -83
c0 -75.333 37.333 -113 112 -113c33.333 0 60.5 10 81.5 30s31.5 47.667 31.5 83s-10.5 63 -31.5 83s-48.167 30 -81.5 30z" />
    <glyph glyph-name="uring" unicode="&#x16f;" 
d="M922 0l-26.999 147h-10c-70 -111.333 -181.333 -167 -334 -167c-260.667 0 -391 133.667 -391 401v717h182v-707c0 -173.333 78.667 -260 236 -260c107.333 0 185.666 30.833 234.999 92.5s74 163.167 74 304.5v570h182v-1098h-147zM607.001 1241
c-68 0 -122.167 19.332 -162.5 57.999s-60.5 91 -60.5 157s20.167 118.333 60.5 157s94.5 58 162.5 58c67.333 0 122.5 -19.667 165.5 -59s64.5 -90.666 64.5 -153.999c0 -65.333 -21.167 -117.833 -63.5 -157.5s-97.833 -59.5 -166.5 -59.5zM607.001 1569
c-32.667 0 -59.5 -10 -80.5 -30s-31.5 -47.667 -31.5 -83c0 -75.333 37.333 -113 112 -113c33.333 0 60.5 10 81.5 30s31.5 47.667 31.5 83s-10.5 63 -31.5 83s-48.167 30 -81.5 30z" />
    <glyph glyph-name="Uhungarumlaut" unicode="&#x170;" 
d="M1104 1464v-948c0 -173.333 -42 -306 -126 -398s-207.333 -138 -370 -138c-322 0 -483 180 -483 540v942h186v-932c0 -258 102.333 -387 307 -387c196.667 0 296.667 129.667 300 389v932h186zM322 1606c62.667 88.667 120.668 188.999 174.001 300.999h198v-21
c-74.667 -115.333 -165.334 -217.666 -272.001 -306.999h-100v27zM684.001 1606c58 78.667 116.001 178.999 174.001 300.999h199v-21c-74.667 -115.333 -165.334 -217.666 -272.001 -306.999h-101v27z" />
    <glyph glyph-name="uhungarumlaut" unicode="&#x171;" 
d="M922 0l-26.999 147h-10c-70 -111.333 -181.333 -167 -334 -167c-260.667 0 -391 133.667 -391 401v717h182v-707c0 -173.333 78.667 -260 236 -260c107.333 0 185.666 30.833 234.999 92.5s74 163.167 74 304.5v570h182v-1098h-147zM326.001 1268
c62.667 88.667 120.668 188.999 174.001 300.999h198v-21c-74.667 -115.333 -165.334 -217.666 -272.001 -306.999h-100v27zM688.002 1268c58 78.667 116.001 178.999 174.001 300.999h199v-21c-74.667 -115.333 -165.334 -217.666 -272.001 -306.999h-101v27z" />
    <glyph glyph-name="Uogonek" unicode="&#x172;" 
d="M1104 1464v-948c0 -173.333 -42 -306 -126 -398s-207.333 -138 -370 -138c-322 0 -483 180 -483 540v942h186v-932c0 -258 102.333 -387 307 -387c196.667 0 296.667 129.667 300 389v932h186zM842 -319v-113.001c-48.667 -15.333 -100.667 -23 -156 -23
c-79.333 0 -140 18.167 -182 54.5s-63 85.833 -63 148.5c0 96 63.333 180 190 252h131c-113.333 -83.333 -170 -162.666 -170 -237.999c0 -64 42.333 -96 127 -96c44 0 85 5 123 15z" />
    <glyph glyph-name="uogonek" unicode="&#x173;" 
d="M922 0l-26.999 147h-10c-70 -111.333 -181.333 -167 -334 -167c-260.667 0 -391 133.667 -391 401v717h182v-707c0 -173.333 78.667 -260 236 -260c107.333 0 185.666 30.833 234.999 92.5s74 163.167 74 304.5v570h182v-1098h-147zM1124 -319v-113.001
c-48.667 -15.333 -100.667 -23 -156 -23c-79.333 0 -140 18.167 -182 54.5s-63 85.833 -63 148.5c0 96 63.333 180 190 252h131c-113.333 -83.333 -170 -162.666 -170 -237.999c0 -64 42.333 -96 127 -96c44 0 85 5 123 15z" />
    <glyph glyph-name="Wcircumflex" unicode="&#x174;" 
d="M528 1008l177.001 0.000976562l145 -521c40.667 -146 64.667 -248.333 72 -307c1.33301 35.333 23 241.666 65 618.999l70 663h170l-187 -1462h-190l-168 580c-26.667 92 -48.667 186 -66 282c-21.333 -115.333 -43 -210 -65 -284l-156 -578h-190l-203 1462h170l88 -663
c15.333 -117.333 28.666 -243.333 39.999 -378s17 -215 17 -241c16 100.667 39.333 204.667 70 312zM948.001 1579h-121.002c-56.667 37.333 -127 99.333 -211 186c-88.667 -90.667 -159 -152.667 -211 -186h-120v27l59 67c92.667 103.333 151.334 181.333 176.001 234h193
c24.667 -52.667 83.334 -130.667 176.001 -234l59 -67v-27z" />
    <glyph glyph-name="wcircumflex" unicode="&#x175;" 
d="M813 0l-131.001 596.001l-68 330h-6l-65 -334l-135 -592h-189l-223 1098h162l98 -543c22.667 -124 41.667 -255 57 -393h6c20.667 123.333 43.334 242.666 68.001 357.999l133 578h193l127 -578c28.667 -130 51 -249.333 67 -358h6c20.667 161.333 40.667 292.333 60 393
l102 543h158l-225 -1098h-195zM942.999 1241h-121.002c-56.667 37.333 -127 99.333 -211 186c-88.667 -90.667 -159 -152.667 -211 -186h-120v27l59 67c92.667 103.333 151.334 181.333 176.001 234h193c24.667 -52.667 83.334 -130.667 176.001 -234l59 -67v-27z" />
    <glyph glyph-name="Ycircumflex" unicode="&#x176;" 
d="M612 723l381 739h201l-487 -893v-569h-187v559l-487 903h203zM945 1579h-121.002c-56.667 37.333 -127 99.333 -211 186c-88.667 -90.667 -159 -152.667 -211 -186h-120v27l59 67c92.667 103.333 151.334 181.333 176.001 234h193
c24.667 -52.667 83.334 -130.667 176.001 -234l59 -67v-27z" />
    <glyph glyph-name="ycircumflex" unicode="&#x177;" 
d="M82 1098l188 0.000976562l262 -654c54.667 -136.667 84.334 -233.334 89.001 -290.001h6c15.333 74.667 45.333 172 90 292l239 652h189l-475 -1241c-44.667 -116 -96.667 -203.167 -156 -261.5s-141.333 -87.5 -246 -87.5c-57.333 0 -113.333 5.66699 -168 17v145
c41.333 -8 86.666 -12 135.999 -12c64 0 113.833 13.667 149.5 41s67.5 74.333 95.5 141l58 150zM948 1241h-121.002c-56.667 37.333 -127 99.333 -211 186c-88.667 -90.667 -159 -152.667 -211 -186h-120v27l59 67c92.667 103.333 151.334 181.333 176.001 234h193
c24.667 -52.667 83.334 -130.667 176.001 -234l59 -67v-27z" />
    <glyph glyph-name="Ydieresis" unicode="&#x178;" 
d="M612 723l381 739h201l-487 -893v-569h-187v559l-487 903h203zM428 1835c64 0 96 -34 96 -102c0 -68.667 -32 -103 -96 -103s-96 34.333 -96 103c0 68 32 102 96 102zM803 1835c64 0 96 -34 96 -102c0 -68.667 -32 -103 -96 -103s-96 34.333 -96 103c0 68 32 102 96 102z
" />
    <glyph glyph-name="Zacute" unicode="&#x179;" 
d="M1124 0h-1022v145l793 1151h-772v166h981v-145l-793 -1151h813v-166zM475 1606c62.667 88.667 120.668 188.999 174.001 300.999h219v-21c-74.667 -115.333 -165.334 -217.666 -272.001 -306.999h-121v27z" />
    <glyph glyph-name="zacute" unicode="&#x17a;" 
d="M1044 0h-862v125l660 836h-627v137h811v-146l-647 -815h665v-137zM496 1268c62.667 88.667 120.668 188.999 174.001 300.999h219v-21c-74.667 -115.333 -165.334 -217.666 -272.001 -306.999h-121v27z" />
    <glyph glyph-name="Zdotaccent" unicode="&#x17b;" 
d="M1124 0h-1022v145l793 1151h-772v166h981v-145l-793 -1151h813v-166zM630 1847c71.333 0 107 -38 107 -114c0 -76.667 -35.667 -115 -107 -115c-70.667 0 -106 38.333 -106 115c0 76 35.333 114 106 114z" />
    <glyph glyph-name="zdotaccent" unicode="&#x17c;" 
d="M1044 0h-862v125l660 836h-627v137h811v-146l-647 -815h665v-137zM630 1509c71.333 0 107 -38 107 -114c0 -76.667 -35.667 -115 -107 -115c-70.667 0 -106 38.333 -106 115c0 76 35.333 114 106 114z" />
    <glyph glyph-name="Zcaron" unicode="&#x17d;" 
d="M1124 0h-1022v145l793 1151h-772v166h981v-145l-793 -1151h813v-166zM945 1880l-58.999 -66.999c-94 -105.333 -152.667 -183.333 -176 -234h-193c-23.333 50.667 -82 128.667 -176 234l-59 67v27h120c54.667 -36 125 -98.333 211 -187
c81.333 85.333 151.666 147.666 210.999 186.999h121v-27z" />
    <glyph glyph-name="zcaron" unicode="&#x17e;" 
d="M1044 0h-862v125l660 836h-627v137h811v-146l-647 -815h665v-137zM958 1542l-58.999 -66.999c-94 -105.333 -152.667 -183.333 -176 -234h-193c-23.333 50.667 -82 128.667 -176 234l-59 67v27h120c54.667 -36 125 -98.333 211 -187
c81.333 85.333 151.666 147.666 210.999 186.999h121v-27z" />
    <glyph glyph-name="longs" unicode="&#x17f;" 
d="M1018 1532l-41 -143c-70 18.667 -145.667 28 -227 28c-79.333 0 -134.333 -16 -165 -48s-46 -87.667 -46 -167v-1202h-183v1200c0 126.667 30 219.5 90 278.5s159.667 88.5 299 88.5c83.333 0 174.333 -11.667 273 -35z" />
    <glyph glyph-name="florin" unicode="&#x192;" 
d="M668 836v-961c0 -126.667 -25.5 -219.5 -76.5 -278.5s-136.167 -88.5 -255.5 -88.5c-34 0 -74.333 5 -121 15v153c39.333 -12 77.666 -18 114.999 -18c61.333 0 102.5 17 123.5 51s31.5 88.667 31.5 164v963h-194v75l194 68v137c0 126.667 25.5 219.5 76.5 278.5
s136.167 88.5 255.5 88.5c64.667 0 130.334 -12.333 197.001 -37l-47 -141c-52.667 18.667 -100.667 28 -144 28c-61.333 0 -102.5 -17 -123.5 -51s-31.5 -88.667 -31.5 -164v-145h245v-137h-245z" />
    <glyph glyph-name="Ohorn" unicode="&#x1a0;" 
d="M1147 733c0 -112.667 -10.667 -215.329 -32 -307.996s-54 -172 -98 -238s-99.333 -117 -166 -153s-145 -54 -235 -54c-94.667 0 -175.5 18 -242.5 54s-122 87 -165 153s-74.5 145.5 -94.5 238.5s-30 196.167 -30 309.5s10 216.166 30 308.499s51.5 171.166 94.5 236.499
s98.333 115.833 166 151.5s148.834 53.5 243.501 53.5c82.667 0 155.167 -15 217.5 -45s115.5 -73.667 159.5 -131c12 12.667 21.833 27.667 29.5 45s13.667 36.5 18 57.5s7.5 43.667 9.5 68s3.66699 49.833 5 76.5h198l15 -22c-7.33301 -34.667 -16.5 -68.5 -27.5 -101.5
s-24.667 -64 -41 -93s-35.833 -55.833 -58.5 -80.5s-49.334 -46.334 -80.001 -65.001c28 -60.667 49 -129.834 63 -207.501s21 -162.167 21 -253.5zM281 733.005c0 -91.333 6 -173.5 18 -246.5s31.167 -135 57.5 -186s60.833 -90 103.5 -117s94.667 -40.5 156 -40.5
c62 0 114.333 13.5 157 40.5s77 66 103 117s44.833 113 56.5 186s17.5 155.167 17.5 246.5c0 92 -5.83301 174.333 -17.5 247s-30.5 134.167 -56.5 184.5s-60.167 89 -102.5 116s-94.166 40.5 -155.499 40.5c-62 0 -114.333 -13.5 -157 -40.5s-77.334 -65.667 -104.001 -116
s-46 -111.833 -58 -184.5s-18 -155 -18 -247z" />
    <glyph glyph-name="ohorn" unicode="&#x1a1;" 
d="M1112 551c0 -91.333 -12.333 -172.501 -37 -243.501s-59.167 -130.667 -103.5 -179s-97.166 -85.166 -158.499 -110.499s-129 -38 -203 -38c-68.667 0 -133 12.667 -193 38s-112.333 62.166 -157 110.499s-80 108 -106 179s-39 152.167 -39 243.5
c0 90.667 12.167 171.167 36.5 241.5s58.5 129.666 102.5 177.999s96.833 85 158.5 110s129.5 37.5 203.5 37.5c64.667 0 125.5 -11 182.5 -33s107.5 -54.667 151.5 -98c25.333 10.667 45.166 25.334 59.499 44.001s25 40 32 64s11.333 50.5 13 79.5s2.5 59.5 2.5 91.5h198
l15 -23c-10 -46 -22 -88 -36 -126s-30.5 -72.167 -49.5 -102.5s-41 -56.666 -66 -78.999s-53.833 -40.5 -86.5 -54.5c25.333 -44 45 -93.5 59 -148.5s21 -115.5 21 -181.5zM303 550.999c0 -140.667 26.167 -245.833 78.5 -315.5s129.833 -104.5 232.5 -104.5
c206.667 0 310 140 310 420c0 140 -26.167 244.333 -78.5 313s-130.166 103 -233.499 103c-102.667 0 -179.834 -34.333 -231.501 -103s-77.5 -173 -77.5 -313z" />
    <glyph glyph-name="Uhorn" unicode="&#x1af;" 
d="M950 1462v-193.999c31.333 5.33301 56.166 16.666 74.499 33.999s32.333 38.833 42 64.5s16 54.667 19 87s4.5 66.5 4.5 102.5h198l15 -22c-10 -46 -23 -90.167 -39 -132.5s-37.667 -81 -65 -116s-61.166 -65 -101.499 -90s-89.5 -43.167 -147.5 -54.5v-666
c0 -76 -7.5 -144.5 -22.5 -205.5s-39 -113 -72 -156s-76 -76 -129 -99s-117.833 -34.5 -194.5 -34.5c-72 0 -133.667 10.833 -185 32.5s-93.5 53.5 -126.5 95.5s-57.167 94 -72.5 156s-23 133.667 -23 215v983h186v-973c0 -58 4 -108.667 12 -152s21 -79.333 39 -108
s41.833 -50.167 71.5 -64.5s66.167 -21.5 109.5 -21.5c44.667 0 81.334 8 110.001 24s51.167 39 67.5 69s27.666 66.5 33.999 109.5s9.5 91.833 9.5 146.5v970h186z" />
    <glyph glyph-name="uhorn" unicode="&#x1b0;" 
d="M786 0l-26.0039 147h-8c-14.667 -28.667 -32 -53.5 -52 -74.5s-42 -38.333 -66 -52s-49.333 -23.834 -76 -30.501s-53.667 -10 -81 -10c-52.667 0 -98.834 7.66699 -138.501 23s-72.667 39.333 -99 72s-46.166 74.334 -59.499 125.001s-20 111 -20 181v717h182v-707
c0 -86.667 14 -151.667 42 -195s72 -65 132 -65c44 0 81 8.66699 111 26s54.333 42.833 73 76.5s32 75.167 40 124.5s12 106 12 170v570h182v-123c34.667 4 62.334 14.333 83.001 31s36.334 38 47.001 64s17.667 55.833 21 89.5s5 69.167 5 106.5h198l15 -23
c-10 -46.667 -23.333 -92.667 -40 -138s-39.167 -86.333 -67.5 -123s-63.666 -67 -105.999 -91s-94.166 -38.333 -155.499 -43v-848h-148z" />
    <glyph glyph-name="uni01F0" unicode="&#x1f0;" 
d="M135 -457v154c89.333 -26 185.666 -39 288.999 -39c78 0 138.833 19 182.5 57s65.5 90.667 65.5 158v1081l-420 21v123h602v-1215c0 -120 -37.667 -212.5 -113 -277.5s-181.666 -97.5 -318.999 -97.5c-109.333 0 -205 11.667 -287 35zM937 1542l-58.999 -66.999
c-94 -105.333 -152.667 -183.333 -176 -234h-193c-23.333 50.667 -82 128.667 -176 234l-59 67v27h120c54.667 -36 125 -98.333 211 -187c81.333 85.333 151.666 147.666 210.999 186.999h121v-27z" />
    <glyph glyph-name="Aringacute" unicode="&#x1fa;" 
d="M1004 0l-144 453h-491l-146 -453h-190l483 1468h195l485 -1468h-192zM807 618l-133.001 424c-26 82.667 -46.667 158 -62 226c-13.333 -66 -28.666 -127 -45.999 -183l-144 -467h385zM611.999 1366c-68 0 -122.167 19.332 -162.5 57.999s-60.5 91 -60.5 157
s20.167 118.333 60.5 157s94.5 58 162.5 58c67.333 0 122.5 -19.667 165.5 -59s64.5 -90.666 64.5 -153.999c0 -65.333 -21.167 -117.833 -63.5 -157.5s-97.833 -59.5 -166.5 -59.5zM611.999 1694c-32.667 0 -59.5 -10 -80.5 -30s-31.5 -47.667 -31.5 -83
c0 -75.333 37.333 -113 112 -113c33.333 0 60.5 10 81.5 30s31.5 47.667 31.5 83s-10.5 63 -31.5 83s-48.167 30 -81.5 30zM489.999 1862c62.667 88.667 120.668 188.999 174.001 300.999h219v-21c-74.667 -115.333 -165.334 -217.666 -272.001 -306.999h-121v27z" />
    <glyph glyph-name="aringacute" unicode="&#x1fb;" 
d="M895 0l-37 152.001h-8c-51.333 -64.667 -104 -109.5 -158 -134.5s-123.667 -37.5 -209 -37.5c-108.667 0 -193.834 28.667 -255.501 86s-92.5 137.666 -92.5 240.999c0 221.333 170 337.333 510 348l203 7v69c0 157.333 -81.333 236 -244 236
c-98 0 -207.333 -27.333 -328 -82l-63 137c130.667 64 258.334 96 383.001 96c151.333 0 260.833 -29 328.5 -87s101.5 -151 101.5 -279v-752h-131zM846 537.001l-161.999 -7c-130.667 -5.33301 -223.334 -25.833 -278.001 -61.5s-82 -90.167 -82 -163.5
c0 -118.667 66.667 -178 200 -178c98 0 176.167 27.167 234.5 81.5s87.5 130.833 87.5 229.5v99zM610.001 1241c-68 0 -122.167 19.332 -162.5 57.999s-60.5 91 -60.5 157s20.167 118.333 60.5 157s94.5 58 162.5 58c67.333 0 122.5 -19.667 165.5 -59
s64.5 -90.666 64.5 -153.999c0 -65.333 -21.167 -117.833 -63.5 -157.5s-97.833 -59.5 -166.5 -59.5zM610.001 1569c-32.667 0 -59.5 -10 -80.5 -30s-31.5 -47.667 -31.5 -83c0 -75.333 37.333 -113 112 -113c33.333 0 60.5 10 81.5 30s31.5 47.667 31.5 83
s-10.5 63 -31.5 83s-48.167 30 -81.5 30zM512.001 1747c62.667 88.667 120.668 188.999 174.001 300.999h219v-21c-74.667 -115.333 -165.334 -217.666 -272.001 -306.999h-121v27z" />
    <glyph glyph-name="AEacute" unicode="&#x1fc;" 
d="M1210 0h-653v453h-289l-96 -453h-172l338 1462h872v-164h-477v-452h438v-162h-438v-520h477v-164zM305 618h252v680h-106zM631 1606c62.667 88.667 120.668 188.999 174.001 300.999h219v-21c-74.667 -115.333 -165.334 -217.666 -272.001 -306.999h-121v27z" />
    <glyph glyph-name="aeacute" unicode="&#x1fd;" 
d="M522 662l-0.000976562 68.999c0 157.333 -46.333 236 -139 236c-71.333 0 -141.666 -27.333 -210.999 -82l-57 137c87.333 64 179.333 96 276 96c125.333 0 207.333 -59.333 246 -178c52 118.667 132 178 240 178c91.333 0 165.666 -45.167 222.999 -135.5
s86 -208.833 86 -355.5v-113h-496c2 -128 24.333 -222.5 67 -283.5s99 -91.5 169 -91.5c74 0 151.667 25.333 233 76v-162c-71.333 -48.667 -151.666 -73 -240.999 -73c-148 0 -253.333 76.333 -316 229c-70 -152.667 -170.333 -229 -301 -229
c-76.667 0 -138.5 28.833 -185.5 86.5s-70.5 137.834 -70.5 240.501c0 221.333 109.333 337.333 328 348zM693.999 661.999h316c0 94 -13.5 168.333 -40.5 223s-64.167 82 -111.5 82c-45.333 0 -83 -26 -113 -78s-47 -127.667 -51 -227zM519.999 536.999l-88.001 -7
c-144.667 -11.333 -217 -86.333 -217 -225c0 -55.333 10.667 -98.833 32 -130.5s50.333 -47.5 87 -47.5c54.667 0 99.334 27.5 134.001 82.5s52 131.167 52 228.5v99zM530.998 1268c62.667 88.667 120.668 188.999 174.001 300.999h219v-21
c-74.667 -115.333 -165.334 -217.666 -272.001 -306.999h-121v27z" />
    <glyph glyph-name="Oslashacute" unicode="&#x1fe;" 
d="M309 74l-92 -150.001l-137 78l121 197c-78 122.667 -117 301.334 -117 536.001c0 500 178 750 534 750c124 0 227.333 -35 310 -105l92 152l137 -78l-125 -201c76.667 -125.333 115 -298.666 115 -519.999c0 -240.667 -46 -426.334 -138 -557.001s-223 -196 -393 -196
c-126 0 -228.333 31.333 -307 94zM319 390.999l515 836c-53.333 62.667 -125.333 94 -216 94c-224.667 0 -337 -196 -337 -588c0 -141.333 12.667 -255.333 38 -342zM915 1061l-512 -831.999c53.333 -57.333 124.333 -86 213 -86c115.333 0 199.833 48.333 253.5 145
s80.5 245 80.5 445c0 139.333 -11.667 248.666 -35 327.999zM475 1606c62.667 88.667 120.668 188.999 174.001 300.999h219v-21c-74.667 -115.333 -165.334 -217.666 -272.001 -306.999h-121v27z" />
    <glyph glyph-name="oslashacute" unicode="&#x1ff;" 
d="M377 33l-76.001 -118.999l-131 84l84 131c-92.667 105.333 -139 246 -139 422c0 177.333 44.333 316.166 133 416.499s211.334 150.5 368.001 150.5c85.333 0 164 -19 236 -57l76 119l131 -84l-84 -131c91.333 -104 137 -242 137 -414
c0 -180.667 -44.833 -321 -134.5 -421s-212.167 -150 -367.5 -150c-86 0 -163.667 17.667 -233 53zM355.999 276.001l405.999 656c-44 23.333 -96 35 -156 35c-107.333 0 -184.666 -34.5 -231.999 -103.5s-71 -173.167 -71 -312.5c0 -120 17.667 -211.667 53 -275z
M871.998 817.001l-404.999 -652.999c40.667 -22 92 -33 154 -33c107.333 0 184.666 35.167 231.999 105.5s71 175.166 71 314.499c0 109.333 -17.333 198 -52 266zM497.999 1268c62.667 88.667 120.668 188.999 174.001 300.999h219v-21
c-74.667 -115.333 -165.334 -217.666 -272.001 -306.999h-121v27z" />
    <glyph glyph-name="Scommaaccent" unicode="&#x218;" 
d="M141 49l-0.00195312 178c140.667 -57.333 278.667 -86 414 -86c233.333 0 350 80 350 240c0 69.333 -23.5 122.666 -70.5 159.999s-142.167 81.666 -285.5 132.999c-138.667 48.667 -238.167 106.834 -298.5 174.501s-90.5 155.5 -90.5 263.5
c0 116 42.833 206.833 128.5 272.5s203.167 98.5 352.5 98.5c152.667 0 291.334 -26 416.001 -78l-64 -164c-128.667 52 -248.667 78 -360 78c-195.333 0 -293 -69.667 -293 -209c0 -68 21.833 -122.667 65.5 -164s133.834 -85.666 270.501 -132.999
c164 -58.667 273.5 -119.167 328.5 -181.5s82.5 -142.5 82.5 -240.5c0 -128 -46.167 -228.5 -138.5 -301.5s-223.5 -109.5 -393.5 -109.5c-176.667 0 -314.667 23 -414 69zM482.998 -426c41.333 93.333 69.333 193.667 84 301h178v-20c0 -14.667 -16 -56 -48 -124
s-70.333 -129.333 -115 -184h-99v27z" />
    <glyph glyph-name="scommaaccent" unicode="&#x219;" 
d="M203 49l-0.000976562 165.998c128.667 -57.333 252 -86 370 -86c183.333 0 275 54 275 162c0 38 -16.333 71 -49 99s-108 63.333 -226 106c-155.333 58 -253.166 111.167 -293.499 159.5s-60.5 105.5 -60.5 171.5c0 90.667 37.167 161.834 111.5 213.501
s177.166 77.5 308.499 77.5c132 0 255 -24.667 369 -74l-60 -149c-121.333 48 -227.666 72 -318.999 72c-157.333 0 -236 -44.333 -236 -133c0 -40.667 16.833 -73.167 50.5 -97.5s111.167 -58.166 232.5 -101.499c140.667 -51.333 234.167 -101.833 280.5 -151.5
s69.5 -110.5 69.5 -182.5c0 -100 -39 -178.5 -117 -235.5s-188.333 -85.5 -331 -85.5c-165.333 0 -290.333 23 -375 69zM454.999 -426.002c41.333 93.333 69.333 193.667 84 301h178v-20c0 -14.667 -16 -56 -48 -124s-70.333 -129.333 -115 -184h-99v27z" />
    <glyph glyph-name="uni021A" unicode="&#x21a;" 
d="M707 0h-187v1298h-418v164h1022v-164h-417v-1298zM449 -426c41.333 93.333 69.333 193.667 84 301h178v-20c0 -14.667 -16 -56 -48 -124s-70.333 -129.333 -115 -184h-99v27z" />
    <glyph glyph-name="uni021B" unicode="&#x21b;" 
d="M1020 150v-138c-86.667 -21.333 -170.667 -32 -252 -32c-241.333 0 -362 114.667 -362 344v637h-267v94l267 49l77 287h105v-293h438v-137h-438v-637c0 -130 64 -195 192 -195c62 0 142 7 240 21zM489 -426c41.333 93.333 69.333 193.667 84 301h178v-20
c0 -14.667 -16 -56 -48 -124s-70.333 -129.333 -115 -184h-99v27z" />
    <glyph glyph-name="afii57929" unicode="&#x2bc;" 
d="M766 1462l14.001 -22c-36.667 -142 -95.334 -301.667 -176.001 -479h-158c43.333 177.333 77 344.333 101 501h219z" />
    <glyph glyph-name="circumflex" unicode="&#x2c6;" 
d="M946 1241h-121.002c-56.667 37.333 -127 99.333 -211 186c-88.667 -90.667 -159 -152.667 -211 -186h-120v27l59 67c92.667 103.333 151.334 181.333 176.001 234h193c24.667 -52.667 83.334 -130.667 176.001 -234l59 -67v-27z" />
    <glyph glyph-name="caron" unicode="&#x2c7;" 
d="M946 1542l-58.999 -66.999c-94 -105.333 -152.667 -183.333 -176 -234h-193c-23.333 50.667 -82 128.667 -176 234l-59 67v27h120c54.667 -36 125 -98.333 211 -187c81.333 85.333 151.666 147.666 210.999 186.999h121v-27z" />
    <glyph glyph-name="uni02C9" unicode="&#x2c9;" 
d="M326 1391h575v-150h-575v150z" />
    <glyph glyph-name="breve" unicode="&#x2d8;" 
d="M915 1518c-6 -84.667 -35.667 -152 -89 -202s-125.333 -75 -216 -75c-186.667 0 -285.667 92.333 -297 277h109c4.66699 -50.667 20.167 -84.167 46.5 -100.5s74.166 -24.5 143.499 -24.5c120.667 0 184.334 41.667 191.001 125h112z" />
    <glyph glyph-name="dotaccent" unicode="&#x2d9;" 
d="M614 1509c71.333 0 107 -38 107 -114c0 -76.667 -35.667 -115 -107 -115c-70.667 0 -106 38.333 -106 115c0 76 35.333 114 106 114z" />
    <glyph glyph-name="ring" unicode="&#x2da;" 
d="M610 1241c-68 0 -122.167 19.332 -162.5 57.999s-60.5 91 -60.5 157s20.167 118.333 60.5 157s94.5 58 162.5 58c67.333 0 122.5 -19.667 165.5 -59s64.5 -90.666 64.5 -153.999c0 -65.333 -21.167 -117.833 -63.5 -157.5s-97.833 -59.5 -166.5 -59.5zM610 1569
c-32.667 0 -59.5 -10 -80.5 -30s-31.5 -47.667 -31.5 -83c0 -75.333 37.333 -113 112 -113c33.333 0 60.5 10 81.5 30s31.5 47.667 31.5 83s-10.5 63 -31.5 83s-48.167 30 -81.5 30z" />
    <glyph glyph-name="ogonek" unicode="&#x2db;" 
d="M815 -319v-113.001c-48.667 -15.333 -100.667 -23 -156 -23c-79.333 0 -140 18.167 -182 54.5s-63 85.833 -63 148.5c0 96 63.333 180 190 252h131c-113.333 -83.333 -170 -162.666 -170 -237.999c0 -64 42.333 -96 127 -96c44 0 85 5 123 15z" />
    <glyph glyph-name="tilde" unicode="&#x2dc;" 
d="M358 1241h-103.998c16.667 176 87 264 211 264c38.667 0 92.334 -18.667 161.001 -56c68 -37.333 113.333 -56 136 -56c53.333 0 88.666 38 105.999 114h105c-18 -176 -88.333 -264 -211 -264c-38 0 -90.333 19 -157 57c-66.667 37.333 -113.334 56 -140.001 56
c-54.667 0 -90.334 -38.333 -107.001 -115z" />
    <glyph glyph-name="hungarumlaut" unicode="&#x2dd;" 
d="M246 1268c62.667 88.667 120.668 188.999 174.001 300.999h198v-21c-74.667 -115.333 -165.334 -217.666 -272.001 -306.999h-100v27zM608.001 1268c58 78.667 116.001 178.999 174.001 300.999h199v-21c-74.667 -115.333 -165.334 -217.666 -272.001 -306.999h-101v27z
" />
    <glyph glyph-name="uni02F3" unicode="&#x2f3;" 
d="M840 -338c0 -34 -5.83203 -64.5029 -17.499 -91.5029s-27.834 -49.833 -48.501 -68.5s-45 -32.834 -73 -42.501s-58.333 -14.5 -91 -14.5c-33.333 0 -63.666 4.83301 -90.999 14.5s-50.833 23.834 -70.5 42.501s-34.834 41.167 -45.501 67.5s-16 56.5 -16 90.5
s5.33301 64.167 16 90.5s25.834 48.833 45.501 67.5s43.167 32.834 70.5 42.501s57.666 14.5 90.999 14.5c32 0 62 -4.83301 90 -14.5s52.333 -23.667 73 -42s37 -40.666 49 -66.999s18 -56.166 18 -89.499zM723.001 -340.003c0 35.333 -10.5 63 -31.5 83
s-48.167 30 -81.5 30c-32.667 0 -59.5 -10 -80.5 -30s-31.5 -47.667 -31.5 -83s9.5 -63 28.5 -83s46.833 -30 83.5 -30c33.333 0 60.5 10 81.5 30s31.5 47.667 31.5 83z" />
    <glyph glyph-name="gravecomb" unicode="&#x300;" 
d="M811 1241h-120.999c-110.667 94.667 -201.334 197 -272.001 307v21h219c57.333 -118.667 115.333 -219 174 -301v-27z" />
    <glyph glyph-name="acutecomb" unicode="&#x301;" 
d="M418 1268c62.667 88.667 120.668 188.999 174.001 300.999h219v-21c-74.667 -115.333 -165.334 -217.666 -272.001 -306.999h-121v27z" />
    <glyph glyph-name="tildecomb" unicode="&#x303;" 
d="M358 1241h-103.998c16.667 176 87 264 211 264c38.667 0 92.334 -18.667 161.001 -56c68 -37.333 113.333 -56 136 -56c53.333 0 88.666 38 105.999 114h105c-18 -176 -88.333 -264 -211 -264c-38 0 -90.333 19 -157 57c-66.667 37.333 -113.334 56 -140.001 56
c-54.667 0 -90.334 -38.333 -107.001 -115z" />
    <glyph glyph-name="hookabovecomb" unicode="&#x309;" 
d="M801 1491c0 -26 -4.50195 -48.665 -13.502 -67.998s-21 -35.833 -36 -49.5s-32.5 -24.834 -52.5 -33.501s-41.333 -15.667 -64 -21l-10 -111h-113l-14 176c24.667 4 46.834 8.66699 66.501 14s36.5 12 50.5 20s24.833 17.5 32.5 28.5s11.5 24.5 11.5 40.5
s-3.33301 29.333 -10 40s-16 19.167 -28 25.5s-26.333 10.666 -43 12.999s-34.667 3.5 -54 3.5c-18.667 0 -36.667 -0.5 -54 -1.5s-31.333 -2.5 -42 -4.5v108c10.667 2 24.334 3.83301 41.001 5.5s38.667 2.5 66 2.5c88.667 0 155.167 -15.167 199.5 -45.5
s66.5 -77.833 66.5 -142.5z" />
    <glyph glyph-name="uni030F" unicode="&#x30f;" 
d="M940 1241l-100 -0.00195312c-22.667 18.667 -47.667 41.834 -75 69.501s-53.833 56.167 -79.5 85.5s-49.167 57.5 -70.5 84.5s-37.333 49.5 -48 67.5v21h199c10.667 -22.667 23.167 -47.5 37.5 -74.5l44.5 -81c15.333 -27 31 -53.167 47 -78.5s31 -47.666 45 -66.999v-27
zM578 1241l-101 -0.00195312c-22.667 18.667 -47.667 41.834 -75 69.501s-53.833 56.167 -79.5 85.5s-49 57.5 -70 84.5s-36.833 49.5 -47.5 67.5v21h198c10.667 -22.667 23.167 -47.5 37.5 -74.5l44.5 -81c15.333 -27 31 -53.167 47 -78.5s31.333 -47.666 46 -66.999v-27z
" />
    <glyph glyph-name="dotbelowcomb" unicode="&#x323;" 
d="M508 -246c0 40 10.168 69.166 30.501 87.499s45.5 27.5 75.5 27.5c29.333 0 54.5 -9.16699 75.5 -27.5s31.5 -47.5 31.5 -87.5c0 -19.333 -2.83301 -36.166 -8.5 -50.499s-13.334 -26.166 -23.001 -35.499s-21 -16.333 -34 -21s-26.833 -7 -41.5 -7
c-30 0 -55.167 9.16699 -75.5 27.5s-30.5 47.166 -30.5 86.499z" />
    <glyph glyph-name="tonos" unicode="&#x384;" 
d="M479 1268l30 106.999c20 76 33.333 140.667 40 194h199v-21c0 -10.667 -16.5 -50.667 -49.5 -120s-69.833 -131.666 -110.5 -186.999h-109v27z" />
    <glyph glyph-name="dieresistonos" unicode="&#x385;" 
d="M532 1415c33.333 92.667 63.667 192.999 91 300.999h206v-20c-62 -109.333 -133.667 -211.666 -215 -306.999h-82v26zM395.001 1497c64.667 0 97 -34 97 -102c0 -32.667 -9.33301 -58 -28 -76s-41.667 -27 -69 -27c-64 0 -96 34.333 -96 103c0 68 32 102 96 102z
M831.001 1497c64.667 0 97 -34 97 -102c0 -68.667 -32.333 -103 -97 -103c-64 0 -96 34.333 -96 103c0 68 32 102 96 102z" />
    <glyph glyph-name="Alphatonos" unicode="&#x386;" 
d="M1004 0l-144 453h-491l-146 -453h-190l483 1468h195l485 -1468h-192zM807 618l-133.001 424c-26 82.667 -46.667 158 -62 226c-13.333 -66 -28.666 -127 -45.999 -183l-144 -467h385zM35.999 1163l30 106.999c20 76 33.333 140.667 40 194h199v-21
c0 -10.667 -16.5 -50.667 -49.5 -120s-69.833 -131.666 -110.5 -186.999h-109v27z" />
    <glyph glyph-name="anoteleia" unicode="&#x387;" 
d="M614 862c84.667 0 127 -46.333 127 -139s-42.333 -139 -127 -139s-127 46.333 -127 139s42.333 139 127 139z" />
    <glyph glyph-name="Epsilontonos" unicode="&#x388;" 
d="M1059 0h-842v1462h842v-164h-656v-452h617v-162h-617v-520h656v-164zM-114 1163l30 106.999c20 76 33.333 140.667 40 194h199v-21c0 -10.667 -16.5 -50.667 -49.5 -120s-69.833 -131.666 -110.5 -186.999h-109v27z" />
    <glyph glyph-name="Etatonos" unicode="&#x389;" 
d="M1094 0h-187v682h-585v-682h-187v1462h187v-616h585v616h187v-1462zM-155 1163l30 106.999c20 76 33.333 140.667 40 194h199v-21c0 -10.667 -16.5 -50.667 -49.5 -120s-69.833 -131.666 -110.5 -186.999h-109v27z" />
    <glyph glyph-name="Iotatonos" unicode="&#x38a;" 
d="M1001 0h-776v123l295 20v1176l-295 20v123h776v-123l-294 -20v-1176l294 -20v-123zM-93 1163l30 106.999c20 76 33.333 140.667 40 194h199v-21c0 -10.667 -16.5 -50.667 -49.5 -120s-69.833 -131.666 -110.5 -186.999h-109v27z" />
    <glyph glyph-name="Omicrontonos" unicode="&#x38c;" 
d="M616 -20c-354.667 0 -532 251.668 -532 755.001c0 500 178 750 534 750c170.667 0 301.5 -65.167 392.5 -195.5s136.5 -315.833 136.5 -556.5s-46 -426.334 -138 -557.001s-223 -196 -393 -196zM616 143.001c115.333 0 199.833 48.333 253.5 145s80.5 245 80.5 445
c0 202 -27.167 350.5 -81.5 445.5s-137.833 142.5 -250.5 142.5c-224.667 0 -337 -196 -337 -588c0 -393.333 111.667 -590 335 -590zM-132 1163l30 106.999c20 76 33.333 140.667 40 194h199v-21c0 -10.667 -16.5 -50.667 -49.5 -120s-69.833 -131.666 -110.5 -186.999
h-109v27z" />
    <glyph glyph-name="Upsilontonos" unicode="&#x38e;" 
d="M612 723l381 739h201l-487 -893v-569h-187v559l-487 903h203zM-237 1163l30 106.999c20 76 33.333 140.667 40 194h199v-21c0 -10.667 -16.5 -50.667 -49.5 -120s-69.833 -131.666 -110.5 -186.999h-109v27z" />
    <glyph glyph-name="Omegatonos" unicode="&#x38f;" 
d="M541 147l-0.000976562 -147h-467v164h266c-169.333 156.667 -254 377 -254 661c0 208 46.667 370 140 486s223.333 174 390 174s296.834 -58 390.501 -174s140.5 -278 140.5 -486c0 -286 -85.333 -506.333 -256 -661h268v-164h-469v147c173.333 154 260 378.667 260 674
c0 333.333 -112 500 -336 500c-223.333 0 -335 -166.667 -335 -500c0 -295.333 87.333 -520 262 -674zM-134.001 1163l30 106.999c20 76 33.333 140.667 40 194h199v-21c0 -10.667 -16.5 -50.667 -49.5 -120s-69.833 -131.666 -110.5 -186.999h-109v27z" />
    <glyph glyph-name="iotadieresistonos" unicode="&#x390;" 
d="M610 1098v-774c0 -130 64.333 -195 193 -195c74.667 0 145.667 7 213 21v-138c-62 -21.333 -137 -32 -225 -32c-242 0 -363 114.667 -363 344v774h182zM474 1415c33.333 92.667 63.667 192.999 91 300.999h206v-20c-62 -109.333 -133.667 -211.666 -215 -306.999h-82v26z
M337.001 1497c64.667 0 97 -34 97 -102c0 -32.667 -9.33301 -58 -28 -76s-41.667 -27 -69 -27c-64 0 -96 34.333 -96 103c0 68 32 102 96 102zM773.001 1497c64.667 0 97 -34 97 -102c0 -68.667 -32.333 -103 -97 -103c-64 0 -96 34.333 -96 103c0 68 32 102 96 102z" />
    <glyph glyph-name="Alpha" unicode="&#x391;" 
d="M1004 0l-144 453h-491l-146 -453h-190l483 1468h195l485 -1468h-192zM807 618l-133.001 424c-26 82.667 -46.667 158 -62 226c-13.333 -66 -28.666 -127 -45.999 -183l-144 -467h385z" />
    <glyph glyph-name="Beta" unicode="&#x392;" 
d="M135 1462h439.999c182.667 0 315.167 -29.167 397.5 -87.5s123.5 -152.5 123.5 -282.5c0 -85.333 -26.167 -156.333 -78.5 -213s-123.166 -91 -212.499 -103v-10c221.333 -36 332 -150 332 -342c0 -132 -42.5 -235.667 -127.5 -311s-200.833 -113 -347.5 -113h-527v1462z
M321.999 842l284 -0.000976562c104 0 179.833 18.333 227.5 55s71.5 97.334 71.5 182.001c0 80 -25.5 137.333 -76.5 172s-131.833 52 -242.5 52h-264v-461zM321.999 685.999v-528h307c207.333 0 311 91.333 311 274c0 169.333 -108 254 -324 254h-294z" />
    <glyph glyph-name="Gamma" unicode="&#x393;" 
d="M1071 1462v-166h-639v-1296h-186v1462h825z" />
    <glyph glyph-name="Delta" unicode="&#x394;" 
d="M1159 125v-125h-1091v133l450 1329h187zM610 1257c-34 -148.667 -63.332 -259.667 -87.999 -333l-254 -758h686l-252 752c-34.667 103.333 -65.334 216.333 -92.001 339z" />
    <glyph glyph-name="Epsilon" unicode="&#x395;" 
d="M1059 0h-842v1462h842v-164h-656v-452h617v-162h-617v-520h656v-164z" />
    <glyph glyph-name="Zeta" unicode="&#x396;" 
d="M1124 0h-1022v145l793 1151h-772v166h981v-145l-793 -1151h813v-166z" />
    <glyph glyph-name="Eta" unicode="&#x397;" 
d="M1094 0h-187v682h-585v-682h-187v1462h187v-616h585v616h187v-1462z" />
    <glyph glyph-name="Theta" unicode="&#x398;" 
d="M616 -20c-354.667 0 -532 251.668 -532 755.001c0 500 178 750 534 750c170.667 0 301.5 -65.167 392.5 -195.5s136.5 -315.833 136.5 -556.5s-46 -426.334 -138 -557.001s-223 -196 -393 -196zM616 143.001c115.333 0 199.833 48.333 253.5 145s80.5 245 80.5 445
c0 202 -27.167 350.5 -81.5 445.5s-137.833 142.5 -250.5 142.5c-224.667 0 -337 -196 -337 -588c0 -393.333 111.667 -590 335 -590zM410 825.001h411v-161h-411v161z" />
    <glyph glyph-name="Iota" unicode="&#x399;" 
d="M1001 0h-776v123l295 20v1176l-295 20v123h776v-123l-294 -20v-1176l294 -20v-123z" />
    <glyph glyph-name="Kappa" unicode="&#x39a;" 
d="M1198 0h-211l-450 698l-140 -114v-584h-186v1462h186v-731l121 168l453 563h209l-521 -637z" />
    <glyph glyph-name="Lambda" unicode="&#x39b;" 
d="M1196 0l-199 -0.000976562l-292 922c-42 132.667 -73 246 -93 340c-30 -133.333 -59.333 -244.666 -88 -333.999l-295 -928h-196l487 1462h187z" />
    <glyph glyph-name="Mu" unicode="&#x39c;" 
d="M532 0l-278 1280h-8c12 -177.333 18 -312.666 18 -405.999v-874h-151v1462h247l248 -1192h6l250 1192h252v-1462h-153v887c0 68 4.66699 198.333 14 391h-8l-283 -1278h-154z" />
    <glyph glyph-name="Nu" unicode="&#x39d;" 
d="M1092 0h-215l-580 1210h-8c12 -184.667 18 -323.667 18 -417v-793h-172v1462h213l578 -1204h6c-9.33301 202 -14 336.667 -14 404v800h174v-1462z" />
    <glyph glyph-name="Xi" unicode="&#x39e;" 
d="M152 1462h923v-164h-923v164zM233 846h760v-162h-760v162zM1116 164v-164h-1005v164h1005z" />
    <glyph glyph-name="Omicron" unicode="&#x39f;" 
d="M616 -20c-354.667 0 -532 251.668 -532 755.001c0 500 178 750 534 750c170.667 0 301.5 -65.167 392.5 -195.5s136.5 -315.833 136.5 -556.5s-46 -426.334 -138 -557.001s-223 -196 -393 -196zM616 143.001c115.333 0 199.833 48.333 253.5 145s80.5 245 80.5 445
c0 202 -27.167 350.5 -81.5 445.5s-137.833 142.5 -250.5 142.5c-224.667 0 -337 -196 -337 -588c0 -393.333 111.667 -590 335 -590z" />
    <glyph glyph-name="Pi" unicode="&#x3a0;" 
d="M1094 0h-187v1298h-585v-1298h-187v1462h959v-1462z" />
    <glyph glyph-name="Rho" unicode="&#x3a1;" 
d="M362 569v-569h-186v1462h404c342.667 0 514 -142.667 514 -428c0 -146 -46.167 -260 -138.5 -342s-226.5 -123 -402.5 -123h-191zM362 727h170c132 0 226.5 24 283.5 72s85.5 123 85.5 225c0 186 -112.667 279 -338 279h-201v-576z" />
    <glyph glyph-name="Sigma" unicode="&#x3a3;" 
d="M131 0v152l414 614l-402 549v147h893v-164h-680l389 -530l-409 -604h760v-164h-965z" />
    <glyph glyph-name="Tau" unicode="&#x3a4;" 
d="M707 0h-187v1298h-418v164h1022v-164h-417v-1298z" />
    <glyph glyph-name="Upsilon" unicode="&#x3a5;" 
d="M612 723l381 739h201l-487 -893v-569h-187v559l-487 903h203z" />
    <glyph glyph-name="Phi" unicode="&#x3a6;" 
d="M532 1483h166v-180h47c142 0 254 -51.5 336 -154.5s123 -233.167 123 -390.5s-42.167 -288.833 -126.5 -394.5s-202.5 -158.5 -354.5 -158.5h-25v-225h-166v225h-24c-153.333 0 -271.833 53 -355.5 159s-125.5 237.333 -125.5 394s40.833 286.667 122.5 390
s193.5 155 335.5 155h47v180zM698 362l7.00098 -0.000976562c103.333 0 183.666 35.5 240.999 106.5s86 168.833 86 293.5c0 114.667 -26.333 206.834 -79 276.501s-126.667 104.5 -222 104.5h-33v-781zM532.001 1143l-31.999 0.000976562
c-95.333 0 -169.333 -34.833 -222 -104.5s-79 -161.834 -79 -276.501c0 -124.667 28.667 -222.5 86 -293.5s137.666 -106.5 240.999 -106.5h6v781z" />
    <glyph glyph-name="Chi" unicode="&#x3a7;" 
d="M1174 0h-211l-355 635l-366 -635h-189l453 764l-422 698h199l331 -559l334 559h191l-422 -692z" />
    <glyph glyph-name="Psi" unicode="&#x3a8;" 
d="M1174 983c0 -191.333 -38.6689 -328.667 -116.002 -412s-191.666 -125 -342.999 -125h-17v-446h-166v446h-16c-153.333 0 -268.166 41.833 -344.499 125.5s-114.5 219.5 -114.5 407.5v483h172v-479c0 -154 23 -255.667 69 -305s118.667 -74 218 -74h16v858h166v-858h17
c99.333 0 171.833 24 217.5 72s68.5 149 68.5 303v483h173v-479z" />
    <glyph glyph-name="Omega" unicode="&#x3a9;" 
d="M541 147l-0.000976562 -147h-467v164h266c-169.333 156.667 -254 377 -254 661c0 208 46.667 370 140 486s223.333 174 390 174s296.834 -58 390.501 -174s140.5 -278 140.5 -486c0 -286 -85.333 -506.333 -256 -661h268v-164h-469v147c173.333 154 260 378.667 260 674
c0 333.333 -112 500 -336 500c-223.333 0 -335 -166.667 -335 -500c0 -295.333 87.333 -520 262 -674z" />
    <glyph glyph-name="Iotadieresis" unicode="&#x3aa;" 
d="M1001 0h-776v123l295 20v1176l-295 20v123h776v-123l-294 -20v-1176l294 -20v-123zM428 1835c64 0 96 -34 96 -102c0 -68.667 -32 -103 -96 -103s-96 34.333 -96 103c0 68 32 102 96 102zM803 1835c64 0 96 -34 96 -102c0 -68.667 -32 -103 -96 -103s-96 34.333 -96 103
c0 68 32 102 96 102z" />
    <glyph glyph-name="Upsilondieresis" unicode="&#x3ab;" 
d="M612 723l381 739h201l-487 -893v-569h-187v559l-487 903h203zM428 1835c64 0 96 -34 96 -102c0 -68.667 -32 -103 -96 -103s-96 34.333 -96 103c0 68 32 102 96 102zM803 1835c64 0 96 -34 96 -102c0 -68.667 -32 -103 -96 -103s-96 34.333 -96 103c0 68 32 102 96 102z
" />
    <glyph glyph-name="alphatonos" unicode="&#x3ac;" 
d="M862 950h12c20 68.667 42.667 118 68 148h143c-34 -110.667 -51 -257 -51 -439v-419c0 -74 28 -111 84 -111c19.333 0 39.333 3.33301 60 10v-133c-34.667 -17.333 -73 -26 -115 -26c-106 0 -172.333 55.667 -199 167h-12c-72 -111.333 -176.333 -167 -313 -167
c-130 0 -232.167 49.5 -306.5 148.5s-111.5 238.5 -111.5 418.5c0 182 38.333 322.667 115 422s183.667 149 321 149c140 0 241.667 -56 305 -168zM852 532v15.001c0 151.333 -22.333 259.166 -67 323.499s-116 96.5 -214 96.5c-174.667 0 -262 -140.667 -262 -422
c0 -276 88 -414 264 -414c98.667 0 169.167 30.667 211.5 92s64.833 164.333 67.5 309zM495 1268l30 106.999c20 76 33.333 140.667 40 194h199v-21c0 -10.667 -16.5 -50.667 -49.5 -120s-69.833 -131.666 -110.5 -186.999h-109v27z" />
    <glyph glyph-name="epsilontonos" unicode="&#x3ad;" 
d="M840 647v-153h-160c-200.667 0 -301 -61.667 -301 -185c0 -120 94.333 -180 283 -180c130.667 0 252.667 28.667 366 86v-160c-89.333 -50 -215 -75 -377 -75c-140.667 0 -250.834 28 -330.501 84s-119.5 134.333 -119.5 235c0 128.667 79 218 237 268v11
c-134.667 44 -202 127 -202 249c0 90 37.333 161 112 213s175 78 301 78c144 0 271.667 -25.333 383 -76l-63 -147c-107.333 48 -212.666 72 -315.999 72c-162 0 -243 -51.333 -243 -154c0 -110.667 92 -166 276 -166h154zM575 1268l30 106.999c20 76 33.333 140.667 40 194
h199v-21c0 -10.667 -16.5 -50.667 -49.5 -120s-69.833 -131.666 -110.5 -186.999h-109v27z" />
    <glyph glyph-name="etatonos" unicode="&#x3ae;" 
d="M887 -492v1199c0 173.333 -79.333 260 -238 260c-204.667 0 -307 -132.667 -307 -398v-569h-182v1098h147l27 -148h10c68 112 180 168 336 168c259.333 0 389 -133.667 389 -401v-1209h-182zM559 1268l30 106.999c20 76 33.333 140.667 40 194h199v-21
c0 -10.667 -16.5 -50.667 -49.5 -120s-69.833 -131.666 -110.5 -186.999h-109v27z" />
    <glyph glyph-name="iotatonos" unicode="&#x3af;" 
d="M610 1098v-774c0 -130 64.333 -195 193 -195c74.667 0 145.667 7 213 21v-138c-62 -21.333 -137 -32 -225 -32c-242 0 -363 114.667 -363 344v774h182zM470 1268l30 106.999c20 76 33.333 140.667 40 194h199v-21c0 -10.667 -16.5 -50.667 -49.5 -120
s-69.833 -131.666 -110.5 -186.999h-109v27z" />
    <glyph glyph-name="upsilondieresistonos" unicode="&#x3b0;" 
d="M160 1098h182v-590c0 -252.667 91.333 -379 274 -379c100 0 172.5 38.667 217.5 116s67.5 198.333 67.5 363c0 158 -21 321.333 -63 490h182c42 -163.333 63 -329.333 63 -498c0 -212 -38.333 -368.333 -115 -469s-196 -151 -358 -151c-300 0 -450 172.667 -450 518v600z
M529 1415c33.333 92.667 63.667 192.999 91 300.999h206v-20c-62 -109.333 -133.667 -211.666 -215 -306.999h-82v26zM392.001 1497c64.667 0 97 -34 97 -102c0 -32.667 -9.33301 -58 -28 -76s-41.667 -27 -69 -27c-64 0 -96 34.333 -96 103c0 68 32 102 96 102z
M828.001 1497c64.667 0 97 -34 97 -102c0 -68.667 -32.333 -103 -97 -103c-64 0 -96 34.333 -96 103c0 68 32 102 96 102z" />
    <glyph glyph-name="alpha" unicode="&#x3b1;" 
d="M862 950h12c20 68.667 42.667 118 68 148h143c-34 -110.667 -51 -257 -51 -439v-419c0 -74 28 -111 84 -111c19.333 0 39.333 3.33301 60 10v-133c-34.667 -17.333 -73 -26 -115 -26c-106 0 -172.333 55.667 -199 167h-12c-72 -111.333 -176.333 -167 -313 -167
c-130 0 -232.167 49.5 -306.5 148.5s-111.5 238.5 -111.5 418.5c0 182 38.333 322.667 115 422s183.667 149 321 149c140 0 241.667 -56 305 -168zM852 532v15.001c0 151.333 -22.333 259.166 -67 323.499s-116 96.5 -214 96.5c-174.667 0 -262 -140.667 -262 -422
c0 -276 88 -414 264 -414c98.667 0 169.167 30.667 211.5 92s64.833 164.333 67.5 309z" />
    <glyph glyph-name="beta" unicode="&#x3b2;" 
d="M723 829l0.000976562 -6c254 -32 381 -168.333 381 -409c0 -136.667 -40.833 -243.167 -122.5 -319.5s-194.5 -114.5 -338.5 -114.5c-124 0 -225 21 -303 63v-535h-182v1588c0 150.667 39.667 266.834 119 348.501s188.333 122.5 327 122.5c132 0 237.333 -35 316 -105
s118 -166 118 -288c0 -90.667 -26.833 -166.334 -80.5 -227.001s-131.834 -100 -234.501 -118zM340.001 209c90 -53.333 186.332 -80 288.999 -80c195.333 0 293 99.667 293 299c0 97.333 -31.667 173.5 -95 228.5s-148 82.5 -254 82.5h-94v152h70
c94.667 0 168.834 25 222.501 75s80.5 117 80.5 201c0 78.667 -22.333 140 -67 184s-105 66 -181 66c-176 0 -264 -110 -264 -330v-878z" />
    <glyph glyph-name="gamma" unicode="&#x3b3;" 
d="M739 63c-73.333 -186.667 -110 -371.666 -110 -554.999h-191c0 138 33.667 306 101 504l-457 1086h192l242 -592c47.333 -116 83 -222.667 107 -320h6c17.333 69.333 50 167.666 98 294.999l229 617h189z" />
    <glyph glyph-name="delta" unicode="&#x3b4;" 
d="M557 938c-169.333 96.667 -254.001 212.667 -254.001 348c0 88.667 30.333 157.667 91 207s144.334 74 251.001 74c132.667 0 263.667 -36.333 393 -109l-73 -145c-112.667 70.667 -222 106 -328 106c-49.333 0 -88.333 -12.167 -117 -36.5s-43 -57.833 -43 -100.5
c0 -42 14 -80.167 42 -114.5s99.333 -84.833 214 -151.5c240.667 -137.333 361 -310 361 -518c0 -164 -43.167 -291.333 -129.5 -382s-204.5 -136 -354.5 -136c-142 0 -256.667 41.167 -344 123.5s-131 193.833 -131 334.5c0 248 140.667 414.667 422 500zM683.999 854
c-237.333 -66.667 -356.001 -206.667 -356.001 -420c0 -90 25.333 -163 76 -219s119.334 -84 206.001 -84c196.667 0 295 116.667 295 350c0 162.667 -73.667 287 -221 373z" />
    <glyph glyph-name="epsilon" unicode="&#x3b5;" 
d="M840 647v-153h-160c-200.667 0 -301 -61.667 -301 -185c0 -120 94.333 -180 283 -180c130.667 0 252.667 28.667 366 86v-160c-89.333 -50 -215 -75 -377 -75c-140.667 0 -250.834 28 -330.501 84s-119.5 134.333 -119.5 235c0 128.667 79 218 237 268v11
c-134.667 44 -202 127 -202 249c0 90 37.333 161 112 213s175 78 301 78c144 0 271.667 -25.333 383 -76l-63 -147c-107.333 48 -212.666 72 -315.999 72c-162 0 -243 -51.333 -243 -154c0 -110.667 92 -166 276 -166h154z" />
    <glyph glyph-name="zeta" unicode="&#x3b6;" 
d="M223 1556l837.999 0.00195312v-141c-264 -192 -448.5 -353.667 -553.5 -485s-157.5 -282.333 -157.5 -453c0 -102 27.667 -174.5 83 -217.5s159.333 -77.5 312 -103.5c114 -20 196.167 -46.833 246.5 -80.5s75.5 -87.5 75.5 -161.5c0 -99.333 -40.333 -204.333 -121 -315
h-170c80.667 108 121 194.667 121 260c0 38 -17.167 67.833 -51.5 89.5s-116.166 42.167 -245.499 61.5c-152.667 23.333 -263.834 72.166 -333.501 146.499s-104.5 178.5 -104.5 312.5c0 171.333 53.667 330.666 161 477.999s286.333 303.333 537 468
c-143.333 -8 -260.666 -12 -351.999 -12h-285v153z" />
    <glyph glyph-name="eta" unicode="&#x3b7;" 
d="M887 -492v1199c0 173.333 -79.333 260 -238 260c-204.667 0 -307 -132.667 -307 -398v-569h-182v1098h147l27 -148h10c68 112 180 168 336 168c259.333 0 389 -133.667 389 -401v-1209h-182z" />
    <glyph glyph-name="theta" unicode="&#x3b8;" 
d="M612 -20c-152.667 0 -268.333 63.833 -347 191.5s-118 313.5 -118 557.5c0 253.333 38 441 114 563s193 183 351 183c154 0 270.667 -63.5 350 -190.5s119 -312.167 119 -555.5c0 -499.333 -156.333 -749 -469 -749zM332.001 807h562.998
c-4.66699 173.333 -29.167 302.666 -73.5 387.999s-114.166 128 -209.499 128c-92.667 0 -161.167 -41.667 -205.5 -125s-69.166 -213.666 -74.499 -390.999zM894.999 670h-563c4 -185.333 28 -321.5 72 -408.5s113.333 -130.5 208 -130.5s164.5 42.667 209.5 128
s69.5 222.333 73.5 411z" />
    <glyph glyph-name="iota" unicode="&#x3b9;" 
d="M610 1098v-774c0 -130 64.333 -195 193 -195c74.667 0 145.667 7 213 21v-138c-62 -21.333 -137 -32 -225 -32c-242 0 -363 114.667 -363 344v774h182z" />
    <glyph glyph-name="kappa" unicode="&#x3ba;" 
d="M383 508l137 166l402 424h213l-494 -510l522 -588h-213l-426 469l-129 -82v-387h-180v1098h180v-291l-16 -299h4z" />
    <glyph glyph-name="lambda" unicode="&#x3bb;" 
d="M61 0l504.002 1083l-53 160c-22.667 69.333 -48.334 116 -77.001 140s-67.334 36 -116.001 36c-37.333 0 -72 -4 -104 -12v145c43.333 11.333 85.666 17 126.999 17c94.667 0 165.667 -22.5 213 -67.5s94.333 -137.833 141 -278.5l326 -983
c24.667 -74 58.667 -111 102 -111c19.333 0 39.333 3.33301 60 10v-133c-33.333 -17.333 -71.666 -26 -114.999 -26c-54.667 0 -96.5 13.333 -125.5 40s-52.833 69 -71.5 127l-135 418c-46 142.667 -77.333 254.667 -94 336h-6c-24 -92 -63.667 -199 -119 -321l-268 -580
h-189z" />
    <glyph glyph-name="mu" unicode="&#x3bc;" 
d="M342 391c0 -173.333 79.333 -260 238 -260c106.667 0 184.5 31 233.5 93s73.5 163.333 73.5 304v570h182v-1098h-147l-27 147h-10c-64.667 -111.333 -165 -167 -301 -167c-115.333 0 -198 29.333 -248 88c4 -102 6 -182 6 -240v-320h-182v1590h182v-707z" />
    <glyph glyph-name="nu" unicode="&#x3bd;" 
d="M61 1098l189 -0.00195312l223 -586c73.333 -192.667 113.666 -312 120.999 -358h6c104.667 109.333 183.334 232.333 236.001 369s79 328.334 79 575.001h183c0 -243.333 -33.5 -446.666 -100.5 -609.999s-175.5 -326 -325.5 -488h-187z" />
    <glyph glyph-name="xi" unicode="&#x3be;" 
d="M985 887l0.000976562 -137.001h-201c-138 0 -243.167 -27.167 -315.5 -81.5s-108.5 -131.166 -108.5 -230.499c0 -60.667 12.667 -108.5 38 -143.5s61.166 -61.833 107.499 -80.5s129.166 -38.667 248.499 -60c108 -19.333 187.167 -45.666 237.5 -78.999
s75.5 -87 75.5 -161c0 -99.333 -40.333 -204.333 -121 -315h-170c80.667 108 121 195.333 121 262c0 35.333 -16.5 63.833 -49.5 85.5s-112.167 42.167 -237.5 61.5c-292 45.333 -438 183.333 -438 414c0 89.333 25.167 169.166 75.5 239.499s119.5 119.5 207.5 147.5v12
c-143.333 39.333 -215 132.333 -215 279c0 76 25 139 75 189s136.667 92 260 126c-117.333 -8 -210.666 -12 -279.999 -12h-62v153h764v-153h-69c-144.667 0 -266.167 -26.667 -364.5 -80s-147.5 -126.333 -147.5 -219c0 -75.333 30.5 -130.333 91.5 -165
s156.833 -52 287.5 -52h190z" />
    <glyph glyph-name="omicron" unicode="&#x3bf;" 
d="M610 -20c-144 0 -262.499 51.833 -355.499 155.5s-139.5 242.167 -139.5 415.5c0 175.333 45.167 313.666 135.5 414.999s212.166 152 365.499 152c145.333 0 264.333 -51.667 357 -155s139 -240.666 139 -411.999c0 -176.667 -45.667 -316 -137 -418
s-213 -153 -365 -153zM614.001 131c206.667 0 310 140 310 420c0 277.333 -104 416 -312 416c-206 0 -309 -138.667 -309 -416c0 -280 103.667 -420 311 -420z" />
    <glyph glyph-name="pi" unicode="&#x3c0;" 
d="M1184 150l0.000976562 -144c-34.667 -17.333 -80.334 -26 -137.001 -26c-150.667 0 -226 87.333 -226 262v702h-403v-944h-182v944h-222v74l138 80h1062v-154h-210v-690c0 -83.333 30 -125 90 -125c30.667 0 60.667 7 90 21z" />
    <glyph glyph-name="rho" unicode="&#x3c1;" 
d="M340 70h-6c4 -116 6 -206.333 6 -271v-291h-182v1043c0 175.333 42.167 313.666 126.5 414.999s199.166 152 344.499 152c137.333 0 247.333 -51.167 330 -153.5s124 -240.166 124 -413.499c0 -180 -41.167 -320.167 -123.5 -420.5s-195.166 -150.5 -338.499 -150.5
c-112 0 -205.667 30 -281 90zM340 231c74.667 -66.667 169 -99.999 283 -99.999c96 0 165.333 35.167 208 105.5s64 175.166 64 314.499s-21.667 243.5 -65 312.5s-113 103.5 -209 103.5c-187.333 0 -281 -132 -281 -396v-340z" />
    <glyph glyph-name="sigma1" unicode="&#x3c2;" 
d="M940 -401l-165.999 0.000976562c80.667 108.667 121 196 121 262c0 40 -22 69.833 -66 89.5s-120.333 38.834 -229 57.501c-285.333 47.333 -428 216.666 -428 507.999c0 401.333 189 602 567 602c109.333 0 216.666 -19.667 321.999 -59l-62 -158
c-105.333 38 -196 57 -272 57c-244.667 0 -367 -146.667 -367 -440c0 -124.667 25.833 -209.334 77.5 -254.001s141.5 -78.667 269.5 -102c238.667 -44 358 -128 358 -252c0 -94 -41.667 -197.667 -125 -311z" />
    <glyph glyph-name="sigma" unicode="&#x3c3;" 
d="M1174 1098v-154h-267c118.667 -130 178 -276.667 178 -440c0 -156.667 -42.833 -283.167 -128.5 -379.5s-203.167 -144.5 -352.5 -144.5c-147.333 0 -263.333 47.833 -348 143.5s-127 229.167 -127 400.5c0 382.667 185 574 555 574h490zM743 944h-59.001
c-132.667 0 -227 -32.5 -283 -97.5s-84 -172.5 -84 -322.5c0 -123.333 25.5 -219.666 76.5 -288.999s123.833 -104 218.5 -104c92.667 0 163.334 31.833 212.001 95.5s73 153.5 73 269.5c0 179.333 -51.333 328.666 -154 447.999z" />
    <glyph glyph-name="tau" unicode="&#x3c4;" 
d="M1081 1098v-154h-475v-606c0 -143.333 69.667 -215 209 -215c71.333 0 135 6.66699 191 20v-135c-56 -23.333 -129.333 -35 -220 -35c-241.333 0 -362 114.667 -362 344v627h-318v74l134 80h841z" />
    <glyph glyph-name="upsilon" unicode="&#x3c5;" 
d="M160 1098h182v-590c0 -252.667 91.333 -379 274 -379c100 0 172.5 38.667 217.5 116s67.5 198.333 67.5 363c0 158 -21 321.333 -63 490h182c42 -163.333 63 -329.333 63 -498c0 -212 -38.333 -368.333 -115 -469s-196 -151 -358 -151c-300 0 -450 172.667 -450 518v600z
" />
    <glyph glyph-name="phi" unicode="&#x3c6;" 
d="M524 -492l0.000976562 474.001c-300 16.667 -450 205 -450 565c0 209.333 69 395.666 207 558.999l120 -90c-64.667 -86 -108.334 -163.333 -131.001 -232s-34 -147.667 -34 -237c0 -255.333 96 -394 288 -416v606c0 254 93.667 381 281 381
c109.333 0 195 -49.167 257 -147.5s93 -231.5 93 -399.5c0 -176 -41.667 -315.833 -125 -419.5s-199.333 -160.167 -348 -169.5v-474h-158zM682.001 131.001c203.333 19.333 305 165.333 305 438c0 265.333 -58.667 398 -176 398c-86 0 -129 -76 -129 -228v-608z" />
    <glyph glyph-name="chi" unicode="&#x3c7;" 
d="M637 506l310.997 592h178l-417 -776l186 -461c30.667 -76 59.334 -128.833 86.001 -158.5s61.334 -44.5 104.001 -44.5c29.333 0 56 2.66699 80 8v-139c-44 -12.667 -83.333 -19 -118 -19c-68 0 -124.5 15 -169.5 45s-91.167 104 -138.5 222l-147 377l-354 -644h-195
l475 830l-180 446c-45.333 112 -96 168 -152 168c-19.333 0 -40.333 -3.33301 -63 -10v143c35.333 11.333 78.333 17 129 17c54 0 99.333 -18.167 136 -54.5s73.334 -100.833 110.001 -193.5z" />
    <glyph glyph-name="psi" unicode="&#x3c8;" 
d="M682 1554l-0.000976562 -1421c200.667 18.667 301 164 301 436c0 166.667 -21 343 -63 529h172c42 -184 63 -358.333 63 -523c0 -378 -157.667 -575.667 -473 -593v-474h-158v474c-155.333 5.33301 -268.166 53 -338.499 143s-105.5 233.333 -105.5 430v543h172v-529
c0 -281.333 90.667 -427.333 272 -438v1423h158z" />
    <glyph glyph-name="omega" unicode="&#x3c9;" 
d="M195 1098l165 0.000976562c-69.333 -174.667 -104 -363.334 -104 -566.001c0 -267.333 46.333 -401 139 -401c44.667 0 79.5 23.667 104.5 71s37.5 113 37.5 197v306h157v-306c0 -86.667 13.167 -153 39.5 -199s60.5 -69 102.5 -69c92.667 0 139 133.667 139 401
c0 204 -35 392.667 -105 566h166c70 -172 105 -360.667 105 -566c0 -368 -96.333 -552 -289 -552c-120.667 0 -197.667 59.333 -231 178h-11c-33.333 -118.667 -110.333 -178 -231 -178c-192.667 0 -289 184 -289 552c0 201.333 35 390 105 566z" />
    <glyph glyph-name="iotadieresis" unicode="&#x3ca;" 
d="M610 1098v-774c0 -130 64.333 -195 193 -195c74.667 0 145.667 7 213 21v-138c-62 -21.333 -137 -32 -225 -32c-242 0 -363 114.667 -363 344v774h182zM355 1497c64 0 96 -34 96 -102c0 -68.667 -32 -103 -96 -103s-96 34.333 -96 103c0 68 32 102 96 102zM730 1497
c64 0 96 -34 96 -102c0 -68.667 -32 -103 -96 -103s-96 34.333 -96 103c0 68 32 102 96 102z" />
    <glyph glyph-name="upsilondieresis" unicode="&#x3cb;" 
d="M160 1098h182v-590c0 -252.667 91.333 -379 274 -379c100 0 172.5 38.667 217.5 116s67.5 198.333 67.5 363c0 158 -21 321.333 -63 490h182c42 -163.333 63 -329.333 63 -498c0 -212 -38.333 -368.333 -115 -469s-196 -151 -358 -151c-300 0 -450 172.667 -450 518v600z
M426 1497c64 0 96 -34 96 -102c0 -68.667 -32 -103 -96 -103s-96 34.333 -96 103c0 68 32 102 96 102zM801 1497c64 0 96 -34 96 -102c0 -68.667 -32 -103 -96 -103s-96 34.333 -96 103c0 68 32 102 96 102z" />
    <glyph glyph-name="omicrontonos" unicode="&#x3cc;" 
d="M610 -20c-144 0 -262.499 51.833 -355.499 155.5s-139.5 242.167 -139.5 415.5c0 175.333 45.167 313.666 135.5 414.999s212.166 152 365.499 152c145.333 0 264.333 -51.667 357 -155s139 -240.666 139 -411.999c0 -176.667 -45.667 -316 -137 -418
s-213 -153 -365 -153zM614.001 131c206.667 0 310 140 310 420c0 277.333 -104 416 -312 416c-206 0 -309 -138.667 -309 -416c0 -280 103.667 -420 311 -420zM551.001 1268l30 106.999c20 76 33.333 140.667 40 194h199v-21c0 -10.667 -16.5 -50.667 -49.5 -120
s-69.833 -131.666 -110.5 -186.999h-109v27z" />
    <glyph glyph-name="upsilontonos" unicode="&#x3cd;" 
d="M160 1098h182v-590c0 -252.667 91.333 -379 274 -379c100 0 172.5 38.667 217.5 116s67.5 198.333 67.5 363c0 158 -21 321.333 -63 490h182c42 -163.333 63 -329.333 63 -498c0 -212 -38.333 -368.333 -115 -469s-196 -151 -358 -151c-300 0 -450 172.667 -450 518v600z
M518 1268l30 106.999c20 76 33.333 140.667 40 194h199v-21c0 -10.667 -16.5 -50.667 -49.5 -120s-69.833 -131.666 -110.5 -186.999h-109v27z" />
    <glyph glyph-name="omegatonos" unicode="&#x3ce;" 
d="M195 1098l165 0.000976562c-69.333 -174.667 -104 -363.334 -104 -566.001c0 -267.333 46.333 -401 139 -401c44.667 0 79.5 23.667 104.5 71s37.5 113 37.5 197v306h157v-306c0 -86.667 13.167 -153 39.5 -199s60.5 -69 102.5 -69c92.667 0 139 133.667 139 401
c0 204 -35 392.667 -105 566h166c70 -172 105 -360.667 105 -566c0 -368 -96.333 -552 -289 -552c-120.667 0 -197.667 59.333 -231 178h-11c-33.333 -118.667 -110.333 -178 -231 -178c-192.667 0 -289 184 -289 552c0 201.333 35 390 105 566zM530 1268l30 106.999
c20 76 33.333 140.667 40 194h199v-21c0 -10.667 -16.5 -50.667 -49.5 -120s-69.833 -131.666 -110.5 -186.999h-109v27z" />
    <glyph glyph-name="theta1" unicode="&#x3d1;" 
d="M874 977c-8.66699 72 -22.498 136.332 -41.498 192.999s-41.333 104.334 -67 143.001s-53.667 68.167 -84 88.5s-61.5 30.5 -93.5 30.5c-50.667 0 -90.334 -14.667 -119.001 -44s-43 -68 -43 -116c0 -37.333 7.66699 -73.5 23 -108.5s40.666 -66.167 75.999 -93.5
s81.5 -49.5 138.5 -66.5s127.167 -25.833 210.5 -26.5zM1065 839.999c1.33301 -14.667 2.33398 -31.6641 3.00098 -50.9971s1 -39.333 1 -60c0 -106 -10.667 -204.667 -32 -296s-53.5 -170.5 -96.5 -237.5s-97.167 -119.667 -162.5 -158s-141.666 -57.5 -228.999 -57.5
c-74 0 -135.333 9.16699 -184 27.5s-87.334 43.333 -116.001 75s-48.667 68.334 -60 110.001s-17 85.5 -17 131.5c0 26.667 1.66699 55.5 5 86.5s6.83301 61.333 10.5 91l10.5 82c3.33301 25 5 45.5 5 61.5c0 30 -5.16699 50.5 -15.5 61.5s-25.833 16.5 -46.5 16.5
c-16 0 -33 -2.5 -51 -7.5s-32.333 -10.833 -43 -17.5l-37 127c24.667 11.333 53.667 21.333 87 30s68 13 104 13c33.333 0 61.5 -4.66699 84.5 -14s41.833 -22.333 56.5 -39s25.167 -36.334 31.5 -59.001s9.5 -47.334 9.5 -74.001c0 -23.333 -1.66699 -49.333 -5 -78
l-10.5 -89.5c-3.66699 -31 -7.16699 -62.667 -10.5 -95s-5 -63.5 -5 -93.5c0 -28 3.5 -54.333 10.5 -79s18.5 -46 34.5 -64s37 -32.167 63 -42.5s58.333 -15.5 97 -15.5c109.333 0 191.333 51 246 153s82 254.333 82 457c0 15.333 -0.333008 33.333 -1 54
s-1.66699 37.667 -3 51c-116 1.33301 -214.333 14.5 -295 39.5s-146 57.5 -196 97.5s-86.167 85.667 -108.5 137s-33.5 104 -33.5 158c0 44.667 6.5 85.667 19.5 123s33 69.666 60 96.999s61.667 48.666 104 63.999s93.166 23 152.499 23c69.333 0 130.833 -14 184.5 -42
s100 -68 139 -120s71 -115.167 96 -189.5s43.5 -157.833 55.5 -250.5h143v-137h-137z" />
    <glyph glyph-name="Upsilon1" unicode="&#x3d2;" 
d="M612 731c16.667 50 37.5039 103 62.5039 159l76.5 164l75.5 148.5l60.5 112.5c14.667 26.667 29.667 50.167 45 70.5s32 37 50 50s37.667 22.833 59 29.5s45.666 10 72.999 10c22.667 0 41.167 -1.5 55.5 -4.5s27.166 -7.16699 38.499 -12.5v-145
c-8 2 -17.5 3.83301 -28.5 5.5s-20.5 2.5 -28.5 2.5c-18.667 0 -38.334 -7.83301 -59.001 -23.5s-42.667 -43.5 -66 -83.5l-35.5 -62.5l-52.5 -96.5l-62 -119.5c-22 -43 -43.5 -87.167 -64.5 -132.5s-40.833 -90.333 -59.5 -135s-34.334 -87 -47.001 -127v-541h-187v559
l-487 903h202z" />
    <glyph glyph-name="omega1" unicode="&#x3d6;" 
d="M379 -20c-52.667 0 -97.333 11.333 -134 34s-66.5 55.334 -89.5 98.001s-39.667 94.167 -50 154.5s-15.5 128.5 -15.5 204.5c0 44.667 1.66699 86.334 5 125.001s8.66602 76.334 15.999 113.001s16.833 74 28.5 112s25.834 79 42.501 123h-164v74l134 80h1052v-154h-155
c16 -44 29.833 -85 41.5 -123s21.334 -75.333 29.001 -112s13.167 -74.334 16.5 -113.001s5 -80.334 5 -125.001c0 -76 -5.16699 -144.167 -15.5 -204.5s-27 -111.833 -50 -154.5s-52.833 -75.334 -89.5 -98.001s-81.334 -34 -134.001 -34
c-62.667 0 -112.5 14.5 -149.5 43.5s-64.167 73.833 -81.5 134.5h-11c-17.333 -60.667 -44.5 -105.5 -81.5 -134.5s-86.833 -43.5 -149.5 -43.5zM975.001 471c0 41.333 -1.66699 81 -5 119s-8.83301 75.667 -16.5 113s-17.334 75.666 -29.001 114.999
s-25.5 81.333 -41.5 126h-535c-16.667 -44.667 -30.834 -86.667 -42.501 -126s-21.167 -77.666 -28.5 -114.999s-12.666 -75 -15.999 -113s-5 -77.667 -5 -119c0 -60.667 2.66699 -112.5 8 -155.5s13.833 -78.167 25.5 -105.5s26.167 -47.333 43.5 -60s38 -19 62 -19
s45 6.83301 63 20.5s32.833 32.5 44.5 56.5s20.334 52.333 26.001 85s8.5 68 8.5 106v203h157v-203c0 -86.667 13.167 -153 39.5 -199s60.5 -69 102.5 -69c24 0 44.667 6.33301 62 19s31.833 32.667 43.5 60s20.167 62.5 25.5 105.5s8 94.833 8 155.5z" />
    <glyph glyph-name="uni0400" unicode="&#x400;" 
d="M1059 0h-842v1462h842v-164h-656v-452h617v-162h-617v-520h656v-164zM738 1579h-120.999c-110.667 94.667 -201.334 197 -272.001 307v21h219c57.333 -118.667 115.333 -219 174 -301v-27z" />
    <glyph glyph-name="afii10023" unicode="&#x401;" 
d="M1059 0h-842v1462h842v-164h-656v-452h617v-162h-617v-520h656v-164zM451 1835c64 0 96 -34 96 -102c0 -68.667 -32 -103 -96 -103s-96 34.333 -96 103c0 68 32 102 96 102zM826 1835c64 0 96 -34 96 -102c0 -68.667 -32 -103 -96 -103s-96 34.333 -96 103
c0 68 32 102 96 102z" />
    <glyph glyph-name="afii10051" unicode="&#x402;" 
d="M664 4l-0.000976562 160c45.333 -14 90.333 -21 135 -21c120 0 180 75.333 180 226v133c0 154 -75.667 231 -227 231h-244v-733h-186v1298h-299v164h841v-164h-356v-401h264c124.667 0 221.334 -32.167 290.001 -96.5s103 -155.833 103 -274.5v-137
c0 -130.667 -31.5 -231.5 -94.5 -302.5s-151.5 -106.5 -265.5 -106.5c-58.667 0 -105.667 8 -141 24z" />
    <glyph glyph-name="afii10052" unicode="&#x403;" 
d="M1071 1462v-166h-639v-1296h-186v1462h825zM527 1606c62.667 88.667 120.668 188.999 174.001 300.999h219v-21c-74.667 -115.333 -165.334 -217.666 -272.001 -306.999h-121v27z" />
    <glyph glyph-name="afii10053" unicode="&#x404;" 
d="M332 846l628.998 -0.00195312v-162h-635c15.333 -360.667 172.333 -541 471 -541c86.667 0 195.667 19.333 327 58v-162c-97.333 -39.333 -216.666 -59 -357.999 -59c-206 0 -363.667 65.333 -473 196s-164 316.334 -164 557.001c0 230.667 59.667 413.334 179 548.001
s282.333 202 489 202c146.667 0 274.334 -28.667 383.001 -86l-78 -156c-102.667 52 -204.334 78 -305.001 78c-125.333 0 -229.666 -41.5 -312.999 -124.5s-134 -199.167 -152 -348.5z" />
    <glyph glyph-name="afii10054" unicode="&#x405;" 
d="M141 49l-0.00195312 178c140.667 -57.333 278.667 -86 414 -86c233.333 0 350 80 350 240c0 69.333 -23.5 122.666 -70.5 159.999s-142.167 81.666 -285.5 132.999c-138.667 48.667 -238.167 106.834 -298.5 174.501s-90.5 155.5 -90.5 263.5
c0 116 42.833 206.833 128.5 272.5s203.167 98.5 352.5 98.5c152.667 0 291.334 -26 416.001 -78l-64 -164c-128.667 52 -248.667 78 -360 78c-195.333 0 -293 -69.667 -293 -209c0 -68 21.833 -122.667 65.5 -164s133.834 -85.666 270.501 -132.999
c164 -58.667 273.5 -119.167 328.5 -181.5s82.5 -142.5 82.5 -240.5c0 -128 -46.167 -228.5 -138.5 -301.5s-223.5 -109.5 -393.5 -109.5c-176.667 0 -314.667 23 -414 69z" />
    <glyph glyph-name="afii10055" unicode="&#x406;" 
d="M1001 0h-776v123l295 20v1176l-295 20v123h776v-123l-294 -20v-1176l294 -20v-123z" />
    <glyph glyph-name="afii10056" unicode="&#x407;" 
d="M1001 0h-776v123l295 20v1176l-295 20v123h776v-123l-294 -20v-1176l294 -20v-123zM428 1835c64 0 96 -34 96 -102c0 -68.667 -32 -103 -96 -103s-96 34.333 -96 103c0 68 32 102 96 102zM803 1835c64 0 96 -34 96 -102c0 -68.667 -32 -103 -96 -103s-96 34.333 -96 103
c0 68 32 102 96 102z" />
    <glyph glyph-name="afii10057" unicode="&#x408;" 
d="M137 39v166c108 -41.333 211 -62 309 -62c107.333 0 192 26.5 254 79.5s93 128.5 93 226.5v1013h186v-1011c0 -144 -46.833 -258.5 -140.5 -343.5s-219.5 -127.5 -377.5 -127.5c-144.667 0 -252.667 19.667 -324 59z" />
    <glyph glyph-name="afii10058" unicode="&#x409;" 
d="M375 1298l-20.001 -547.998c-13.333 -382 -41.166 -605.833 -83.499 -671.5s-100.833 -98.5 -175.5 -98.5c-37.333 0 -69.333 6 -96 18v145c21.333 -9.33301 44 -14 68 -14c23.333 0 43.833 11.667 61.5 35s30.667 65.666 39 126.999s19.333 236.166 33 524.499
s21.5 503.833 23.5 646.5h498v-616h39c297.333 0 446 -139.333 446 -418c0 -138.667 -38 -244.667 -114 -318s-186 -110 -330 -110h-207v1298h-182zM722.999 160.002h45c178.667 0 268 89.333 268 268c0 89.333 -23 154 -69 194s-120.667 60 -224 60h-20v-522z" />
    <glyph glyph-name="afii10059" unicode="&#x40a;" 
d="M549 0v682h-318v-682h-165v1462h165v-616h318v616h166v-616h39c146 0 256.833 -35.833 332.5 -107.5s113.5 -175.167 113.5 -310.5c0 -138.667 -38 -244.667 -114 -318s-186 -110 -330 -110h-207zM715 160h45c178.667 0 268 89.333 268 268c0 89.333 -23 154 -69 194
s-120.667 60 -224 60h-20v-522z" />
    <glyph glyph-name="afii10060" unicode="&#x40b;" 
d="M508 897h263.999c124.667 0 221.334 -32.167 290.001 -96.5s103 -155.833 103 -274.5v-526h-186v502c0 154 -75.667 231 -227 231h-244v-733h-186v1298h-299v164h841v-164h-356v-401z" />
    <glyph glyph-name="afii10061" unicode="&#x40c;" 
d="M1198 0h-219l-582 741v-741h-186v1462h186v-708l566 708h206l-565 -702zM574 1606c62.667 88.667 120.668 188.999 174.001 300.999h219v-21c-74.667 -115.333 -165.334 -217.666 -272.001 -306.999h-121v27z" />
    <glyph glyph-name="uni040D" unicode="&#x40d;" 
d="M137 1462l174 0.000976562v-800c0 -94.667 -2.33301 -179.334 -7 -254.001l-7 -150h6l578 1204h213v-1462h-172v793c0 93.333 6 232.333 18 417h-8l-580 -1210h-215v1462zM736 1579h-120.999c-110.667 94.667 -201.334 197 -272.001 307v21h219
c57.333 -118.667 115.333 -219 174 -301v-27z" />
    <glyph glyph-name="afii10062" unicode="&#x40e;" 
d="M1200 1462l-428 -1030c-50.667 -122 -96 -211.5 -136 -268.5s-89.667 -101.833 -149 -134.5s-131 -49 -215 -49c-69.333 0 -128.666 10 -177.999 30v185c56.667 -30 116 -45 178 -45c73.333 0 130.166 17.167 170.499 51.5s78.5 92.166 114.5 173.499l-530 1087h204
l383 -809c8 -16.667 14.667 -32.334 20 -47.001c5.33301 -16.667 11 -31.667 17 -45h2l39 109l312 792h196zM1003 1897c-13.333 -212 -142.999 -317.999 -388.999 -317.999c-130 0 -223.667 24.667 -281 74s-89.333 130.666 -96 243.999h170
c5.33301 -68 22 -116.167 50 -144.5s81.667 -42.5 161 -42.5c129.333 0 199.666 62.333 210.999 187h174z" />
    <glyph glyph-name="afii10145" unicode="&#x40f;" 
d="M1094 0h-394v-385h-176v385h-389v1462h187v-1296h585v1296h187v-1462z" />
    <glyph glyph-name="afii10017" unicode="&#x410;" 
d="M1004 0l-144 453h-491l-146 -453h-190l483 1468h195l485 -1468h-192zM807 618l-133.001 424c-26 82.667 -46.667 158 -62 226c-13.333 -66 -28.666 -127 -45.999 -183l-144 -467h385z" />
    <glyph glyph-name="afii10018" unicode="&#x411;" 
d="M135 0v1462h912v-164h-725v-452h272c360.667 0 541 -139.333 541 -418c0 -138.667 -43.833 -244.667 -131.5 -318s-215.167 -110 -382.5 -110h-486zM322 160h282c225.333 0 338 89.333 338 268c0 88.667 -28.5 153.167 -85.5 193.5s-151.5 60.5 -283.5 60.5h-251v-522z
" />
    <glyph glyph-name="afii10019" unicode="&#x412;" 
d="M135 1462h439.999c182.667 0 315.167 -29.167 397.5 -87.5s123.5 -152.5 123.5 -282.5c0 -85.333 -26.167 -156.333 -78.5 -213s-123.166 -91 -212.499 -103v-10c221.333 -36 332 -150 332 -342c0 -132 -42.5 -235.667 -127.5 -311s-200.833 -113 -347.5 -113h-527v1462z
M321.999 842l284 -0.000976562c104 0 179.833 18.333 227.5 55s71.5 97.334 71.5 182.001c0 80 -25.5 137.333 -76.5 172s-131.833 52 -242.5 52h-264v-461zM321.999 685.999v-528h307c207.333 0 311 91.333 311 274c0 169.333 -108 254 -324 254h-294z" />
    <glyph glyph-name="afii10020" unicode="&#x413;" 
d="M1071 1462v-166h-639v-1296h-186v1462h825z" />
    <glyph glyph-name="afii10021" unicode="&#x414;" 
d="M1221 -385h-177v385h-862v-385h-176v551h113c86 157.333 158 355.333 216 594s91 472.667 99 702h592v-1296h195v-551zM840 166l-0.00195312 1130h-242c-11.333 -177.333 -44.166 -376.166 -98.499 -596.499s-117.166 -398.166 -188.499 -533.499h529z" />
    <glyph glyph-name="afii10022" unicode="&#x415;" 
d="M1059 0h-842v1462h842v-164h-656v-452h617v-162h-617v-520h656v-164z" />
    <glyph glyph-name="afii10024" unicode="&#x416;" 
d="M373 754l-361 708h178l349 -708v708h155v-708l342 708h178l-356 -708l371 -754h-185l-350 741v-741h-155v741l-357 -741h-182z" />
    <glyph glyph-name="afii10025" unicode="&#x417;" 
d="M702 770l0.000976562 -6c118.667 -15.333 209.834 -53.333 273.501 -114s95.5 -138.667 95.5 -234c0 -135.333 -47.333 -241.833 -142 -319.5s-229 -116.5 -403 -116.5c-161.333 0 -290.333 26.333 -387 79v170c122.667 -64 250.334 -96 383.001 -96
c236.667 0 355 94.333 355 283c0 176 -131.333 264 -394 264h-190v151h176c120 0 213.5 24.667 280.5 74s100.5 115.666 100.5 198.999c0 68.667 -23.333 123.334 -70 164.001s-109.334 61 -188.001 61c-124 0 -242 -40.333 -354 -121l-93 125c129.333 100 281 150 455 150
c139.333 0 248.166 -33 326.499 -99s117.5 -154 117.5 -264c0 -91.333 -29.833 -168 -89.5 -230s-143.834 -102 -252.501 -120z" />
    <glyph glyph-name="afii10026" unicode="&#x418;" 
d="M137 1462l174 0.000976562v-800c0 -94.667 -2.33301 -179.334 -7 -254.001l-7 -150h6l578 1204h213v-1462h-172v793c0 93.333 6 232.333 18 417h-8l-580 -1210h-215v1462z" />
    <glyph glyph-name="afii10027" unicode="&#x419;" 
d="M137 1462l174 0.000976562v-800c0 -94.667 -2.33301 -179.334 -7 -254.001l-7 -150h6l578 1204h213v-1462h-172v793c0 93.333 6 232.333 18 417h-8l-580 -1210h-215v1462zM997 1897c-13.333 -212 -142.999 -317.999 -388.999 -317.999c-130 0 -223.667 24.667 -281 74
s-89.333 130.666 -96 243.999h170c5.33301 -68 22 -116.167 50 -144.5s81.667 -42.5 161 -42.5c129.333 0 199.666 62.333 210.999 187h174z" />
    <glyph glyph-name="afii10028" unicode="&#x41a;" 
d="M1198 0h-219l-582 741v-741h-186v1462h186v-708l566 708h206l-565 -702z" />
    <glyph glyph-name="afii10029" unicode="&#x41b;" 
d="M1094 0l-187 0.000976562v1298h-297c-78 -651.333 -146.5 -1034.33 -205.5 -1149s-146.833 -172 -263.5 -172c-47.333 0 -93 8.33301 -137 25v150c38 -16.667 75.667 -25 113 -25c68 0 120.333 60.167 157 180.5s97 505.166 181 1154.5h639v-1462z" />
    <glyph glyph-name="afii10030" unicode="&#x41c;" 
d="M532 0l-278 1280h-8c12 -177.333 18 -312.666 18 -405.999v-874h-151v1462h247l248 -1192h6l250 1192h252v-1462h-153v887c0 68 4.66699 198.333 14 391h-8l-283 -1278h-154z" />
    <glyph glyph-name="afii10031" unicode="&#x41d;" 
d="M1094 0h-187v682h-585v-682h-187v1462h187v-616h585v616h187v-1462z" />
    <glyph glyph-name="afii10032" unicode="&#x41e;" 
d="M616 -20c-354.667 0 -532 251.668 -532 755.001c0 500 178 750 534 750c170.667 0 301.5 -65.167 392.5 -195.5s136.5 -315.833 136.5 -556.5s-46 -426.334 -138 -557.001s-223 -196 -393 -196zM616 143.001c115.333 0 199.833 48.333 253.5 145s80.5 245 80.5 445
c0 202 -27.167 350.5 -81.5 445.5s-137.833 142.5 -250.5 142.5c-224.667 0 -337 -196 -337 -588c0 -393.333 111.667 -590 335 -590z" />
    <glyph glyph-name="afii10033" unicode="&#x41f;" 
d="M1094 0h-187v1298h-585v-1298h-187v1462h959v-1462z" />
    <glyph glyph-name="afii10034" unicode="&#x420;" 
d="M362 569v-569h-186v1462h404c342.667 0 514 -142.667 514 -428c0 -146 -46.167 -260 -138.5 -342s-226.5 -123 -402.5 -123h-191zM362 727h170c132 0 226.5 24 283.5 72s85.5 123 85.5 225c0 186 -112.667 279 -338 279h-201v-576z" />
    <glyph glyph-name="afii10035" unicode="&#x421;" 
d="M1124 201l-0.00195312 -162.002c-97.333 -39.333 -216.666 -59 -357.999 -59c-206 0 -363.667 65.333 -473 196s-164 316.334 -164 557.001c0 230.667 59.667 413.334 179 548.001s282.333 202 489 202c146.667 0 274.334 -28.667 383.001 -86l-78 -156
c-102.667 52 -204.334 78 -305.001 78c-143.333 0 -257.666 -52.833 -342.999 -158.5s-128 -248.834 -128 -429.501c0 -191.333 40 -337.166 120 -437.499s197 -150.5 351 -150.5c86.667 0 195.667 19.333 327 58z" />
    <glyph glyph-name="afii10036" unicode="&#x422;" 
d="M707 0h-187v1298h-418v164h1022v-164h-417v-1298z" />
    <glyph glyph-name="afii10037" unicode="&#x423;" 
d="M1200 1462l-428 -1030c-50.667 -122 -96 -211.5 -136 -268.5s-89.667 -101.833 -149 -134.5s-131 -49 -215 -49c-69.333 0 -128.666 10 -177.999 30v185c56.667 -30 116 -45 178 -45c73.333 0 130.166 17.167 170.499 51.5s78.5 92.166 114.5 173.499l-530 1087h204
l383 -809c8 -16.667 14.667 -32.334 20 -47.001c5.33301 -16.667 11 -31.667 17 -45h2l39 109l312 792h196z" />
    <glyph glyph-name="afii10038" unicode="&#x424;" 
d="M532 1483h166v-180h47c142 0 254 -51.5 336 -154.5s123 -233.167 123 -390.5s-42.167 -288.833 -126.5 -394.5s-202.5 -158.5 -354.5 -158.5h-25v-225h-166v225h-24c-153.333 0 -271.833 53 -355.5 159s-125.5 237.333 -125.5 394s40.833 286.667 122.5 390
s193.5 155 335.5 155h47v180zM698 362l7.00098 -0.000976562c103.333 0 183.666 35.5 240.999 106.5s86 168.833 86 293.5c0 114.667 -26.333 206.834 -79 276.501s-126.667 104.5 -222 104.5h-33v-781zM532.001 1143l-31.999 0.000976562
c-95.333 0 -169.333 -34.833 -222 -104.5s-79 -161.834 -79 -276.501c0 -124.667 28.667 -222.5 86 -293.5s137.666 -106.5 240.999 -106.5h6v781z" />
    <glyph glyph-name="afii10039" unicode="&#x425;" 
d="M1174 0h-211l-355 635l-366 -635h-189l453 764l-422 698h199l331 -559l334 559h191l-422 -692z" />
    <glyph glyph-name="afii10040" unicode="&#x426;" 
d="M1034 166h176v-551h-176v385h-899v1462h187v-1296h526v1296h186v-1296z" />
    <glyph glyph-name="afii10041" unicode="&#x427;" 
d="M1094 0l-186.999 0.000976562v598c-151.333 -60 -282.333 -90 -393 -90c-252.667 0 -379 123.667 -379 371v583h187v-559c0 -86.667 17.167 -146.834 51.5 -180.501s88.166 -50.5 161.499 -50.5c102 0 226 26.667 372 80v710h187v-1462z" />
    <glyph glyph-name="afii10042" unicode="&#x428;" 
d="M1110 0h-989v1462h166v-1296h245v1296h166v-1296h246v1296h166v-1462z" />
    <glyph glyph-name="afii10043" unicode="&#x429;" 
d="M1051 166h178v-551h-176v385h-992v1462h166v-1296h246v1296h166v-1296h246v1296h166v-1296z" />
    <glyph glyph-name="afii10044" unicode="&#x42a;" 
d="M326 0v1298h-299v164h485v-616h68c180 0 318.5 -36.333 415.5 -109s145.5 -175.667 145.5 -309c0 -134.667 -46.167 -239.667 -138.5 -315s-224.5 -113 -396.5 -113h-280zM512 160h98c225.333 0 338 89.333 338 268c0 88 -28.5 152.333 -85.5 193s-151.167 61 -282.5 61
h-68v-522z" />
    <glyph glyph-name="afii10045" unicode="&#x42b;" 
d="M96 0v1462h166v-616h47c360.667 0 541 -139.333 541 -418c0 -138.667 -43.833 -244.667 -131.5 -318s-215.167 -110 -382.5 -110h-240zM262 160h78c225.333 0 338 89.333 338 268c0 88.667 -28.5 153.167 -85.5 193.5s-151.5 60.5 -283.5 60.5h-47v-522zM967 0v1462h166
v-1462h-166z" />
    <glyph glyph-name="afii10046" unicode="&#x42c;" 
d="M176 0v1462h186v-616h191c360.667 0 541 -139.333 541 -418c0 -138.667 -43.833 -244.667 -131.5 -318s-215.167 -110 -382.5 -110h-404zM362 160h201c225.333 0 338 89.333 338 268c0 88.667 -28.5 153.167 -85.5 193.5s-151.5 60.5 -283.5 60.5h-170v-522z" />
    <glyph glyph-name="afii10047" unicode="&#x42d;" 
d="M145 1241l-77 156c107.333 57.333 235 86 383 86c202.667 0 361.5 -64.833 476.5 -194.5s172.5 -306.5 172.5 -530.5c0 -248.667 -57 -440.5 -171 -575.5s-276.333 -202.5 -487 -202.5c-141.333 0 -260.666 19.667 -357.999 59v162
c131.333 -38.667 240.666 -58 327.999 -58c315.333 0 478.333 180.333 489 541h-629v162h625c-12.667 148 -58.5 263.833 -137.5 347.5s-181.833 125.5 -308.5 125.5c-101.333 0 -203.333 -26 -306 -78z" />
    <glyph glyph-name="afii10048" unicode="&#x42e;" 
d="M403 682h-138.998v-682h-166v1462h166v-616h144c12 232.667 47.167 397.334 105.5 494.001s148.5 145 270.5 145c128 0 222.5 -58.833 283.5 -176.5s91.5 -309.5 91.5 -575.5c0 -264.667 -30.667 -456.334 -92 -575.001s-156.333 -178 -285 -178
c-126.667 0 -219.834 52.5 -279.501 157.5s-92.834 286.5 -99.501 544.5zM782.002 143c70.667 0 121.833 38.833 153.5 116.5s47.5 235.5 47.5 473.5c0 240 -16 398 -48 474s-83 114 -153 114c-72 0 -123.667 -39.5 -155 -118.5s-47 -235.5 -47 -469.5
c0 -232 15.5 -388.333 46.5 -469s82.833 -121 155.5 -121z" />
    <glyph glyph-name="afii10049" unicode="&#x42f;" 
d="M610 604l-334 -604h-219l381 655c-181.333 65.333 -272 201.333 -272 408c0 266 168 399 504 399h372v-1462h-186v604h-246zM856 1303l-188.001 -0.000976562c-206.667 0 -310 -85.333 -310 -256c0 -91.333 27.333 -161.666 82 -210.999s133.334 -74 236.001 -74h180v541
z" />
    <glyph glyph-name="afii10065" unicode="&#x430;" 
d="M895 0l-37 152.001h-8c-51.333 -64.667 -104 -109.5 -158 -134.5s-123.667 -37.5 -209 -37.5c-108.667 0 -193.834 28.667 -255.501 86s-92.5 137.666 -92.5 240.999c0 221.333 170 337.333 510 348l203 7v69c0 157.333 -81.333 236 -244 236
c-98 0 -207.333 -27.333 -328 -82l-63 137c130.667 64 258.334 96 383.001 96c151.333 0 260.833 -29 328.5 -87s101.5 -151 101.5 -279v-752h-131zM846 537.001l-161.999 -7c-130.667 -5.33301 -223.334 -25.833 -278.001 -61.5s-82 -90.167 -82 -163.5
c0 -118.667 66.667 -178 200 -178c98 0 176.167 27.167 234.5 81.5s87.5 130.833 87.5 229.5v99z" />
    <glyph glyph-name="afii10066" unicode="&#x431;" 
d="M1040 1571l32.9961 -159.998c-264.667 -44.667 -431.167 -77.834 -499.5 -99.501s-123.666 -68.667 -165.999 -141s-66.166 -178.5 -71.499 -318.5h12c77.333 113.333 189.333 170 336 170c124 0 221.5 -43.833 292.5 -131.5s106.5 -207.834 106.5 -360.501
c0 -173.333 -41.667 -308.333 -125 -405s-198.666 -145 -345.999 -145c-146 0 -260.667 60 -344 180s-125 286.333 -125 499c0 141.333 10.333 260 31 356s48.334 173.333 83.001 232s75 105.667 121 141s102.667 62.5 170 81.5s231.333 52.833 492 101.5zM331.996 655.002
c0 -349.333 97.667 -524 293 -524c177.333 0 266 125 266 375c0 242.667 -80 364 -240 364c-63.333 0 -124.5 -21.167 -183.5 -63.5s-104.167 -92.833 -135.5 -151.5z" />
    <glyph glyph-name="afii10067" unicode="&#x432;" 
d="M844 582l0.000976562 -7c176 -23.333 264 -109.333 264 -258c0 -99.333 -35.333 -177 -106 -233s-175.334 -84 -314.001 -84h-512v1098h510c258 0 387 -92.333 387 -277c0 -131.333 -76.333 -211 -229 -239zM358.001 944v-297h293c89.333 0 153 12 191 36s57 64 57 120
c0 94 -72.333 141 -217 141h-324zM358.001 494l-0.000976562 -344h318c169.333 0 254 60 254 180c0 61.333 -21.667 104 -65 128s-107.666 36 -192.999 36h-314z" />
    <glyph glyph-name="afii10068" unicode="&#x433;" 
d="M1038 944h-565v-944h-182v1098h747v-154z" />
    <glyph glyph-name="afii10069" unicode="&#x434;" 
d="M1128 -381h-176.001v381h-743v-381h-176v535h86c174.667 259.333 263.334 574 266.001 944h592v-944h151v-535zM794.999 154v804h-250c-24 -320.667 -102 -588.667 -234 -804h484z" />
    </font>
</defs>
</svg>
